<mxfile host="65bd71144e">
    <diagram id="kfuahgTVLuFClAg2qV0t" name="Page-1">
        <mxGraphModel dx="5120" dy="3067" grid="1" gridSize="10" guides="1" tooltips="1" connect="1" arrows="1" fold="1" page="1" pageScale="1" pageWidth="850" pageHeight="1100" background="#ffffff" math="0" shadow="0">
            <root>
                <mxCell id="0"/>
                <mxCell id="1" parent="0"/>
                <mxCell id="2" value="" style="shape=image;verticalLabelPosition=bottom;labelBackgroundColor=default;verticalAlign=top;aspect=fixed;imageAspect=0;image=data:image/png,iVBORw0KGgoAAAANSUhEUgAACAQAAAOiCAIAAABi/QACAAAAKnRFWHRjb3B5bGVmdABHZW5lcmF0ZWQgYnkgaHR0cHM6Ly9wbGFudHVtbC5jb212zsofAAAC5WlUWHRwbGFudHVtbAABAAAAeJydVdtuGjEQffdXjPJSeCBq0qpqkaiSkksVgRRByLvxDtTKrr21Z0l562/09/olHXsXYsjmVp52hjNnbsf2iSfpqCpyQZpyhPNC6hxu0emFVpK0NdCDKf6s0CiEMy2XThZCSEXWwcGFVFVOa7ALGNqirEib5d/ffzxMqcrQkD8AuTVeDBqhosqhq6M21mtzwQRLh56/uOwVMqgyinsZYzHfcE4nw9psSE+zQhvtyUm2fEBEjxBzDs6kW8PBBJc1IIziwroiEqXe4BTKGnI2h+naExYxV/xKmGYe3TtfTziSBEe0EtDQmoV2RZ3uWi4xIlNvcD6kq8rSOor56k/BA9DUpINTpZiatukaW4jBAMZSc0e5vYfBQIjNFHtfHzXXjwPPkRBcOo1FaHwfHAjq1vtwiQb5H4RVqqdcmzvRzInB2yn0WWcm28ViHM8WEsnrQvtcpsKw6JaApJmEfphrdedbitnlb4rfOQMunAAfJaxXoaNmuw9t7IStIy/Iin6EdSheiJA57XJGyErmOgPJfRtLgL9K7TATwL/dCTWL6/PWHBPXVthq3U0TkyChlxS18RUcjNmjsIdU+0ILU864JEVAFlQqzjLoEHOPLV2lfbQv70z7MpfrDbIJc44PZYHeB+5Y2XOqnNRLAYP3bSII8f+nTugwZbdlC8/rNAl7q2LTjG/S7pM5n1FxErOv592WX9J0Q/SECLSJ4n6FCBpkiwja59JcdeFe4tuetemba5BvJBa355XL8FzxXZiJDPebPGF3ePHEdS4NzcajMFYf6j46PH5//OHwyxxJHnVm5s7Ye8OyL0rNbyPpAruic3k9Am8rxwmyIC49r0LTXXElVxImfM4Y14dgdW7GXZieb5xwblbaWVOE1/DqdlyD4LulaWkpgj997H3TxApzXBPcjsUZLiS/exyqbMZPXh9mNxe9z2IkzbKKJxSNCG8duTX/NxX/AGYrvklLAWx1AACAAElEQVR4XuzdCZjV1Pn48Rn2nTIMO4qiIqAiruBSoGJd2qIodaNSf9harYLWrQhWEBBFHaEgQrW2rlUsUChY0UcFBUWQ1Q1ll30AlW3Yl/zfzin5h5Pl5t7JTJKb7+eZhyc5OTlJ3rzn3OVw780xAAAAAAAAAABAVsvRCwAAAAAAAAAAQHZhMgAAAAAAAAAAgCzHZAAAAAAAAAAAAFmOyQAAAAAAAAAAALIckwEAAAAAAAAAAGQ5JgMAAAAAAAAAAMhyTAYAAAAAAAAAAJDlmAwAAAAAAAAAACDLMRkAAAAAAAAAAECWYzIAAAAAAAAAAIAsx2QAAAAAAAAAAABZjskAAAAAAAAAAACyHJMBAAAAAAAAAABkOSYDAAAAAAAAAADIckwGAAAAAAAAAACQ5ZgMAAAAAAAAAAAgyzEZAAAAgPDlFLv33nsdV0ub/XDz588///zzq1SpojY51glWabePtHA7AAAAkH2YDAAAAIAX9a6oRq9UYu2KjRw5Uq2qozi+FduxY0fZ1KRJk0OHDpmFW7ZsqVixopT36tXLUtcv7eiidevW0pq0efbZZ8smxzoZc7y6ANtP1969e/v169e8eXO53ipVqhx//PE/+9nPFi1apNfLIv/L45ycChUq1KlTp23btvfdd9/atWvNCiHeDgAAAKCUBP9CDgAAANlEvWfaqFEj9faoolcKmuPb5cqLL76otr777rtm4ciRI1Xh/PnzLXVT27Nnj15ULDc3NyfTqYWUPK4uFL/5zW/UKR177LFnnnlmfn6+LI8bN06vl0XU9UpWn3POOXLVarVOnTqzZs3SqwbNLeUAAACA0sZkAAAAALyo90kd37lWm3r37n3HHXfUqlWrQYMGBQUFmzdvvuaaa6pVqyarw4YNMysvWLCgY8eODRs2rFChQuXKlVu2bDl48OADBw5Ym/LzNUFFRUU1atSQrT169DALzz77bClp06aNWt29e3ffvn3Vf3WXI95+++07duxQm1TLv//972+88UY5yQEDBpiF2tGt7HXEF198cd1110n75cuXz8vLu/zyy1W5nyu1spZb2581a5a0+aMf/UiuQq6lT58+u3btslbu1auXRL527dp16tQZOHCguWO6atasKa1169bNLJFLWLZsmVr2CKZ4/PHH69WrJ+dwVzGPK9JWPZpVNT2uzi3yHm1qtJP55JNPmjZtKiXyr3qzXqvgfU+FZH79+vU94qClnHeDahefPQsAAADwickAAAAAeNHeFbVvqly5cuPGjRs0aKBWmzVr1qRJk3r16qnVTz75RFWeOHFiuXLlTjjhhLPPPlsqqK0PPPCAtSm3N441N998s2ytXr16UVGRrC5evFjVHz58uKpw8cUXy2qlSpXatGlTtWpVWb7wwgsPHz5sHGlZNtWqVev0008fPHiwWWgerl27dqrE/DyEvc6nn36qWq5QoYIcRa4r58ibv95X6ti4vf0PP/xQffFRXl7eaaedpj6p8OMf/1h9OZKqLBUk8maoZ8yYofZNV+3atWV3OeGxY8euWbNG2+oRzJdfflkdWi5TzqRatWpqVe2olt3uqUezqqbb1XlE3qNNjWrTmmBTpkxRheojEVoF73v6j3/8Q5XIJrmtjnHQUs67QbXqs2cBAAAAPjEZAAAAAC/qnUeNddOJJ564e/fuFStWWFeXL1+uVh955BFVubCwcMuWLWazV155pWw95phjrE25vXGsmTlzpqrw0ksvyeoDDzyQU/ze8ebNm2V12rRpspqbm6u+Muizzz5Tld966y3jSMv169fftGmTrFrfW7ceLmVJ586dc4q/WGbx4sWqZOHChWrB+0oNW1OOheZPI2zbtk1Wx4wZoypMmTLFrNysWTNrqNW7zBno06ePakFp2rTp/fffv3PnTiNVMNUHMlq0aLGnmCyorapZtex4T72bVctuV+cWee82NWqT9RYUFRWpwv79+9sreN/Tc845R1abN28uQZBzPu6449Tuaqta1lLOu0G1i8+eBQAAAPjEZAAAAAC8qHceHX8zQG267bbbjOK3OK2rhw8fVqv33Xefqrx+/fr/+7//O+aYYypUqKA2ifLly1ubcnzj2NGJJ54oFS6++GI5kLQpy127dlWbnnjiiSPNH+Xhhx82jrTcs2dPa2uq0OOtf3tJ9erVZfW3v/2tWcHkfaWGrSnHQvW/y832t23bpipY36q+5ZZbDEvkzVBr7DfObuzYsZdddpn6viDll7/8pZEqmFWqVJHl22+/XTUiC2qrWlXLjvfUu1m17HZ1bpH3blOjNllvwc6dO1Wh4zdHed9TFYdbb71Vrf7ud79TFdSqWtZSzrtBteqzZwEAAAA+MRkAAAAAL+qdR8f35bVN3qsXXnihKmnRokW7du0aNWqkVh0ra6t2jzzyiFQoV66c+U01//73v9Um9aZw+fLlrW+Ci5EjRxouLdsLU5a4vSVtpLpSw9aUY6GfyQCf4VJbFX3b0Q4dOjR37txTTjlFalapUsVIFUw/kwH33HOPLO/YsUOtqpP0btZa077qFnnvNjVam0LyRxX+85//tFfwvqcqDnfccYdadZwM0O6Od4PaLt6rAAAAgE8pXg8AAAAg4TzeefR+j1JbVd+Af/3118vy/v371dfg5Ph799NuzZo15cqVkzrqP7M3aNDA/PFV9XUxYvr06apENr3zzjsbN240XFq2F6YsUV9Wk5eXt2TJElXy+eefqwXvKxXqP4Ob/5Fc0dr38zVB/sPl7Z577jG/csc48pU1devWNVIFU309zsknn7y3mCyoyqpmrVq1ZPm6666T5fHjx1tP0rtZa037qlvkvdvUaG2aPyAsAd+9e7e9gvc9Pffcc2W5devW+/btc/uaIO3ueDeo7eK9CgAAAPjEZAAAAAC8qHcePb4myO09Sm1Vfb98uXLl2rRpU79+/bp166oKjpW1VUeXXHKJqmavqX5INjc3t1WrVqeffrr6v+Tqm+Ud69sLU5ZYf8ZWDqG+tkht8r5Scdppp6kdzzzzTLdgfvjhh2rOIC8vT9px/AHhtMLlQe3eoEEDOR/zx2x79+6ttnoE0/xYRtOmTWVH7Ydzu3Tponbs3LmzmhjIsZykR7NaTW3VI/IebWpUm5LV5557brNmzdRqnTp1Pv74Y2sFn9lr/oCwxKFx48bq9Mytalm7O94Nart4rwIAAAA+MRkAAAAAL+qdR411k9t7lNrqN99806FDh0qVKjVs2HDAgAH33HOP/6Ycvf7666qa+OKLL6ybdu/e/eCDD55wwgkVK1asXr36WWed1bdvX/Vf7B1bthf6KZGDXnfddQ0aNChfvnxeXt5ll12myr2v1Ch+o/+0004zvyxeFdrbnzVrlrRZu3ZtuYrmzZv36dNn165djpXt+6Zl6NChl1xySaNGjeSU5LRbtWo1aNCg/fv3q60ewRSPP/54vXr1atWq1atXr7vuust6RatWrbrgggtkL2nQ/BIe8yQ9mk15dW6R92hTo9rMKf5aIYmw3I677757zZo1WgWf2SsKCgpUHO64447bbrst58j3LNmbUrwb1HbxXgUAAAB8YjIAAAAAQADuvfde6zvaybF///4NGzao5T179rRq1UqCYH7mAwAAAIiIxD1TBwAAAFAaEjsZsHXr1ooVK3bq1Onqq68+9thjc4q//2fq1Kl6PQAAACBUiXumDgAAAKA0JHYyYM+ePZdffnl+fn65cuXq1Klz6aWXfvDBB3olAAAAIGyJe6YOAAAAAAAAAEDSMBkAAAAAAAAAAECWYzIAAAAAAAAAAIAsx2QAAAAAAAAAAABZjskAAAAAAAAAAACyHJMBAAAAAAAAAABkOSYDAAAAAAAAAADIckwGAAAAAAAAAACQ5ZgMAAAAAAAAAAAgyzEZAAAAAAAAAABAlmMyAAAAAAAAAACALMdkQHQtW7bs6aeffuKJJ+VPjBo1Skr0SkC2kPSWJJdsf/zx/+Y8CQ+ghHgYBaKDR3kAAAAgCpgMiKINGzb07z/wL395YfHitWvWbFN/y5dvfOGFVwYPHixb9R2AOJOUHjhw0PPPv7hkyToz4WVZSqSchAeQLh5GgejgUR4AAACIDiYDImfBgoX9+g1YsWKz+XrJ+rd27fePPDJk0aJF+m5APEkyDxgwaOVK54SXctlKwgPwj4dRIDp4lAcAAAAihcmAaFm3bn3fvgPsL5asfxs27HjkkSH8RypkAUnjAQMG2ZNc+5M6JDwAP3gYBaKDR3kAAAAgapgMiJYHHnjI7T8zWv/Wr/9h0KBB+s5A3AwYMNBPwksdqanvDAA2PIwC0cGjPAAAABA1TAZEyBdffD169Av210iOf6+88trSpUv1JoD4kAR+7rmX7Lnt+Cc1SXgA3ngYBaKDR3kAAAAggpgMiJCCghHWnzr0/vv2202jR4/WmwDiY9SoZ/wnvNSU+noTAGDBwygQHTzKAwAAABHEZECEDBgwxP7qyO1vw4YdBQUFehNAfDz66OP2xPb4k/p6EwBgwcMoEB08ygMAAAARxGRAhPTvn8a7GGvXbuddDMTakCFD7Ynt8Sf19SYAwIKHUSA6eJQHAAAAIojJgAhJ612Mdet4FwPxxv8ZBBAsHkaB6OBRHgAAAIggJgMi5PHHh/v/ctVlyzbwZceItZEjR/lPeKkp9fUmAMCCh1EgOniUBwAAACKIyYAIWbDgy9GjX7C/QHL8e+GFV5cuXao3AcTHkiVLxozxm/BSU+rrTQCABQ+jQHTwKA8AAABEEJMBEXLw4OH77//TihWb7a+RtL+VK7cMHDhI3x+Imwcf7O8n4aWO1NR3BoCj8TAKRAqP8gAAAEDUMBkQLUuXru7Tp7/9ZZL2N2DAoA0bNug7A3Gzbt36vn0H2DNc+5M6UlPfGQBseBgFooNHeQAAACBqmAyInJkzP+3Tx/U/Ukn5Qw8NXLRokb4bEE/z5i3o23eAR8LLVqmj7wYALngYBaKDR3kAAAAgUpgMiKLly1f36fPQqFF/s/7wmiyPHv23/v0f5j8zIsusXbu+X7/+9oSXEimXrfoOAOCJh1EgOniUBwAAAKKDyYCIOnz48BdffP3EE8MHDny0e/cegwc/Nnz4CH7qEFns66+/KSj486BBj0nCy7+yLCV6JQDwh4dRIFJ4lAcAAACigMmAGCgoKNCLgOxFwgMIFqMKEB30RwAAACBETAbEAK+akCgkPIBgMaoA0UF/BAAAAELEZEAM8KoJiULCAwgWowoQHfRHAAAAIERMBsQAr5qQKCQ8gGAxqgDRQX8EAAAAQsRkQAzwqgmJQsIDCBajChAd9EcAAAAgREwGxACvmpAoJDyAYDGqANFBfwQAAABCxGRADPCqCYlCwgMIFqMKEB30RwAAACBETAaE6Y033ijw4eqrr9aLnEhr+gGAKCHhAQSLUQWIDvojAAAAEH1MBsRAAf+FCklCwgMIFqMKEB30RwBBOXTokF4EAMgII2qiMBkQA7xqQqKQ8ACCxagCRAf9EUAgvvjiizfffFMvBQCkjxE1aZgMiAFeNSFRSHgAwWJUAaKD/gig5EaPHt2qVautW7fqGwAAaWJETSAmA2KAV01IFBIeQLAYVYDooD8CKKEbbrihUaNGvXr10jcAANLEiJpMTAbEAK+akCgkPIBgMaoA0UF/BJCxnTt3tm/fvlGjRi1btpw9e7a+GQDgGyNqkjEZEAO8akKikPAAgsWoAkQH/RFAZr755psTTzyxYcOGl156aYcOHfTNAADfGFETjsmAGOBVExKFhAcQLEYVIDrojwAyMGXKlCZNmjQsdtVVVz333HN6DQCAP4yoYDIgBnjVhEQh4QEEi1EFiA76Y2l444039KJM7dxZNG7chCFDhg4e/NigQY/Jv7IsJVKuVwXKyvbt25s1a6betxLHHnvs/fc/8Oijj0+YMLGoiMxEhhg5wxJg5Ldt2zF27PhHHhkqYZc/WWBkSIkR1VHSejGTATHAqyYkCgkPIFiMKkB00B9LQyBRXbZsxUMPDRw8+Mn33pu9Zs0265+USLlslTr6bkApW7x4ab9+A+68877jjz9evXXVocNPnnhipMrMRx8tGDhw8MqVK/XdgFQYOcMSSOTVyDB48BOOkWdkcMOIapfMXsxkQAwEMlYCcUHCAwgWowoQHfTH0lDCqB46dGjYsBEFBaNWrtyivQy2/slWqSM1pb7eBFAK9u8/MHTosCeffFpl5sKFy84665zGjRu3bn3KeeddYM3M4cNHjxz5NJmJtDByhqWEkddGBrc/RgYNI6pdknsxkwExUMKxEogXEh5AsBhVgOigP5aGkkS1qKjoj3/s++GH8+yvfh3/pKbUT/I3CaBs/PDD9nvu6aNl5vLlm668slvTpk1POOHEyZPft26aOXNBv35/IjPhHyNnWEoSeceRweOPkUFxjFvCR9SE92ImA2KgJGMlEDskPIBgMaoA0UF/LA0ZR/XQoUPyyvbzz1fZX/R6/El92Sub/n8combfvgN3393HLTPvvbdvo0aNeva8VSv/8stvH3zwT2QmfGLkDEvGkfceGdz+GBm845bMEZVezGRADGQ8VgJxRMIDCBajChAd9MfSkHFUhw8f4f//xFn/ZC/ZV28OCMLhw8Zjjw3zzsy//e21k09u+eWXq7Xyjz9e+PTTo/QWASeMnGHJLPJ+Rga3vySPDH7ilsARlV7MZEAMZDZWAjFFwgMIFqMKEB30x9KQWVRXrlz51FOj7C90ff7Jvkn7jUGUjS+/XPLkk0/bU077e++9T1588Z/28mee+cuqVav0RgEbRs6wZBZ5nyOD219iRwafcUvUiEovNpgMiIXMxkogpkh4AMFiVAGig/5YGjKLav/+g1as2Gx/levzT/aVFvRGgZI5fPjwAw/095mZ3377g71w1aotQ4YM0dsFbBg5w5JB5NMaGRz/kjkypBW35Iyo9GKDyYBYyGCsBOKLhAcQLEYVIDroj6Uhg6ju3LlzyJAC+0vctP6kBWlHbxoogc2bfxg8+Al7sqX199RTw8lMpMTIGZYMIs/IkBniZkcvVpgMiIEMxkogvkh4AMFiVAGig/5YGjKI6sSJ/37vvdn217dp/UkL0o7eNFACr702ruSZ+fHH8yZPnqw3DRyNkTMsGUSekSEzxM2OXqwwGRADGYyVQHyR8ACCxagCRAf9sTRkENXHHnvc/uI2gz9pR28aKIGHH37Unmbp/m3cuDODToGkySBJGDkDkUHkGRkyQ9zs6MUKkwFRt3v37uuvv17+1TcA2YiEBxAsRhUgOuiPpSSDV+mPPhrMi2FpR28aKIH+/YfY0yzdv3XrtmfQKZA0GSQJI2cgMog8I0NmiJsdvVhhMiDSDh069NBDD3311Vfyryzrm4HsQsIDCBajChAd9MfSc9dddxWk6c4777a/ss3gb8iQofrZACXQv/8j9jRL92/t2m0FWfTWFUoJI2dYMoj8n/402B7GdP8SODIwotpJ77NfYwZ/ce/FTAZEmnS5pUuXyoL8m03dD3BEwgMIFqMKEB30x9KTQTz5n3GIpgEDAvh/rBs27MigUyBpMkgSRs5AZBB5RobMEDc7erHCZEB0vfTSSx9//LG5KstSYtkOZBUSHkCwGFWA6KA/lqoMXqUPHfqE/ZVtBn/Sjt40UAIDBwbwDdebNmXVN1yjlGSQJIycgcgg8owMmSFudvRihcmAiHr77bcnTJigFUqJlGuFQBYg4QEEi1EFiA76Y2nL4FX6v//97/ffn2N/cZvWn7Qg7ehNAyUwduyE996bbU+2tP5mz54/efJkvWngaIycYckg8owMmSFudvRihcmAKFq0aNHo0aP10mJSLlv1UiDOSHgAwWJUAaKD/lgGMnhjZefOnY89VmB/fZvWn7Qg7ehNAyXw/ffbBg8u6X/bHD78z2QmUmLkDEsGkWdkyAxxs6MXK0wGRM7atWsHDx6sl1rIVqmjlwLxRMIDCBajChAd9MeykcEbK8Z/vz1g8IoVm+0vcX3+yb7Sgt4oUGIPPvhwSTJz3bofhgwZojcK2DByhiWzyDMyZIa42dGLDSYDomb79u39+vXbv3+/vsFCtkodqalvAOKGhAcQLEYVIDroj2UmszdWVq1a9ec/j7a/yvX5J/tKC3qjQIktWbL8ySeftqecz7+//OU5MhN+MHKGJbPIMzJkhrjZ0YsNJgMixf/LIT8vroCII+EBBItRBYgO+mNZyuyNFTFy5NMzZsy3v9BN+Sd7yb56c0BAnnzyzx9+OM+eeCn/5s37fNSoUXpzgBNGzrBkHHlGhswQNzt6MZMBEZLWB6VTfuwaiDgSHkCwGFWA6KA/lqWM31g5dOhQv34PfvHFKvvLXY8/qS97yb56c0BAJLvuu6/v55+nl5nLlq176KGHyEz4xMgZlpJEnpEhA8TNjl7MZEBUZPATah4/yAZEHAkPIFiMKkB00B/LWMZvrIiioqJ+/f40c6bf/x8nNaW+7KU3BARKcuyPf+zr/3+zzp372UMPPURmwj9GzrCUMPKMDBkgbnYJ78VMBkTChAkT3n77bb3UB9lL9tVLgWgj4QEEi1EFiA76Y9kryRsrRvH/jxs58umRI8esXLnF/urX/JOtUkdqZsf/iUP0SaYNHz5i2LBnvDNzzZrvR49+dtSoUWQm0sLIGZaSR56RIQPEzS7JvZjJgPB9/PHHL730kl7qm+wrLeilQFSR8ACCxagCRAf9MRQlfGNFWbly5eDBjzzxxLAPPpijvQyWEimXrVJH3w0oZStWrHz44UGPPVbw/vuzrWm5du22mTPnFhQMHzJkCJmJDDByhiWQyDMyZIa42SWzFzMZELKlS5eWfCiUFqQdvRSIHhIeQLAYVYDooD+G5Y033tCLMlVUVDRp0qQnnnjy8cefGDr0CflXlqUkaz4Xj5iSDJw4caJko6Sl/MmCIDNREoycYQk28owMGSBudknrxUwGhGnz5s2B/CKHtCDtSGv6BiBKSHgAwWJUAaKD/ggAAABEH5MBYXrhhRd2796tl2ZE2pHW9FIgSkh4AMFiVAGig/4IAACAKBs7dmxBEAL8gEsomAwAAAAAAAAAACDLMRkAAAAAAAAAAECWYzIAAAAAAAAAAIAsF/XJgOnTp+fk5GzZskXfEJxnn332uOOOK1eunBxI3xYrZRCrMqCuYuvWrfqGBCiDO0i2I2rK4FaS9pGS5EE+LNmROSbr5YR+aaGfQElk1hl9XrLParALJXShHBQA4C1Sz3nstBdZoZxhKAcFskBJ3xlRfc/qrrvu0iuVgH34S/dFi7d169bJ4DVmzJj169dv3LhR32wYa9eu/d3vfnfMMcdUrFixXr16v/zlLz/99FO9UplzDMW+ffvkEg4fPmwtTItq9rvvvtM3OFm+fPk111yTn59fvnz5unXrdujQYerUqWqT4+n5VJJ9lZK34IZsD4VjKMo42623poQcLyfKSPtQOIaijNM+voO8NWlr1ap16aWXfvXVV3ql+Eh5vVaOlUueOVahdxnr5ajrtQ/OqrxmzZq7du0yCxcvXqyywmcw/XA7gXDNnz9fzur888/XNxzNMVtS8plOKatldnRTCXcPijoNJajRJpTQpTxoWqxhUYJ95oAY8XgukRbHvEViqXywPvgGmyH29j3YRzzx9ddf6/Uy4uc5j0+BP3+zv8gK9qHEzvEuB3tQ692sU6fODTfcsHnzZr1SGIIaS0uD431Jiz23S96mN59PlctYaV+1JpjJAHniu/GIHTt26JVKwJoWpRGaDz/8UNr84Ycf9A3FpMvVr1//iiuukGpr1qyZN29e3759f/azn+n1ylxphMIonto988wz9VIne/bsadq06eWXXz579mx5GFi4cOGIESNee+01tbUkp1eSfZWSt+CGbA9FaYTCSCfbDafHp4yV5HIOHDigF7lLq7IH0j4UpREKI520j/Ugb01aear305/+9OSTT9YrlVhQXSyllNdrlVblDESty6jrtQ/Oqlxe8b744otm4b333nvssccGGx+3E0hXsOn0+9///pxzzpGX6IsXL9a3WZR2tnjzc3SPsPjZ3YNHy2lRp1Hao43Gz7V7XKCf3UvIGpbMnjl4nD9ixPu5RFrKIG8RIyofSumtQxl/7O17sI944uDBg3q9EkvrrDSl8fzN+0WWJpBRPcC77MZ6Nz/55JNTTjlFRjC9UpkLcCwNnNlfSnJf7Lld8jZNjrnn86lyGQvwqv0IZjLAPiTJq6/TTz+9UqVKP/rRj371q1+Z13Po0KHHH3/8hBNOqFixYqNGjQYOHGjYGrGGwLop52hSIrtL/1R7Keeff37v3r2tJUbx7X/wwQel/8hBW7Ro8fzzz5ub7G1aXXLJJfYh0rwWj2bVab/99ttnnXVW5cqV27VrJ+OvdN2zzz5bVuXfpUuXWmu+++675513nmySl6lPP/20dZNjWI4+6/+dtrW+Wn7nnXfOPPNMuQtyxG+++UZV27dv3x/+8If8/Pxq1ap17dpVBhGz2auvvnrKlCmq2l/+8hd5FV2+fPnGjRsPGzZMFZpkZJS9Vq1apZUrR5+dw0fGrNciYZTX5+p8unTp8sorr5ibhAxzEluJcJMmTR566CHzYdXjAo8++P+C4305PmlXYSLbc7I62w3b6Vm5pajj3TecLsfj2tXyW2+9JY9V0o46Ybcj2iunvC4/3K6dtM/J6rSP3SBvpZ2M3CZZlafRZgXvgzreLHOrz/7oFl63+uler1sHdKxsBuTZZ5+Vl4LWF6g33HCD3BS17HZuVpl1GY/08Lhwx8FEa01r2aTK5So6dOigSvbv3y/X3r9/f/PQhvslq91L2MEV70MEPmKL3bt3165d+z//+c/FF18sXc+6yaMzpnvJKQciazXHS8s5mnUva1jSSnW3DHRs2fGs0mW9TCOd0cZjoA4ldNaDpgyj4x230sJiStmy9fxViZ+cRGR5PJfweILnP+0N9y5G/mQ3+yCjStRA55hCRqpssY8/HuOwlf1ktE1+8tBtxLY27nGglDJ7/mZ4DvtHuuP/mJWtZ2uPakmiYT+idtDMLsRKC/I///lPufXyHNJwPyuPB3TDPevS4jGWaiesVq1PJ9yeo3pvTRlJ6509ckP+x6zpn3YVZklQPdrcRfF4quz26sOt3C1QKe+LYypaw5iTUSTTUtID2G+b8vLLL7///vtr1qz54IMPTj311BtvvFGV//GPf6xTp87rr78um+bOnav+x1bKSKlNEyZMkOUlS5ao6Vaj+LNOkhNz5sxRO0oQpcJnn32mVk233357vXr1Jk+evHr16r/+9a+S63//+9/VJnubpu+++y43N1dukrXQyqNZddrt27efNWuWnJU8uZEhr1OnTjLYqdXOnTtba5544on2djzC4nja1vpqWQ4kA8fXX38tZyJHV9Vuu+02SV9JfTnc3/72twYNGpjNmmSgkWt/7LHHvv32W7lNcm7WrULKpcLQoUMPOM2z2U/P41ruvPNOeX2uLv/ZZ5+VYdTcNGDAgJNPPlm6sdxoGaeOO+64fv36WVtwvED70VNejk/aVZjI9pysznbDdnomjxR1vPuG0+V4XLtabtu2raSWnJ7U8TiiVnnBggUpr8sPt2sn7XOyOu3jNchrrCezbdu2Hj16tGrVytya8qCON8vc6qc/uoXXrb7ZuP/rdeuAjpXNgPzwww/ypNP8WPHOnTvldcsbb7xheJ6bKeMu45EeHhfuOJhorWktm1S5xKFKlSryUlNK/vWvfzVv3nzatGn+06+EHdzPIQIfsY3i3JCXTPKiRV7Byu1Qr2AVj86Y7iWnHIjMam7dwSNXrb0srVR3y0B7y0EF3BqNtEYbj4E6lNBZLyRlGB3vuJW1NauULVvPX5X4yUlE1rfuzyXcnuCllfYeXYz8yW72QUaVyCjqlkIps8U+/niMw1b2k9E2+clDtxHb2rjHgbxl/PzN8Bz27b3Sfrb2qJYkGvYjagfN7EKstCD/+9//ltDt3bvXcD8rjwd0j6xLi8dYqp2wWrU+nXB7juq9NWUkrXfW8b6kRbsKsySoHm02q3g8VXZ79eFW7haolPfFMRVLHsm05OgFaVJXUt1CoqDVmThxopQfPnx4x44dEp0XXnhBq5AyUtYBRXtH4+c///mtt96qluUOnX322datRvFT84oVK8r9NkukmvkZXsc2FRmVZJPklr6hmJ9mZbBQq5JksjpjxgxztUKFCmrmStXU2mnZsqW5ySMs2mnbYyUvetUmeakvR5SxY/v27XLaksTmXg888IC9KcnvHKd33KxGjBhRrVq1GjVqXHjhhffee6/sYm6yn57btcj5VKpUyXr59913n9q0a9euqlWrykOFuem1117Ly8tTy24XaG6yHt3P5fihWibbDadmszvbtdNTPFLU7e4bTpeT8trNxzyPI9or+7kuP1SzpL3h1Gx2p32MBnmNqqDSVRZatGih3g42/HUix5tlbvXTHx3D61HfKNn1mh3QcKmsCtXd6dq1q/nq5ZVXXqlVq9aePXu8z82UcZexnoC5ak11+4W7DSbG0a1pLdvrXHvtteq1gYwkgwcPNg/tfcmqWgk7uJ9DBD5ii44dO8oLJOPIhyHGjRunyj06o5H+JXsPRNZqbpdm3gt7oeO7LUaqVPfIQMPWsttZpUs1m+5o4z1Ql33ozEI5qJ8wOt5xK2tYFHnm4Kdl6/mrEj85iSjzeC7h+ATPf9p7dDGD/Ml25pCllUiGOKaQn2xxHD8dW9PYR7wmTZpYN6Wbh/YR2/s5T0oZP38zPId9M+bmjvazLfmobo9GGTx+qUuQf+U5Vfv27bU6huWsPB7QvbMuXW5jqfWEzVXr0wnH56jeW/1E0n5nPV6qpKRdhVkSeI9W3J4qu736cCv3CJR2RdYQqWXHVCx5JNMSzGTAp59+uuwIdRkfffRR586d69WrJ/lapUoVqSMRnDNnjizY30hKGSnrgKKFZtKkSbVr1969e7cMHI0aNRozZox1q3Fk7LMe9D//+Y+UqPk9xzYV70HTT7ObNm1Sm9Tq999/b12V1DGXHduxXrtZ0xoWt3HQXNZOQI6oTnvNmjXmXupwWlNyE8855xwJ7I033ijjsn1QVuSevvnmm/Lq+uKLL87NzR0+fLgqt5+e27XYU8I8H0mqnKMfVlUi7dy502zBfoHWxs02fV5OSqplst1waja7s107PcUjRd3uvuF0OSmvff369WqTxxHtlf1clx+qWdLecGo2u9PeiM8gr1EVpP1vvvlm9OjR8ixtwoQJapOfg9rP1nrT/fRHx/B61Dcb93+9jh3QrbIqVHdHnu/KLupndS+77LKePXsaqc7NlHGXsZ6AcfRJul24PXNM1ta0lu113nnnnaZNm0qPqFSpkpy5eWjvS3Y8q3Q7uJ9DBD5iyxBdvnx583zkNYncZbVsD6l1cEj3kr0HIms1t0tTFRxz1QyLkU6qe2SgWT/wgKtm0x1tvAfqsg+dWSgH9RNGxztuZYbF+szBT8vW83c8lmNOIuLcnks4PsHzn/YeXcysT/5kK3UHrY/+ZoY4ppCfbLGOPybH1jRqd+uIt3LlSusmP3noPWJ7P+dJKePnb4bLJbg9QbWfbWajunc0yuDxSyWJjFdnn332kiVL1CbHs/J4QPfOugw4jqXm5as61hCpZe+AOG71E0n7ndXuS1q0qzBLAu/RRppPlb3LPQKlXZE1RGrZMRVLHsm0BDMZoA1JcvY1a9a86aabZs2atXTp0pdeekldklsQP/jgA2sj77//vhYp64CihUaSQ549vPLKK5MnT65Wrdr27dutWw3PO2S4tKl4f5zKT7OO915bVcv24UPaSRkWt3FQW7bWtz8SvPXWW/amjOJZsilTptxxxx116tTp2rWrttVu0KBBMiweOnTIcDo9t2tRKWG/fPNUZ86caT6sKtZD2C9QWzalezmOtIMqZLvHvdBW1bL9dkc/27VDKB4p6nb3DafLSXnt5iaPI9orGz6uyw97swZpbwuLdhTrqlqOY9prIj7IW2n73nXXXccee6z6BKifg9rP1vGmezdlD693/bSud6tLB3SsbBaqxuVa5Pn0a6+9Js9BK1SooP5/lve5mTLuMm7pYbhfuNtgYtZx7Aj2OnIJcvc7deqknuib7XtfsttZ2VfVsmPOpHUIwylnMtCnTx9ptvwR5Yqp0/PojIbtfFJesmP83ao5Xpp2CGuh2WBaqe6RgWb9wAOuNetztPEeqMs+dNbd0wqjY1NmudYx02rZXqIdy+3QiDjrcwm3J3g+096ji5n1yZ9s9fHHH8sdXLdunVkydepUKdm9e7fhlEJpZYvG3prGY3efeZhyxFYteBzIW8bP3wzbQa2XoF2OVtl+th5NWVdTRkPruWazGV+IlSr/9NNPly9fLnEzy93OyuMB3TvrSsgcS1M+x7Y/8bMGxHFrWpE0S+zB9K8se3TKp8r2Vx9u5R6BSnlfHFOx5JFMS6lMBqh7aSbWk08+qS7J7eMVCxYskApff/21Wh0xYoRjpGbMmJFjmTw09e3b9yc/+Ymkxa9//Wttk3Hko7iOn38xUoX7pz/9qf3Xw1VlP8063mBtVS3L0yC1ySjOTtWOR1gcQ2E9qNsJbCv+JMvYsWPNvSR6HhEwjnyAS/VDD5MmTTK/T81+em7Xoj60br38+++/X23auXNnlSpV/vGPf5ibrNwu0HA6upXPy3GkHVQh2z3uhbaqluOY7dohFI8Udbv7htPleFy7dlyPIxq2ylZu1+WHY7OkvVvW2VfVchzTXhOXQd6w7StP0eSp3muvvWb460SON8vc6rM/mszwetdP63rdOqBjZcPW+M033/zzn/985MiRTZs2VU+avc/NKrMu45Yehu3czAt3G0wMz47gWEf9aLD6CLDZvvclu52VfVUtO+ZMWoew8tkl7Q4cONCwYcPHHnvsC4u2bduqXznz6IyG7XxSXrJj/N2qmayX5idX00p1jww0bC1bZRxww9asz9HGe6B2PNVSDZ1h2T2tMKpVM09MjpeQVsv2Eu1YbodGxFmfSxipnuB5p71HFzPIn2xXWFgoifTWW2+ZJfLY17hxY0uV/8rsOZgbtwcLj9195qHHiG1tweNAKWX2/M2wHdR6CdrlaJXtZ+vRlHXVIxr2ccDcsVQfvwz3R1WPB3TvrCshcyxN+Rzb8Tmq99a0Imm43Je0lFmP9n6q7Pbqw63cI1Ap74tjKpY8kmkplcmA9evXy1NheY2xatWqiRMnHnPMMeblSXTy8vKkt6yx/PDCvn378vPzu3fvLvWnTp16wgknOEZKnmHLstyDzZs3W4+4YsWKcuXKVahQ4cMPPzQLre6444769etPmTJFDvr888/bf/7CPgooS5curVev3hVXXCEty75yRx966CHzd9hTNut4g7VVtXzSSSe9+eab0s7f/vY3SWv1I9QeYXEMhfWgHidw2223Sb+SniaHk/hLZ8ixfUJqzpw5Tz/9tOTusmXLevTo0aRJE/U1baaPPvro+uuvnzBhglSQduTkTz75ZDMy9tPzuJZevXo1aNBAWpC95MIl4Oamhx9+WLJFete3334rB5K0MX+22+MC7UdPeTk+aQdVyHaPe6GtquXYZbtxpE35d6HFoUOHPFLU8e4bTpfjce3apRnpdAo/1+WH/RwM0t4WFu0o1lW1HLu0j9cgr9H2NYq/KN/8xs+UB3W8WeZWP/3RLbxu9e2Ne1+vRwe0V7Y3Pm3aNOlNrVu3lhZUieF5blaZdRmP9PC4cMfBRNvFflPsdfbv37+l+CMCZnlJ0k9bVctuOeP/EG45kxZ5ZSh31vof2cTQoUOPO+441ZpHZ0z3kh3j71jN7dL85Gq6qe6WgfaW3c4qXVqzhu/RxmOgDiV01t39h1GtmnlisodF8d+yvUQ7ltuhESnezyUMpyd4aaW9Rxcjf7KeDLatWrWSzFm7dq2McpIJQT0Hs3JrzUrt/tVXX6nf/FTkmY+5KWUeeozY1hY8zjOlzJ6/GbaDWi9Buxytsv1sPZqyrnpEw3EcsDab2YVY2U9b8Tgrjwd0j6xLi8dYmvI5tttzVO+t/iNpuNyXdJVNj075VNnt1YdbuVugUt4Xx1QMJJL+lcpkgJBkatSokeRT586dJVLm5cmLsUcffVRiLX1JbuTgwYNV/XfeeUcCJLG76KKL5I66ReqRRx6RZuVJgxQeOdR//eQnP5E8tpZYHThwoF+/fnK4ihUrtmjR4q9//au5yRp6R3JTf/vb38q+kjQygF5zzTXz589Xm1I263iDtVW1LJffrl07uXwZVkaMGGG24xYWwykU1oN6nIDk5V133SWpXK1atV/84heSajlHPvJjWrx4sYS0Zs2acmlyYtIDrVvFhg0bZNST7irnJnWOP/74P/zhD9stX99hPz23a5FX6XfffXfdunWrVq16+eWXv/LKK9bLfPbZZ9u0aVOpUqXq1aufe+65ZpA9LtCwHT3l5fikHdREtnvcC+uqWo5dthtH2tSo76RzS1G3u284XY7btWuXprgdUavs57r8cDwHg7R3zzptVS3HLu3jNchrtH2NI5/NnHvkt7a8D+p2s+zNGi5NeYTXsb5hazzl9bp1QMfKWuPSSZs2bZpj+zEut3PTZNZl3NLD48LdBhPrLo43JWV5CdPPuqqW3XLG8H0Ij5zxr0uXLj/96U+1whUrVqgzNDw7Y7qX7Bh/x2oel5YyV400U90jA7WWPc4qLfYT9jnaeAzUoYTOurv/MKpVs1mT/WQU/y3bS7RjuR0akZLyuYRhe4KXVtob7l2M/Ml6kki33npr/fr15dlIs2bNBg0apL5M3COFfGaLlUdrJrW7ZurUqeYmP3noNmJbW/A4Tz8ye/7mcQna5WiV7Wfr0ZS26hYNw2kcsDab2YVY2U/b5HZWHg/ohnvWpcV7LPV+ju32HNV7q/9IKvb7kq6y6dEpnyq7vfpwK/cIlPd9cUvFkkfSv1I/QNk4+eSThw4dqpfGgUemlo0hQ4ZIZ9NLEWFke8bI9vgi7TNG2vsX+s0CkEwM1Eis+D7BAwC76Dyge7+u8d6KJIj9ZMDmzZufeeaZqlWrmj/HHC9l3wkXLVr0yiuvLF++fNWqVX/961+rV6/OM7C4INvTRbZnAdI+XaR9xsr+ZgFIJgZqIO5P8ADAiPADuvfrGu+tSILYTwZIBufn55vf2RQ7Zd8JZbQ6++yzZZCqUKHCiSeeKENVID9ojjJAtqeLbM8CpH26SPuMlf3NApBMDNRA3J/gAYAR4Qd079c13luRBLGfDEiCjz/+WC8CshcJDyBYjCpAdNAfI4ibgnghYxE6kjAsRD5YxNNREsLCZEAMFBQU6EVA9iLhAQSLUQWIDvpjBHFTEC9kLEJHEoaFyAeLeDpKQliYDIiBJCQiYCLhAQSLUQWIDvpjBHFTEC9kLEJHEoaFyAeLeDpKQliYDIiBJCQiYCLhAQSLUQWIDvpjBHFTEC9kLEJHEoaFyAeLeDpKQliYDIiBJCQiYCLhAQSLUQWIDvpjBHFTEC9kLEJHEoaFyAeLeDpKQliYDIiBJPx4BWAi4QEEi1EFiA76YwRxUxAvZCxCRxKGhcgHi3g6SkJYmAwAAAAAAAAAACDLMRkAAAAAAAAAAECWYzIAAAAAAAAAAIAsx2QAAAAAAAAAAABZjsmAGEjCj1cAJhIeQLAYVYDooD9GEDcF8ULGInQkYViIfLCIp6MkhIXJgBgoKCjQi4DsRcIDCBajChAd9McI4qYgXshYhI4kDAuRDxbxdJSEsDAZEANJSETARMIDCBajChAd9McI4qYgXshYhI4kDAuRDxbxdJSEsDAZEANJSETARMIDCBajChAd9McI4qYgXshYhI4kDAuRDxbxdJSEsDAZEANJSETARMIDCBajChAd9McI4qYgXshYhI4kDAuRDxbxdJSEsDAZEANJ+PEKwETCAwgWowoQHfTHCOKmIF7IWISOJAwLkQ8W8XSUhLAwGQAAAAAAAAAAQJZjMgAAAAAAAAAAgCzHZAAAAAAAAAAAAFmOyQAAAACgtEyfPn0A3H3wwQd6yAAAAACUDiYDYiAJP14BmEh4AMFiVEG4BgwYkAN3Dz/8sB4ylC0GScQLGYvQkYRhIfLBIp6OkhAWJgNioKCgQC8CshcJDyBYjCoIl5oMuPDCC/vgaBdccAGTAVHAIIl4IWMROpIwLEQ+WMTTURLCwmRADCQhEQETCQ8gWIwqCJeaDOjTp88POJrEhMmAKGCQRLyQsQgdSRgWIh8s4ukoCWFhMiAGkpCIgImEBxAsRhWEi8kAN0wGRASDJOKFjEXoSMKwEPlgEU9HSQgLkwExkIREBEwkPIBgMaogXEwGuGEyICIYJBEvZCxCRxKGhcgHi3g6SkJYmAyIgST8eAVgIuEBBItRBeFiMsANkwERwSCJeCFjETqSMCxEPljE01ESwsJkAAAAAFBamAxww2QAAAAAUMaYDAAAAABKS+lNBuQUGzVqlL4hU4E36I3JAAAAAKCMMRkAAAAAlBa3yQD1zrv4+9//rko2bNhQp04d/+/I31bsvffe0zd4Mo9rMs9Nrfo5dCCYDAAAAADKGJMBAAAAQGlJORnQrl07VfLnP//ZLCy9d+RV+506dVJzCWLcuHHWTaV3aA2TAQAAAEAZYzIgBpLw4xWAiYQHECxGFYTLezJAfRRg+vTpUtK6dWv7JwPefvvttm3b1qpVq1y5cjVr1rzgggvefPNNawuqplr+wx/+cP7551eqVKlFixaqTTutfY9Nzz333BlnnFG5mCzIqip/8sknpZqUyPKKFStyiy1dulRWzzrrLNk0dOjQI016YTIgIhgkES9kLEJHEoaFyAeLeDpKQljUc34AAAAApcVtMqB3797yb/fu3SdPniwLd955pyo335F/+eWXL7jggl//+te33HJLu3btZFPVqlXVO+/Wmmq5YsWK0lSjRo1k+ayzzrIezqRqpvxkgPqYQrly5bp27Xr11VfLgqxKoWyaO3euLJcvX37NmjWvvPKK2uvFF19cu3ZthQoVZHnOnDnWI7pRkwEAAAAASok+FWAYOfqzcgAAAAABUW95u00GjBo1qmPHjpUrV77wwgvLly//+eefm+VmzYkTJ/br1+/222//7W9/q7a+9NJL1hbM5d/97neyPHToUFmuVKmS2YKVqmnl+JsBxx9/vCz37NlTbZIFWZVCtdq0aVNZHTdu3G233ZZfTM5t/PjxUti4cWNVJyW3yAAAAAAIhD4VwGQAAAAAUHrc3vI233n/xz/+oZa7dOliLVfVbr75ZlVi9cwzz2g11fKIESNkWUrU6v8/mIV1L49N6v/4P/XUU2qTLOQUf/JArd544405xd9KdOqpp3YpdvLJJ8tqTvGnHMwGvblFBgAAAEAg9KkAviYIAAAAKG32t7xV+ahRo7777rtmzZrJ8uTJk63lqlqVKlVk9fe///3GjRu//vpr61a35UAmA9QnA26++Wa1Sc1JmJ8MeP7552W1RYsW5cqVGzp06OOPPy6rJ5xwgvz77LPPmg1642uCAAAAgFKlTwXwA8KxkIQfrwBMJDyAYDGqIFzePyCs3nmfPXv2pEmT7OWiefPmOcXvwvfs2bNFixbWrW7LgUwGqI8C5Obmqv/4LwuyOmzYMFVz6dKlqkTMnDlTeplalsIlS5ZY2/TADwhHBIMk4oWMRehIwrAQ+WART0dJCAuTAQAAAEBp8TMZ4FH+7rvvnnLKKRUqVGjevLn5hUL2CQDrciCTAWLMmDFt27atXEwWZNVauU2bNlK5Tp063xfLz8+X1datW1vreGMyAAAAAChjTAYAAAAApcVtMgBMBgAAAABljMkAAAAAoLQwGeCGyQAAAACgjDEZAAAAAJQWJgPcMBkAAAAAlDEmA2IgCT9eAZhIeADBYlRBuJgMcMNkQEQwSCJeyFiEjiQMC5EPFvF0lISwMBkQAwUFBXoRkL1IeADBYlRBuJgMcMNkQEQwSCJeyFiEjiQMC5EPFvF0lISwMBkQA0lIRMBEwgMIFqMKwqUmAy644II+OJrEhMmAKGCQRLyQsQgdSRgWIh8s4ukoCWFhMiAGkpCIgImEBxAsRhWES00GwA2TAaFjkES8kLEIHUkYFiIfLOLpKAlhYTIgBpKQiICJhAcQLEYVhOuDDz54GEdccsklWonERw8ZyhaDJOKFjEXoSMKwEPlgEU9HSQgLkwExkIQfrwBMJDyAYDGqANFBf4wgbgrihYxF6EjCsBD5YBFPR0kIC5MBAAAAAAAAAABkOSYDAAAAAAAAAADIckwGAAAAAAAAAACQ5ZgMAAAAAAAAAAAgyzEZEANJ+PEKwETCAwgWowoQHfTHCOKmIF7IWISOJAwLkQ8W8XSUhLAwGRADBQUFehGQvUh4AMFiVAGig/4YQdwUxAsZi9CRhGEh8sEino6SEBYmA2IgCYkImEh4AMFiVAGig/4YQdwUxAsZi9CRhGEh8sEino6SEBYmA2IgCYkImEh4AMFiVAGig/4YQdwUxAsZi9CRhGEh8sEino6SEBYmA2IgCYkImEh4AMFiVAGig/4YQdwUxAsZi9CRhGEh8sEino6SEBYmA2IgCT9eAZhIeADBYlQBooP+GEHcFMQLGYvQkYRhIfLBIp6OkhAWJgMAAAAAAAAAAMhyTAYAAAAAAAAAAJDlmAwAAAAAAAAAACDLMRkAAAAAAAAAAECWYzIgBiLy4xVz587NycnZs2ePviE8CxYsqF69+t69e/UNwQnwEEOGDMnLy5PWpk+frm+DRUQSHkDWYFQBooP+GEHcFMQLGYvQkYRhIfLBIp6OkhAWJgNioKCgQC86Yt68eVdeeWXdunWrVavWrFmzXr16bdmyRa8UkJSTASkrlLHMziezvVIqLCzMzc2dM2eOvgE2HgkPABlgVAGig/4YQdwUxAsZi9CRhGEh8sEino6SEBYmA2LALRGnT59eo0aNESNGbN++XVZXr17dp0+fqVOn6vUCkvJd8pQVvO3bt08vKhmP8/E4lsdeJTF//vy0mvU4w6znlvAAkBlGFSA66I8RxE1BvJCxCB1JGBYiHyzi6SgJYWEyIAbcEvHUU08dMmSIXlps06ZNV111Vc2aNevWrdurVy/1zrJ6m3vcuHGtW7euVq3aWWed9fnnn0+aNEnaqVq16hlnnPHll1+a1Z5//vlmzZrVqFHjpptuUm9hW98l37FjR8+ePfPy8mrXri0Vdu3atW3bNmlEKlQv9swzzzhWO+osj7T58ssvn3TSSZUqVTpw4IDbLmvXrr3ooovktOVsR44cKXtJZespDRs2rEmTJnIOjRs3lojZz8d+rDFjxrRs2VKuUY4l4dq4caPbXuoQHlEdP368NCX7nnnmmRJVyyX+18SJE81mGzRo4N2UeYazZ8/2c7+yj1vCA0BmGFWA6KA/RhA3BfFCxiJ0JGFYiHywiKejJISFyYAYcEzE9evX5+TkrFixQt9QrHPnzldddVVRUVFhYWGbNm369OljHHmv+frrr//hhx/27t170003NWvW7Fe/+pW5esEFF5jVrrnmGtl948aNsvu9995rlqu3xbt169a1a9ft27fv2LFDjtW7d2+tguJYzUrtct1110md3bt3e+zSsWPHa6+9dteuXZs2bWrfvr02GbBq1SpZeO+996Sm7PvZZ5+ZjZvnYz/WlClTli9fbhS/NS/H6tKli9teatUjqt27d9+6dauEsUePHnJ6al8rrVmPpswz9Hm/so9jwgNAxhhVgOigP0YQNwXxQsYidCRhWIh8sIinoySEhcmAGHD88YpFixbl5OTs3LlT32AYGzdulE2LFy9Wq2PHjm3YsKFx5L3m1atXq/KZM2fK6vr1683VChUqmNXcdt+zZ8+WLVtyc3OXLFmiKrz11lv5+fnWCqrcrZqV2mXZsmVq1W0XdUVm+bhx43KOngzYsGFD+fLlR40atW3bNlXHsJ2PdizNtGnTqlatarjsJas+ozpjxgwVRo21We+mzDP0eb+yj2PCA0DGGFWA6KA/RhA3BfFCxiJ0JGFYiHywiKejJISFyYC4WrduXU5OzsqVK/UNhrFw4ULZVFRUpFY/+eST3Nxcw+Vt7gMHDmirasFjdzUPUfuIWrVqValS5dChQ1r7btXUVsXnLtoVqe/P0b4maMKECZ06dapRo8Z55503ffp0e+PaqtqlXbt2derUkQPJjrL14MGDbntlFlWTtVpaTbm17HYgAAAAAAAAALBjMiDGTj311EcffVQvtf3H8zfeeEP7r/2q3O3NZbVg3V19zb25e2FhYY7lv6ib5s2bZ23frZqVdkpuu2zYsCHH8smA8ePHW0/V+v7+3r17BwwYULduXcN2Plpl9WGC119/XXaR1ffff1+16bZXZlE1Waul1ZRby24HAgAAAAAAAAA7JgNibPr06TVr1hw1atSOHTuM4p/Y7du379tvvy3LF110Ubdu3dQ37Ldt2/b+++83fL+5rBauu+66oqIitfvdd9+t7X7FFVd07979+++/N4rf2n733XdlQX1x/1dffaUadKtmZX83322XDh063HDDDbt3796yZct5551nPVXZfeXKlVJz3759hw4devLJJ+vXr2/Yzkc71ooVK2R16tSpsrx69eqOHTuqNj32yiCqJq2a/6bcWnY7EAAAAAAAAADYMRkQb/Pmzbviiivq1q1bvXr1Zs2a9e7d+7vvvjOK30a/8sora9asmZeXd/vtt6v//O7zzWW18Pzzz0uD0uyNN964a9cubfft27ffcsst+fn5NWrUaNGixbBhw1Qjciz1DT+jR4/2qGayTwa47bJ69epOnTpVq1bt1FNPHT58eG5u7uHDh83dlyxZ0q5dO7neqlWrnnHGGeprgoyjz8d+rKFDh9arV08OdM4554wZM8aMhtteGUTVpFXz35Rby24HAgAAAAoLC1999dWtW7fqGwAAAJBgTAbEQBn/eIX9TfOoef3119X36iArlXHCA8h6jCpAdNAfy9KsWbNatWp1xx13zJkzR99mwU1BvJCxCB1JGBYiHyzi6SgJYWEyIAYKCgr0otIUzcmAxYsXq6/uWbVq1WmnndarVy+9BrJFGSc8gKzHqAJEB/2xjD3zzDPHHHNMkyZNOnTo8Nxzzzl+UICbgnghYxE6kjAsRD5YxNNREsLCZEAMlHEiRnMyYNasWccff3y1atXq1KnTs2fPoqIivQayRRknPICsx6gCRAf9sew9+uijDRs2bN++/ZVXXtmiRQv7BwW4KYgXMhahIwnDQuSDRTwdJSEsTAbEQBISETCR8ACCxagCRAf9MRRqPkCccsopv/zlL8877zzrBwW4KYgXMhahIwnDQuSDRTwdJSEsTAbEgHruDgAAAAAl1759e/m3RYsW06ZNS8KLXmQTMhahIwnDQuSDRTwdJSEsTAbEQBJ+vAIwkfAAgsWoAkQH/TEUH330UbNmzcyZgGOPPfa0004bPny4+mQANwXxQsYidCRhWIh8sIinoySEhckAAAAAAMhO5kxAo0aNmjZtes0112i/GQAAAIDkYDIAAAAAALLQRx991LRp00aNGlk/CgAAAIDEYjIAAAAAALLNrFmzTjzxRD4KAAAAABOTAQAAAACQVQoLC1999VU+CgAAAAArJgNiIAk/XgGYSHgAwWJUAaKD/hhB3BTECxmL0JGEYSHywSKejpIQFiYDYqCgoEAvArIXCQ8gWIwqQHTQHyOIm4J4IWMROpIwLEQ+WMTTURLCwmRADCQhEQETCQ8gWIwqQHTQHyOIm4J4IWMROpIwLEQ+WMTTURLCwmRADCQhEQETCQ8gWIwqQHTQHyOIm4J4IWMROpIwLEQ+WMTTURLCwmRADCQhEQETCQ8gWIwqQHTQHyOIm4J4IWMROpIwLEQ+WMTTURLCwmRADCThxysAEwkPIFiMKkB00B8jiJuCeCFjETqSMCxEPljE01ESwsJkAAAAAAAAAAAAWY7JAAAAAAAAAAAAshyTAQAAAAAAAAAAZDkmAwAAAAAA+J8FCxZUr1597969anXIkCF5eXlS8txzz1nLM6M1npm5c+fm5OTs2bMnZWtmTX0DAABIJCYDYiAJP14BmEh4AMFiVAGig/4YQR43ZdGiRddcc039+vWrV6+en59/2WWXTZ48Wa9U+sJ9O7uwsDA3N3fOnDn6Bt9K4/z9t+m/Zlx4ZCxQNkjCsBD5YBFPR0kIC5MBMVBQUKAXAdmLhAcQLEYVIDrojxHkdlM+/PDDmjVrPvXUU99//72s7tixY/z48bfeeqteLyD79u3Ti44o47eztTOZP39+CY9eGufvv03/NePCLWOBMkMShoXIB4t4OkpCWJgMiIEkJCJgIuEBBItRBYgO+mMEud2U0047bciQIXrpETt27OjZs2deXl7t2rVvuummXbt2GUfedx4/fnzLli2rVq165plnfv755ynrv/zyyyeddFKlSpUOHDgwZswY2bdGjRpS7aqrrtq4ceO2bdukKalWvdgzzzzj1prVqFGjTj/9dHN15cqV5cqVW7VqleGyr3Yms2fPVm+gT5w40Tx6gwYNrG+s79y587bbblMfm2jduvXChQul0M/5WxvZtGmTVKtZs2bdunV79eql5iE8wmgyG9EW7HtZDyclxx133J///GettXhxy1igzJCEYSHywSKejpIQFiYDYiAJiQiYSHgAwWJUAaKD/hhBjjdl3bp1OTk5K1as0Dcc0a1bt65du27fvn3Hjh2dO3fu3bu3ceR95+7du2/dunXv3r09evRo3759yvrXXXedlO/evVtKpkyZsnz5cqP4XXKp1qVLF7Oa9f+2O7Zm9cMPP1SuXFm9QS/69+9/0UUXqWXHfbUzsR7Rbfmqq6768Y9/vHbtWlletmzZmjVrDH/nb12VOtJOUVFRYWFhmzZt+vTpY1ZwDKPJbTLAvpdZ4Z133mnYsOHEiRO1pmLHMWOBskQShoXIB4t4OkpCWJgMiIEkJCJgIuEBBItRBYgO+mMEOd6URYsW5eTk7Ny5U61OmDChdu3atWrVqly58sGDB7ds2ZKbm7tkyRK19a233srPzzeOvO+8evVqVT5jxowKFSrIgnf9ZcuWqXLNtGnTqlatatjeTHdrTXPttdfeeeedsnD48OFmzZq9+uqrhvu+2pm4TQCYy5s3b5YFiZKq78jt/M3VjRs3ysLixYtV+dixYxs2bGhWsIfRym0ywL6XKn/66acbN248e/bso1qJJ8eMBcoSSRgWIh8s4ukoCWFhMiAGkvDjFYCJhAcQLEYVIDrojxHkeFMcPxmg3lY+cOCAmiqofUStWrWqVKly6NAhx3e9/dc3imcd2rVrV6dOHalTo0YN2Xrw4EGtmltrZiPK1KlT8/Pz9+/f/95770k19ckDt30dz9xjMkC1U1RUZDngf/k5f3N14cKF1kY++eST3NxcawVrfQmjWrUW2icD7HuphQYNGtxzzz3WFuLLMWOBskQShoXIB4t4OkpCWJgMAAAAAAAc5ZRTTtF+M8B8f7mwsFAW1q9fb91qVrC/H+2z/oYNG8qXL//666/v3btXVt9//321+7x586zV3FrTHDx4sEmTJhMmTLjxxhvN3z1229fxzD0mA9QnAz777DNrIz7P32xE+2TAG2+8Yf1kgD2MatVa6H8yQI5y/PHHP/jgg9ZGAABAAjEZAAAAAAA4yrRp02rUqPHUU099//33srp3797Ro0eb70pfccUV3bt3V5s2btz47rvvGp7vYvupv2LFClmdOnWqLK9evbpjx45q91WrVsnCV199paq5tWbXt29faaRatWpz5swxCx33dTxzj8kAWb766qs7deqk5hXUbwb4PH9rIxdddFG3bt127dq1adOmtm3b3n///W4nU8LJAClft25dq1at7rzzzsOHD1ubAgAAicJkAAAAAABAt2DBgm7dutWrV69GjRry7+WXXz5p0iS1afv27bfcckt+fr5satGixbBhwwzPd7H91BdDhw5VhzvnnHPGjBlj7n777berL/YZPXq0W2t2S5culRZOOeUUa6Hjvo5nbp8AsC7v2LHDbKd169bq9wP8nL+1kY0bN1555ZU1a9bMy8uTOuojBY4nU/LJACncvHnzGWeccfPNN9u/VSl0hYWFr7766tatW/UNAAAgUEwGAAAAAACAMM2aNatVq1Z33HGH9ZMcAAAgWEwGxEASfrwCMJHwAILFqAJEB/0xgrgpiI6RI0cee+yxTZo06dChw3PPPef4QQEyFqEjCcNC5INFPB0lISxMBsRAQUGBXgRkLxIeQLAYVYDooD9GEDcFkXL33Xc3atTo0ksv7d69e4sWLewfFCBjETqSMCxEPljE01ESwsJkQAwkIREBEwkPIFiMKkB00B8jiJuCqLn77rsbFvvJT35yyy23XHjhhdYPCpCxCB1JGBYiHyzi6SgJYWEyIAaSkIiAiYQHECxGFSA66I8RpN51BSKrefPml112mSy0aNFi2rRpDCMIHUkYFiIfLOLpKAlhYTIgBpKQiICJhAcQLEYVIDrojxHETUHUzJo1q3nz5uZkQOPGjVu2bDlw4EA+GYCIIAnDQuSDRTwdJSEsTAbEQBJ+vAIwkfAAgsWoAkQH/TGCuCmIFOtMQJMmTX72s5/NmDHDWoGMRehIwrAQ+WART0dJCAuTAQAAAAAAIGSzZs065phjGjZsaP0oAAAACBCTAQAAAAAAIEyzZs068cQT7R8FAAAAAWIyAAAAAAAAhKawsPDVV1/lowAAAJQ2JgMAAAAAAAAAAMhyTAbEQBJ+vAIwkfAAgsWoAkQH/TGCuCmIFzIWoSMJw0Lkg0U8HSUhLEwGxEBBQYFeBGQvEh5AsBhVgOigP0YQNwXxQsYidCRhWIh8sIinoySEhcmAGEhCIgImEh5AsBhVgOigP0YQNwXxQsYidCRhWIh8sIinoySEhcmAGEhCIgImEh5AsBhVgOigP0YQNwXxQsYidCRhWIh8sIinoySEhcmAGEhCIgImEh5AsBhVgOigP0YQNwXxQsYidCRhWIh8sIinoySEhcmAGEjCj1cAJhIeQLAYVYDooD9GEDcF8ULGInQkYViIfLCIp6MkhIXJAAAAAAAAAAAAshyTAQAAAAAAAAAAZDkmAwAAAAAAAI4yd+7cnJycAwcO6BtKYMGCBdWrV9+7d69aHTJkSF5enpQ899xz1vLMaI1HinluKqp79uzRawAAygSTAQAAAAAAIMZmzZp1/vnnV61atVatWm3atPnXv/6l10hfaUwGWBUWFubm5s6ZM0ff4Fsc31iP4zkDQDZhMiAGkvDjFYCJhAcQLEYVIDrojxHETUG8OGZsUVHRj370o6FDh+7du/fQoUNz58798MMP9UrpC3wyYN++fdbV+fPnl/Bt8Ti+sR7Hc9Y4JiHKAJEPFvF0lISwMBkQAwUFBXoRkL1IeADBYlQBooP+GEHcFMSLY8Z+9tlnOTk533//vb7BMHbs2NGzZ8+8vLzatWvfdNNNu3btMo68Hz1+/PiWLVtWrVr1zDPP/Pzzz1X99evXX3zxxdWqVTv11FNHjhxpnwwYNWrU6aefbq6uXLmyXLlyq1atMjyP9fLLL5900kmVKlWaPXu2eit84sSJcmhZrl69eoMGDaxvke/cufO2226rX7++bGrduvXChQulcMyYMXK2NWrUkMavuuqqjRs3btu2zWxBPPPMM9ZGNm3aJNVq1qxZt27dXr16qXkIjwu38riQcePGySlJfM466yzZd9KkSRIoaeqMM8748ssv1e72UzV3l3PLgskAxyREGSDywSKejpIQFiYDYiAJiQiYSHgAwWJUAaKD/hhB3BTEi2PG7tq1q169er/4xS8mTZq0YcMG66Zu3bp17dp1+/btO3bs6Ny5c+/evY0jb0x3795969ate/fu7dGjR/v27VX9iy666KqrrioqKiosLDznnHPskwE//PBD5cqV1Rv0on///rKLWvY41nXXXSflu3fvtr4V7rYsJ/DjH/947dq1srxs2bI1a9bIwpQpU5YvX24Uv8svjXfp0kXbS1uVOuaFtGnTpk+fPmYFxwu38riQ66+/XiIg+950003NmjX71a9+Za5ecMEFanfvU2UyABkj8sEino6SEBYmA2IgCYkImEh4AMFiVAGig/4YQdwUxItbxi5ZsuQ3v/nNcccdl5OTc+6553711VdSuGXLltzcXNmk6rz11lv5+fnGkTemV69ercpnzJhRoUIFWdi4caOUL168WJX/85//tE8GiGuvvfbOO++UhcOHDzdr1uzVV181Uh1r2bJlqtxtAsBc3rx5sywsWrRI1Xc0bdq0qlWrGu6TAdqFjB07tmHDhmYF+4VbeV+Iue/MmTNldf369eaqvSnD6VSZDEDGiHywiKejJISFyYAYSEIiAiYSHkCwGFWA6KA/RhA3BfGSMmPXrVvXtWvX0047TZYXLVqUk5NT+4hatWpVqVJF/aiA/T30AwcOLFy4UBaKiopU+SeffKLKzcaVqVOn5ufn79+//7333pNmd+/ebaR5LI/JANWOeQ6mCRMmtGvXrk6dOtJyjRo1pM7BgwfdGrdfSG5urrWCtb52gWldiLmvddX7VJkMQMaIfLCIp6MkhIXJgBhIwo9XACYSHkCwGFWA6KA/RhA3BfHiJ2NnzJhRrlw5WSgsLMyx/O91k9v72j4/GXDw4MEmTZpMmDDhxhtvvPXWW1VhWsfymAxQnwz47LPPrI1s2LChfPnyr7/++t69e2X1/fffVyc2b948x8a1C3njjTesnwywX7haVdK6EPtkgNupZtNkgJ8kRGkg8sEino6SEBYmAwAAAAAAQFx9++23BQUF6kv2t23b1qNHj3PPPVdtuuKKK7p3765+W3jjxo3vvvuu4fm+dqdOnbp167Zr165Nmza1a9fO/l650rdv344dO1arVm3OnDlmof9jeUwGyPLVV18tp6Hejle/GbBixQrZOnXqVClZvXq1HFqd2KpVq2RBfSeS1shFF11kXkjbtm3vv/9+t5OxX6D/C7FPBridajZNBgBArDEZAOD/sXf/0VXUd+L/E0Ekv4iEEEiChqggCQEBSwN6kJxgT9s9y8+otCiyYKmUX7vaUj7Urh494qE1m7UI5Cx0ty4nFlTYWLBQyq/vQYtJBRJjoQvhR0PEXJJifpBAgIT7fS/vMh3nzh3CzYR5z53n4w/P3Pd75j0zr3nPuz2vFzcXAAAAANyqtrb2scceS05Ojo6O7t279+TJk0+ePCm7Ghsb586dm5iYGBsbO3jw4IKCAr9lXru6ujo3N1eMk5WVtXLlStNcuXDs2DHRNXToUH1jx88VWADQbzc1NWnjZGZmyt8PWLFiRd++fUXL6NGjCwsLtQubP3++/Hs+a9as0Q9SU1Mj4hAXF5eQkCD2kf9O3/RiAm+w4zcSWAzwB7lUigEAoAiKAQAAAAAAAPA0n89XVFRUX19v7ACAMEIxAAAAAAAAAF63f//+++6777HHHispKTH2AUBYoBjgAl748QpAw4QHYC9WFUAdvI8K4qHAXZix6GofffTRgAEDkpOTs7KyCgoKAr8owCR0CpG3F/E05YWwUAxwgfz8fGMTEL6Y8ADsxaoCqIP3UUE8FLgLMxa3wEcffTRw4MD+/fsnJycPGDDA8EUBJqFTiLy9iKcpL4SFYoALeGEiAhomPAB7saoA6uB9VBAPBe7CjMWtodUDpLvuukv7ogCT0ClE3l7E05QXwkIxwAW8MBEBDRMegL1YVQB18D4qiIcCd9GSs8CtlJyc/NBDD4mNwYMHL1iwwDgvcUvwP1j2Ip6mvBAWigEu4IWJCGiY8ADsxaoCqIP3UUE8FLgLMxa3xquvvirLAMOGDXviiSfGjh37yCOPrF27lm8GOIjI24t4mvJCWCgGuIAXfrwC0DDhAdiLVQVQB++jgngocBdmLG4BWQkYO3bslClT5FcBSktLtV4moVOIvL2IpykvhIViAAAAAAAAAOBftWrVXXfdlZqaqn0VwLgHALgZxQAAAAAAAAB43f79+zMyMgxfBQCAcEIxAAAAAAAAAJ7m8/mKior4KgCA8EYxAAAAAAAAAACAMEcxwAW88OMVgIYJD8BerCqAOngfFcRDgbswY+E4JqFTiLy9iKcpL4SFYoAL5OfnG5uA8MWEB2AvVhVAHbyPCuKhwF2YsXAck9ApRN5exNOUF8JCMcAFvDARAQ0THoC9WFUAdfA+KoiHAndhxsJxTEKnEHl7EU9TXggLxQAX8MJEBDRMeAD2YlUB1MH7qCAeCtyFGQvHMQmdQuTtRTxNeSEsFANcwAsTEdAw4QHYi1UFUAfvo4J4KHAXZiwcxyR0CpG3F/E05YWwUAxwAS/8eAWgYcIDsBerCqAO3kcF8VDgLsxYOI5J6BQiby/iacoLYaEYAAAAAAAAAABAmKMYgFAcOnQoJiamtbXV2HELGa5h+fLlCQkJomXt2rWdvzYVbjAY7do++eSTiIiIixcvGvcAAAAAAAAAgK+iGBCeZJo45ppevXp94xvf+NOf/mTcKYz4fL7IyMjS0lJjR4e5MbHuxmsGAAAAAAAA4AiKAeFJnyZuaGiYPXv2sGHDjDu52aVLl/QfDx482Mm0uBsT6268ZgAAAAAAAACOoBjgAiH8eIUhTfzRRx9169ZN621qapo9e3ZCQkJ8fPysWbNaWlpk+/nz5+fNm5eUlBQTE5OZmVlWVhZsZ238VatWPfDAA9rIJ0+evO22206dOhXsQL2bPVaedP369YMGDerRo0dJSYm8huLi4qioKPlNiH79+unv3fSOCgsLhwwZEhsbKwafOnVqTU1NQ0ODNoKwevVq/SBnz54Vu8XFxfXp02fhwoWyDiF32LRpkxhKHDtq1KiKigrtXjQWN/Lee++JS4qOjn7wwQfFse+//35WVpYYauTIkdrXOAIvVTtcXFu4FgNCmPAAYIFVBVAH76OCeChwF2YsHMckdAqRtxfxNOWFsFAMcIH8/Hxj043o08Tnzp17+umnH3roIa03Ly9vypQpjY2NTU1NEyZMWLRokWyfOnXquHHjqqurxXZlZeXp06eD7ayN/+WXX95xxx0yyS68+OKLubm51mfR3Oyx8qTTp08X7RcuXNDfY7Bt0zvaunXr8ePH/dey/GLwiRMnGo4yfBT7iHGam5t9Pt/w4cOXLl2q7TBjxoz6+vrW1taZM2eOGTNGHqtncSPf+c53RATEsbNmzUpLS3vyySe1jw8//LA83PpSw7UYEMKEBwALrCqAOngfFcRDgbswY+E4JqFTiLy9iKcpL4SFYoALhDARZZo4Pj4+NjZWbKSlpZ05c0Z21dXVRUZGHj16VH7ctm1bYmKi2KitrRV7lpeXa4NY7KxPQz/xxBOLFy8WG1evXhUnKioqsjjQ4KaOlSetrKyU7cEKANq26R0Z7NmzJyoqyh+8GFBTUyM2jhw5Its3btzYv39/bYeqqirZvm/fvu7du8ttjfWNaMd++OGH4qP2gMTHwKH8ZpdKMQAAOoJVBVAH76OCeChwF2YsHMckdAqRtxfxNOWFsFAMcIEQJqKWJr569WpJSUmfPn1efPFF2VVeXh5xrU4g9erVq2fPnu3t7bK9ublZP06wnfVp6O3btycmJl6+fHnXrl1inwsXLlgcqB/8Zo8Nlq8Ptm16R8LmzZuzs7N79+4tRpbFkra2tmCDl5WV6Qf5+OOPIyMj9Tvo979y5Yr8KN3UjWjH6j9aXyrFAADoCFYVQB28jwriocBdmLFwHJPQKUTeXsTTlBfCQjHABUKYiIY08bp163r27PnFF1+IbZ/PF6H7d+ga+e/oP/30U31jsJ3147e1taWmpm7evPmpp5569tln5Q7BDjS4qWNNc+gWxQDTOxJB6Nat24YNG1pbW8XH3bt3y8z7gQMHTAc3fDPgnXfe0X8zIFhCX7qpGwksBgS7VIoBAHBTWFUAdfA+KoiHAndhxsJxTEKnEHl7EU9TXggLxQAXCOHHKwxp4itXrgwaNOj555+XHydNmjRjxoxz586J7Zqamp07d8r2adOm5eTkyOS19hf2TXc2jL9s2bLx48dHR0eXlpbKlmAHBur4saY5dItigN/sjk6cOCF6t2/fLlqqqqrEqWWG/dSpU2Lj8OHDgYPn5ubm5eW1tLScPXt2xIgRS5YsCXYxhmKA/2ZuJLAYEOxSw74YEMKEBwALrCqAOngfFcRDgbswY+E4JqFTiLy9iKcpL4SFYkB4CkwTv/322zExMXV1dWK7sbFx7ty5iYmJsbGxgwcPLigokPs0NTVp7ZmZmfKv7ZvubBj/2LFj4uPQoUP/drJrTA8M1PFjTXPogQUA/bbpHa1YsaJv376iZfTo0YWFhVoifv78+fLv+axZs0Y/SE1NzeTJk+Pi4hISEsQ+8t/pm15MYDGg4zcSWAzwB7nUsC8GAAAAAAAAALAdxYBwUF9fX1RU5PP5jB0AAAAAAAAAAFAMcLvi4uLHH388IyNj//79xj4AAAAAAAAAAK6hGOBKtbW1ixcvvueee5KTk8V/qQQAAAAAAAAAACxQDHAB/Y9XFBcXP/LII8nJyf379x87duzQoUOpBCDMeOHXWgDcSqwqgDp4HxXEQ4G7MGPhOCahU4i8vYinKS+EhWKAC+Tn52tfBeh/3be+9S0qAQhLYsIbmwCgE1hVAHXwPiqIhwJ3YcbCcUxCpxB5exFPU14IC8UAF1iwYEF6erpWBgAAAAAAAIAjjFkb3BJeyNLeSsTTlBfCQjHABcRErK+vX7t27de+9rVBgwYNGDBA/G/P3Xffff/99/PNAIQfL6y8AG4lVhVAHbyPCuKhwF2YsXAck9ApRN5exNOUF8JCMcAF9BOxtLT0e9/7Xlpa2n333TdgwADqAQg/Xlh5AdxKrCqAOngfFcRDgbswY+E4JqFTiLy9iKcpL4SFYoALBP54hfZFgeTk5LS0NOoBCCeBEx4AOoNVBVAH76OCeChwF2YsHMckdAqRtxfxNOWFsFAMcLfS0tJnn302IyODegAAAAAAAAAAIBiKAeGgvr6+qKjI5/MZOwAAAAAAAAAAoBgAAAAAAAAAAEDYoxgAAAAAAAAAAECYoxjgAl748QpAw4QHYC9WFUAdvI8K4qHAXZixcByT0ClE3l7E05QXwkIxwAXy8/ONTUD4YsIDsBerCqAO3kcF8VDgLsxYOI5J6BQiby/iacoLYaEY4AJemIiAhgkPwF6sKoA6eB8VxEOBuzBj4TgmoVOIvL2IpykvhIVigAt4YSICGiY8AHuxqgDq4H1UEA8F7sKMheOYhE4h8vYinqa8EBaKAS7ghYkIaJjwAOzFqgKog/dRQTwUuAszFo5jEjqFyNuLeJryQlgoBriAF368AtAw4QHYi1UFUAfvo4J4KHAXZiwcxyR0CpG3F/E05YWwUAwIQ5988klERMTFixcPHToUExPT2tpq3OMabTdjR1cyXNLy5csTEhJEy9q1ay0utYOs77eDOhg9v0MBBAAAAAAAAIAQUAxwtwMHDkyePLlPnz7R0dFpaWkLFy6sq6vrYJK6g7t1HZ/PFxkZWVpaauzosK64hY6P2fE9AQAAAAAAAMBZFANcbO/evbGxsb/4xS8aGxvFx6qqqqVLl27fvr2DSeoO7majS5cu6T8ePHiwkxfQFbfQ8TE7vicAAAAAAAAAOItigItlZWUtX77c2KpLUuuz1efPn583b15SUlJMTExmZmZZWZm+t6KiYuDAgW+88YbYLigoSE1NjYqKSklJCfzdjFWrVj3wwAPax5MnT952222nTp0S201NTbNnz05ISIiPj581a1ZLS4v/+sWsX79+0KBBPXr0KCkpkSctLi4WpxDb4nr69etnfamisbCwcMiQIbGxsWLwqVOn1tTUNDQ0aCMIq1ev1g9y9uxZsVtcXFyfPn0WLlwo6xByh02bNomhxLGjRo0SN67dixQYvWBHBQsgAAAAAAAAAKiGYoALmP54xZkzZyIiIk6cOGHsMEtni8apU6eOGzeuurpabFdWVp4+fVrr3bFjR//+/YuLi0XXqVOnROOuXbvEdmNj46effvrVsf1ffvnlHXfcIRP0wosvvpibmyu38/LypkyZIo5qamqaMGHCokWL/NcvZvr06aL9woUL+ksKth14qWJj69atx48f91/L8ovBJ06caDjK8FHsI8Zpbm72+XzDhw9funSptsOMGTPq6+tbW1tnzpw5ZswYeawmMHrBjjINIDrPdMIDQMhYVQB18D4qiIcCd2HGwnFMQqcQeXsRT1NeCAvFABcI/Of5Qnl5eURExPnz540dZuns2tpasSEOCdztzTffTElJKSkpkY1ffPFFt27dVq1a1dDQoN9Z74knnli8eLHYuHr1alpaWlFRkdiuq6uLjIw8evSo3Gfbtm2JiYn+62eprKyU7cEKANaXarBnz56oqCh/8GJATU2N2Dhy5Ihs37hxY//+/bUdqqqqZPu+ffu6d+8utzWB0Qt2lGkA0XmmEx4AQsaqAqiD91FBPBS4CzMWjmMSOoXI24t4mvJCWCgGuIDpRPz8888jIiJOnjxp7DBLZ8vKQXNzc+Bu/fr1e/755/XtmzdvzsnJiY2NHTt27N69e/Vd0vbt2xMTEy9fvrxr1674+PgLFy74rxcn4q/r1atXz54929vbg+Xrg22bXqr/2lVlZ2f37t1bjCyuTezT1tYWbPCysjL9IB9//HFkZKR+B/3+V65ckR/1jYHFgMCjggUQnWQ64QEgZKwqgDp4HxXEQ4G7MGPhOCahU4i8vYinKS+EhWKACwSbiFlZWa+99pqx1SydLf+5veFv/sjeI0eOpKenv/DCC/ouobW19aWXXurTp4+hXWhra0tNTd28efNTTz317LPPykafzydGO3PmzFf3Nc+/WxQDTC9Vfl9hw4YN4qrEx927d8t0/IEDB0wHN3wz4J133tF/MyAwrS8/6hs7XgwIFkCELNiEB4DQsKoA6uB9VBAPBe7CjIXjmIROIfL2Ip6mvBAWigEuEGwi7t27Ny4ubtWqVU1NTeJjdXX1smXLfve735lmsadNm5aTkyOT9YbfDPj8888zMjIWL1589erVkydP7ty589KlS+3t7a+//npSUpLhpJI40fjx46Ojo0tLS7XGSZMmzZgx49y5c2K7pqZGjOMPkn+3KAb4zS71xIkTonf79u2ipaqqSpxapuPlLxwcPnw4cPDc3Ny8vLyWlpazZ8+OGDFiyZIlwS6mk8UAQwD1QyE0wSY8AISGVQVQB++jgngocBdmLBzHJHQKkbcX8TTlhbBQDHABix+vOHDgwKRJk/r06RMTE5OWlrZo0aK//vWvplnspqamuXPnJiYmxsbGZmZmlpeX63tra2tHjhw5Z86cP//5z9nZ2XFxcVFRUaLF9M8ECceOHRPHDh06VN/Y2NionWLw4MEFBQX+IPn3wAKA9aWKxhUrVvTt21e0jB49urCwUEviz58/X/5hojVr1ugHqampmTx5sriRhIQEsY/8SoHpxXS+GODXBbC9vV0/GkJgMeEBIASsKoA6eB8VxEOBuzBj4TgmoVOIvL2IpykvhIViAAAAAAAAADzN5/MVFRXV19cbOwAgjFAMAAAAAAAAgNft379/0KBBzz77rP5PIgNAOKEYAAAAAAAAAPh37NiRkpKSnJz89a9/fe3atXxRAECYoRgAAAAAAAAA/J8dO3YMGDCgf//+Q4YMGThwIF8UABBOKAa4gBd+vALQMOEB2ItVBVAH76OCeChwF2Ysbg2tHiDcfffd999/v/ZFASahU4i8vYinKS+EhWKAC8j/+QEAAAAAAMCtl5aWJv47ePDgBQsWGLM2uCXy8/ONTegE4mnKC2GhGOACXpiIgIYJD8BerCqAOngfFcRDgbswY3Fr/PrXv05JSZFlgAcffPCBBx4YN26c/GYAk9ApRN5exNOUF8JCMcAFvDARAQ0THoC9WFUAdfA+KoiHAndhxuIWkJWAtLS0hx566N57712wYIH+NwOYhE4h8vYinqa8EBaKAS7ghYkIaJjwAOzFqgKog/dRQTwUuAszFl3t17/+dWpqakpKivZVAMMOTEKnEHl7EU9TXggLxQAX8MKPVwAaJjwAe7GqAOrgfVQQDwXuwoxFl9q/f//9999v+CqAAZPQKUTeXsTTlBfCQjEAAAAAAAAAnubz+YqKigK/CgAA4YRiAAAAAAAAAAAAYY5iAAAAAAAAAAAAYY5iAAAAAAAAAAAAYY5igAt44ccrAA0THoC9WFUAdfA+KoiHAndhxsJxTEKnEHl7EU9TXggLxQAXyM/PNzYB4YsJD8BerCqAOngfFcRDgbswY+E4JqFTiLy9iKcpL4SFYoALeGEiAhomPAB7saoA6uB9VBAPBe7CjIXjmIROIfL2Ip6mvBAWigEu4IWJCGiY8ADsxaoCqIP3UUE8FLgLMxaOYxI6hcjbi3ia8kJYKAa4gBcmIqBhwgOwF6sKoA7eRwXxUOAuzFg4jknoFCJvL+JpygthoRjgAl748QpAw4QHYC9WFUAdvI8K4qHAXVSYsYcOHYqJiWltbZUfly9fnpCQIFrWrl2rbw+NYXAoSIVJ6E1E3l7E05QXwkIxAAAAAAAAeMKkSZNmzpxpaMzJyVmwYIGhsSN8Pl9kZGRpaamxo8M++eSTiIiIixcvGjtcLlzvCwDcjmIAAAAAAADwhN/+9rdRUVH19fVay7FjxyIjIysqKnR7BXXp0iX9x4MHD3Yy5d3VSXPDBd8yXX1fAIDQUAwAAAAAAACe0N7efvfdd69cuVJr+dGPfjRmzBi53dTUNHv27ISEhPj4+FmzZrW0tPiv57XXr18/aNCgHj16lJSUyDR3cXFxVFSU2I6JienXr58+/X3+/Pl58+YlJSWJrszMzLKyMtFYWFg4ZMiQ2NhYMfjUqVNramoaGhq0EYTVq1frBzl79qzYLS4urk+fPgsXLpRpfbnDpk2bxFDi2FGjRgWWMQwXfOXKFdP7Es6cOfPoo49GR0dnZWWJmIijxM6GPL78KNr9QeIjFBQUpKamiutJSUnJz88PvC+5GwDAcRQDAAAAAACAV7zyyivDhg2T25cuXerbt++vfvUr+TEvL2/KlCmNjY1NTU0TJkxYtGiR/3o2fPr06aL9woUL+lx5sO2pU6eOGzeuurpabFdWVp4+fVpsbN269fjx4/5rWX4x+MSJEw1HGT6KfcQ4zc3NPp9v+PDhS5cu1XaYMWNGfX19a2vrzJkztUqGxnDB/iD3JeTm5mqnGD169A2LAabjnDp1Suywa9cusS26Pv30U+0ovhkAAKqhGOACXvjxCkDDhAdgL1YVQB28jwriocBdbJmxZ86c6d69e0lJidjeuHHjnXfeKTPmdXV1kZGRR48elbtt27YtMTHRfz2vXVlZKduDFQC07draWrFRXl4u9ze1Z8+eqKgof0DSXPtYU1MjNo4cOSLbxXX2799f26Gqqkq279u3T9yL3NYYLjjYfRlO8e6771oXA4KN88UXX3Tr1m3VqlUNDQ2ySzsqLIsBtkxChIDI24t4mvJCWCgGuEB+fr6xCQhfTHgA9mJVAdTB+6ggHgrcxa4ZO2XKlDlz5viv/dP4hQsXysby8vKIiIj463r16tWzZ8/29nbT5LhFMUCO09zc/LeTXbd58+bs7OzevXuLkWNjY8U+bW1twQYvKyvTD/Lxxx9HRkbqd9DvL//ZvsawT7D7CjyFHCrYKYKN4792azk5OeKmxo4du3fv3sBrCCd2TULcLCJvL+JpygthoRjgAl6YiICGCQ/AXqwqgDp4HxXEQ4G72DVjt23bFhMTc+jQocjIyM8++0w2+ny+iIiIM2fOfHVfY17btACg35bfDJB/LUcj//n8hg0bWltbxcfdu3fLDPuBAwdMBzf8s/133nlH/82AwEy9/Khv1PYJdl/BvhlQUVEhNurq6mT7Bx98INuDjaMRt/bSSy/16dNHbBvuK5zYNQlxs4i8vYinKS+EhWKAC3hhIgIaJjwAe7GqAOrgfVQQDwXuYteMbW9vT0tLS09Pf+ihh/TtkyZNmjFjxrlz5/zXcuU7d+70B+TWTQsAhu1p06bl5OTIvLn8zYATJ06I3u3bt4uWqqqq8ePHywy7/IP7hw8fDhw8Nzc3Ly+vpaXl7NmzI0aMWLJkSbCLsS4G+IPclyAuUjtFdna2HEocGB8f//LLL7e1tYkrHzt2rHYK03FOnjwpNi5duiSi+vrrryclJfmv/5CAdl/hxK5JiJtF5O1FPE15ISwUA1zACxMR0DDhAdiLVQVQB++jgngocBcbZ+yrr74aERHx1ltv6RsbGxvnzp2bmJgYGxs7ePDggoICf0BuPVgBQL/d1NSkjZOZmSl/P2DFihV9+/YVLaNHjy4sLNQy7PPnz5d/eGfNmjX6QWpqaiZPnhwXF5eQkCD2kV8pML2YGxYDTO9LqK6uzs3NjY6OzsrKWrlypTbUli1b0tPTRXt2dva6deu0dtNxjh49KnYT1xkVFTVy5Ej5Z4L8X70v2RIebJyEuClE3l7E05QXwkIxwAW88OMVgIYJD8BerCqAOngfFcRDgbvc7Iytr68vKiry+XzGDgQwrSsg0M1OQtiFyNuLeJryQlgoBgAAAAAAgLBSUlIyc+bMjIyM/fv3G/tghmIAAHgBxQAAAAAAABAO6uvrCwoKsrKykpOT09PTqQR0HMUAAPACigEAAAAAAMDdSkpKHnvssQEDBiQnJw8ePJjvBAAAEIhiAAAAAAAAcCXtqwB33XVX/2vENpUAAABMUQxwAS/8eAWgYcIDsBerCqAO3kcF8VCgOJnftzBw4EBjE9DFjNMUtwT/g2Uv4mnKC2GhGOAC+fn5xiYgfDHhAdiLVQVQB++jgngoUJx14lX01tfX//znP8/MzBwwYIBM1I4YMUJ85JsB6CIsm04h8vYinqa8EBaKAS7ghYkIaJjwAOzFqgKog/dRQTwUKO6GxQBt+w9/+MOUKVNkSSAjI4N6ALoIy6ZTiLy9iKcpL4SFYoALeGEiAhomPAB7saoA6uB9VBAPBYrreDFA0r4okJycnJ6eTj0AtmPZdAqRtxfxNOWFsFAMcAEvTERAw4QHYC9WFUAdvI8K4qFAcYHpfj2L3j/84Q9PPvkkvyQM27FsOoXI24t4mvJCWCgGuIAXfrwC0DDhAdiLVQVQB++jgngoUJxFut9/o17/tS8KFBUV+Xw+YwcQKpZNpxB5exFPU14IC8UAAAAAAACgIut0v3UvAAAwoBgAAAAAAABUZJ3ut+4FAAAGFAMAAAAAAICKrNP91r0AAMCAYgAAAAAAAFCRdbrfuhcAABhQDHABL/x4BaBhwgOwF6sKoA7eRwXxUKA463S/dS/QFVg2nULk7UU8TXkhLBQDXCA/P9/YBIQvJjwAe7GqAOrgfVQQDwWKs073W/cCXYFl0ylE3l7E05QXwkIxwAW8MBEBDRMegL1YVQB18D4qiIcCxVmn+617ga7AsukUIm8v4mnKC2GhGOACXpiIgIYJD8BerCqAOngfFcRDgeKs0/3WvUBXYNl0CpG3F/E05YWwUAxwAS9MREDDhAdgL1YVQB28jwrioUBx1ul+616gK7BsOoXI24t4mvJCWCgGuIAXfrwC0DDhAdiLVQVQB++jgngoUJx1ut+6N2SHDh2KiYlpbW2VH5cvX56QkCBa9u7d+5X9zHzyyScREREXL140DBJI29PYYZMuGt/6vqx7wwPLplOIvL2IpykvhIViAAAAAAAAUJF1ut+0d9KkSTNnzjQ05uTkLFiwwNDYET6fLzIysrS01NgRRMdT8B3fs4MMA9o1fmjjhHYUAKCrUQwAAAAAAAAqMk33a0x7f/vb30ZFRdXX12stx44di4yMrKio0O0V1KVLl/QfDx48eFNJ7Y4nwTu+ZwdRDAAA3BDFAAAAAAAAoCLTdL/GtLe9vf3uu+9euXKl1vKjH/1ozJgxcrupqWn27NkJCQnx8fGzZs1qaWnxX89cr1+/ftCgQT169CgpKZGJ7OLi4qioKLEdExPTr1+/NWvWDB8+XBv2+PHj3bp1+8tf/qK1+HVJcMPGpk2bhgwZIkYbNWqULEvo0+WiZeDAgW+88YZ+KKGwsFAcFRsbK6526tSpNTU1hgO1j3/961+1SxVWr14d7Lx+yyAY9m9oaDAdVp79/Pnz8+bNS0pKEl2ZmZllZWWy1+fzGY7qSOgAALcAxQAAAAAAAKAi03S/JljvK6+8MmzYMLl96dKlvn37/upXv5If8/LypkyZ0tjY2NTUNGHChEWLFvmv58GnT58u2i9cuKDPd+u3RW9MTMwf//hHOdSyZcu++c1vym1NsGLAjBkz6uvrW1tbZ86cKSsT2g47duwQN1JcXGwYSti6devx48fFxtmzZ8XVTpw40R+kGHDlyhXT9sDz+i2DELi/6bDy49SpU8eNG1ddXS22KysrT58+HXj78qiOhA4AcAtQDHABL/x4BaBhwgOwF6sKoA7eRwXxUKC4YOl+KVjvmTNnunfvXlJSIrY3btx45513XrhwQWzX1dVFRkYePXpU7rZt27bExET/9QR3ZWWlbA9WDBCeeeaZZ599Vmy0tbWlpKRs2rRJtmsCs+Fyo6qqSu6wb98+cW3anm+++aYYR16qtT179kRFRfkDLsm6GBB4XusgBO5vOqz4WFtbKzbKy8tlu6HXcJS/A6FzC5ZNpxB5exFPU14IC8UAF8jPzzc2AeGLCQ/AXqwqgDp4HxXEQ4HigqX7JYveKVOmzJkzR2zk5uYuXLhQNpaXl0dERMRf16tXr549e7a3twfLdxu2hT/+8Y/iqJaWli1btiQlJV2+fFm2awKz4aaDa7n7fv36Pf/8818d4+82b96cnZ3du3dvcdLY2Fixf1tbm/WApneh3+2mgmAxrBynublZtht6DUf5OxA6t2DZdAqRtxfxNOWFsFAMcAEvTERAw4QHYC9WFUAdvI8K4qFAcRbpfr9l77Zt22JiYg4dOhQZGfnZZ5/JRp/PFxERcebMma/ua543Ny0GCCNHjnzrrbcmT5784x//WGvUBGbDTQfXkuxHjhxJT09/4YUXvjrM//niiy+6deu2YcOG1tZW8XH37t3ywIqKCrFRV1cnd/vggw9k+4EDBwJPFHjemwqCxbDymwGffvrp34fQ9RqOkqxD5xYsm04h8vYinqa8EBaKAS7ghYkIaJjwAOzFqgKog/dRQTwUKM4i3e+37G1vb09LS0tPT3/ooYf07ZMmTZoxY8a5c+fEdk1Nzc6dO/1B8uDBigGFhYXDhg27/fbbjx07pjVqAmsApoPr/8X9559/npGRsXjx4qtXr+qHOnHihNhh+/btYruqqmr8+PHyQHFIfHz8yy+/3NbWdvr06bFjx8r2U6dOiY3Dhw/rTxR4Xv/NBMF62GnTpuXk5Mi6guE3AwxHSdahcwuWTacQeXsRT1NeCAvFABfwwkQENEx4APZiVQHUwfuoIB4KFGeR7vffqPfVV1+NiIh466239I2NjY1z585NTEyMjY0dPHhwQUGBP0gePFgxoKmpSRybk5OjtegF1gBMBzf8+Z3a2tqRI0fOmTOnvb1dP9qKFSv69u0rTjd69OjCwkItm79ly5b09PTo6Ojs7Ox169Zp7fPnz5d//GfNmjXBzuu/mSBYDytCoY2TmZlZXl6u79UfJce0Dp1bsGw6hcjbi3ia8kJYKAa4gBd+vALQMOEB2ItVBVAH76OCeChQnHW637q3i1y9ejU9Pf3tt982duBGwiN0LJtOIfL2Ip6mvBAWigEAAAAAAEBF1ul+694u8u6774rzyr/jj5tC6ADAcRQDAAAAAACAiqzT/da9XSEpKUmcdMuWLcYO3AihAwAVUAwAAAAAAAAqsk73W/cCAAADigEAAAAAAEBF1un+/k4zXhAAAGqjGOACXvjxCkDDhAdgL1YVQB28jwrioUBx1gl3696u5uzZ4RSWTacQeXsRT1NeCAvFABfIz883NgHhiwkPwF6sKoA6eB8VxEOB4qwT7ta9Xc3Zs8MpLJtOIfL2Ip6mvBAWigEu4IWJCGiY8ADsxaoCqIP3UUE8FCjOOuFu3dvVnD07nMKy6RQiby/iacoLYaEY4AJemIiAhgkPwF6sKoA6eB8VxEOB4qwT7ta9Xc3Zs8MpLJtOIfL2Ip6mvBAWigEu4IWJCGiY8ADsxaoCqIP3UUE8FCjOOuFu3dvVnD07nMKy6RQiby/iacoLYaEY4AJe+PEKQMOEB2AvVhVAHbyPCuKhQHHWCXfr3q7m7NnhFJZNpxB5exFPU14IC8UAAAAAAACgIuuEu3VvV3P27AAAhIBiAAAAAAAAUJF1wt26V6ivry8qKvL5fMYOO9zw7AAAqIZiAAAAAAAAUJF1wt2it7S09Hvf+15GRsb+/fuNfTaxODsAAGqiGAAAAAAAAFRknXAP7K2vry8sLBw5cmRycvLAgQO7rhLgNzs7AACKoxjgAl748QpAw4QHYC9WFUAdvI8K4qFAcdYJd31vaWnprFmz7r777rS0tIEDBw4ZMqRLKwH+G10bwhXLplOIvL2IpykvhIVigAvk5+cbm4DwxYQHYC9WFUAdvI8K4qFAcdYJd9GrfRXgnnvu6X/NvffeewsqAf4bXRvCFcumU4i8vYinKS+EhWKAC3hhIgIaJjwAe7GqAOrgfVQQDwWKs064y+y/g4wXBA9g2XQKkbcX8TTlhbBQDHABL0xEQMOEB2AvVhVAHbyPCuKhQHHWCff+174ZsGzZskGDBiUnJ8sE/SOPPDJ06NBb8M0AeBPLplOIvL2IpykvhIVigAt4YSICGiY8AHuxqgDq4H1UEA8FirthMUDb/v3vf/+Nb3wjJSVFNI4aNYp6ALoIy6ZTiLy9iKcpL4SFYoALeOHHKwANEx6AvVhVAHXwPiqIhwLFdbwYIOm/KJCenk49ALZj2XQKkbcX8TTlhbBQDAAAAAAAACoKTPfrWfT+/ve/nz59ekZGBvUAAAA0FAMAAAAAAICKLNL9/hv1+q99UaCoqMjn8xk7AADwJIoBAAAAAABARdbpfuteAABgQDEAAAAAAACoyDrdb90LAAAMKAa4gBd+vALQMOEB2ItVBVAH76OCeChQnHW637oX6Aosm04h8vYinqa8EBaKAS6Qn59vbALCFxMegL1YVQB18D4qiIcCxVmn+617ga7AsukUIm8v4mnKC2GhGOACXpiIgIYJD8BerCqAOngfFcRDgeKs0/3WvUBXYNl0CpG3F/E05YWwUAxwAS9MREDDhAdgL1YVQB28jwrioUBx1ul+616gK7BsOoXI24t4mvJCWCgGuIAXJiKgYcIDsBerCqAO3kcF8VCgOOt0v3Uv0BVYNp1C5O1FPE15ISwUA1zACz9eAWiY8ADsxaoCqIP3UUE8FCjOOt1v3Qt0BZZNpxB5exFPU14Ii1UxoKKiYkG4eO211/4dAAAAAAC4R0JCwt7gRK/xAAAAPOb06dPGtH5wVsWABQsWRAAAAAAAAAAAAPX84he/MKb1g7txMeAf//EfX3OzuXPnirtYuHDhLwAAAAAAgHskJCT8f8GJXuMBAAB4xpQpU+wvBrz22mtfutmWLVvEXezdu9d4ewAAAAAAQGHWvwpg3QsAQHj793//d4oBRmFQDPDCj1cAGiY8AHuxqgDq4H1UEA8FirNO91v3Al2BZdMpRN5exNOU68KidDFA/g2jVatWGTu6WBgUA/Lz841NQPhiwgOwF6sKoA7eRwXxUKA463S/dS/QFVg2nULk7UU8TbkuLD10NZoAAIAASURBVG4qBtyy2kAIxQB5bcILL7zw8MMPi43f/OY3Wu/IkSNFy86dO3VH3JgcUPtYUFAg/l9LZGSkaKysrAzcQe+GE/Gla/QtFqPdLP1QHRm2I/t0XEfOHqy9M+wdM/AB2a7zF6yNIC5VbndywJDdcMIDwE1hVQHUwfuoIB4KFGed7rfuBboCy6ZTiLy9iKcp14WFYoCJkIsBGzZsqKioWLt2rdh+/PHHZdeRI0fExwEDBrS3t3/1oKAuXbok/rvhGq2xR48eYpz/+I//EI3nz58P3EHvhhNRXrC+xWK0m6UfvCPDBl5MZ3Tk7PaeUbJ3THtHMxUsOHL6dYR2kZ999pkY6hZcczA3nPAAcFNYVQB18D4qiIcCxVmn+617ga7AsukUIm8v4mnKdWFxvhjwu9/9bsSIEb169brtttvi4uIefvjhDz74QHbJ3KLM/sttva+MYqu5c+eK8T/88EPj7QUnL0luNzY2RkVF9ezZs6GhQXz8yU9+IrqWLVsme1taWv75n/85OTm5e/fu995775o1a/Qj/PSnP42Pj5f/JFw/ptzW6Bvldmtr69KlS++6665u3br17dt3+vTpovG9995LS0u7/fbbxcWMHTv20KFDHRzt4sWLP/rRj1JTU8VFpqSkPPfccxcuXNDv9q//+q/iOsWJ/ud//ke26wUbNtix2j6/+c1vevToMWzYsJqaGtklzJw5U/Tu2LFDbFdXV4t5Mnz4cP+N7i5wu7KyUhwYExPz4osv6tv1rMcMvPKOjBns2BsGWfP3sa4znUVvv/222Fk++sWLF4vt119/3X99NDEDxXWK2MqvlWjt+m399DM9hd/ylg0fbyXXrbwAFMeqAqiD91FBPBQozjrdb90LdAWWTacQeXsRT1OuC4vzxYD169c//PDDTz/99Ny5c7Ozs8XhUVFRx44d+/KrxYB58+bJjzk5OfOuMQ5kkx/84AfiLP/yL/9ivDdLhjTod7/7XfFx3bp1V69eHThwoNj+3//9X9k1e/Zs8XHKlCki9Hl5eWJ78+bN2gjjx4//r//6r3379hnG1P7Ztf5fc+t3kAWMr3/96+KkBQUFMp+7Z88e8WgLCwv/9V//9Y477hg5cmQHR/ve974ntr/5zW/+8pe/FP8V23PmzNHvNm3aNDGm2BB3J9v19EMFbgceK9uLi4tvv/32MWPGiKcg2yURDdE7c+ZMsf2zn/0s4tqU8Ae/u8Azyu1vfetbYlsE6plnntG361mPGXjlHRkz2LEWQTZ9QHrBZtE//dM/ie358+dHRkb+wz/8g5h+/usXMPcasSGuWQ4i2/Xb+ukX7BQWt2z4eCu57tdaACiOVQVQB++jgngoUJx1ut+6F+gKLJtOIfL2Ip6mXBcW54sBQnFx8U9+8pP58+fL9Kjw3//9318G/F0gw8euEFolwB+QBt2xY4f4+Mgjj3z44YdiIzs7W+uKi4uTO2ueeeYZbYTTp09re8qWYB8NLb169RLbn3/+uX6HDRs2pKSkyN2Ebt26aV0dGa22tlZsi/+KbdGi362uru7KlStiIzIyUhtBox8qcDvwWNl+++23P/jgg/IvIBkMGTIkJiamubl52LBhUVFR9fX1/uB3Jz8GbkdHR4vtpqamxsZGfbue9ZiBV96RMYMdaxFk7Sjto0GwWSRCdP/994uP4i7EGeXOcgftIsU169v12/rpF+wUFrds+AgAAAAAt551ut+6FwCA8OZ8MWDOnDl/yzXqrF69+suA7L/ho+1CrgT4A9Kg7e3tqamp8l9ni3btT6z4r6eAxV3svK6ioiJwhMAW6x1MiwEJCQkR189155133uxoMptsWgwI3NYLto/19l133XXHHXfIPwdk8Prrr4sdlixZIv779NNPy8Zgdxc4styWWezGxsaGhgZ9u15XjBnsWIsgG/YMFGwWiXFkMUPscOLECbmzHKrxmgjLYoDcloKdwuKWAwcBAAAAgFvMOt1v3QsAQHhzvhjQs2dPccgPfvCDmpqaP//5zzKfqP+dAC37HxkZKT6++eabXzneJp2pBPjN0qD/7//9P9l4xx13fKn7uzfyT7WMGDFi7dq169ate+aZZ+bNm+c3G8HQYr2D/FKF/DNBb7zxxq9//WvRmJiYKBp/9rOfyb8grz9cpnpFMLdv3x5stG9961v/+Z//+e1vfzvi+r8KN+xmGFMTbB/r7aNHjyYlJUVFRe3evVu2a2pra3v06CEnwEcffSQbg91dsG2Lv2+j6Yoxgx1rEWS/2QPSM51FV69eFaOJKInrv/3227/2ta9dvnzZf/2k2p8JEueSg+gvRr8tmZ7Cb3nLgYMAAAAAwC1mne637gUAILw5Xwy45557xCHp6emzZ88ePHiwzCeaFgPuvvtu8fG+++77/ve/b+9vBnSyEuA3S4NqhY3HHntM397a2rps2bKBAwd27949Li4uOzu7qKjIbzaCocV6B/lrtAMGDJA/IPzWW2+Jxo0bNyYlJcXGxi5ZsiQtLU1/+M9//vP4+HjRMnToUNPRfvjDH6akpIjRkpOTRWQMv20buK0XbJ8bbpeVlYmrio6Oln+2Xu/xxx8X+2RkZGgtwe7OdGT/tV++HTZsmBhcfsNAa9frijGDHWsRZL/ZA9IznUXiELH/c889J3ZYsWKF2H7++ef910/605/+9IY/IHx9+P9jegq/5S0HDgIAAAAAt5h1ut+6FwCA8OZ8MWDnzp1Dhw7t3r37Pffc8/bbb8t8omkxYMOGDffdd1+3bt1k+1dG6YTOVwL819OgdXV1LS0txj4nuO7HK9B15OQ0ttpKTHsx+W/BiYJhwgOwF6sKoA7eRwXxUKA463S/dS/QFVg2nULk7UU8TbkuLM4XA5xlSyXAfz3fKrzwwgvGPifk5+cbm+BVtyBH/9JLL2mvgLHvlmDCA7AXqwqgDt5HBfFQoDjrdL91L9AVWDadQuTtRTxNuS4sni4G2FUJELQfWT1+/Lixzwmum4hwtRMnTmivgLHvlmDCA7AXqwqgDt5HBfFQoDjrdL91L9AVWDadQuTtRTxNuS4sXVIMmDt37hblyd9HtaUSoCDXTUSgM5jwAOzFqgKog/dRQTwUKM463W/dC3QFlk2nEHl7EU9TrgtLlxQD3CJcKwF+F05EoDOY8ADsxaoCqIP3UUE8FCjOOt1v3Qt0BZZNpxB5exFPU64Li83FgNdee00Mt3Dhwr3K+/DDD41XH0Zc9+MVQGcw4QHYi1UFUAfvo4J4KFCcdbrfuhfoCiybTiHy9iKeplwXFpuLASEMBwAAAAAAYAvrdL91LwAA4S2E7D3FAAAAAAAAoCLrdL91LwAA4S2E7D3FAAAAAAAAoCLrdL91LwAA4S2E7D3FAAAAAAAAoCLrdL91LwAA4S2E7D3FABdw3Y9XAJ3BhAdgL1YVQB28jwrioUBx1ul+616gK7BsOoXI24t4mnJdWELI3lMMcIH8/HxjExC+mPAA7MWqAqiD91FBPBQozjrdb93bGZ988klERMTFixeNHeiAQ4cOxcTEtLa2yo/Lly9PSEgQLWvXrtW335B8CleuXDF2OIpl0ylE3l7E05TrwhJC9p5igAu4biICncGEB2AvVhVAHbyPCuKhQHHW6X7TXplBzsjI0FrOnz8fExNzU2llFxUDFL9Un88XGRlZWlpq7OgAigHQI/L2Ip6mXBeWELL3FANcwHUTEegMJjwAe7GqAOrgfVQQDwWKM033a0x7ZQZ58ODBf/zjH2XLW2+9JT52PK186dIlxTPseqpdqoie/uPBgwdDvjyKAdAj8vYinqZcF5YQsvcUA1zAdRMR6AwmPAB7saoA6uB9VBAPBYozTfdrTHtlBvnVV19duHChbMnJyVm+fLmWVi4sLBwyZEhsbGx8fPzUqVNramq0o9avXz9o0KAePXqUlJRoKeyKioqBAwe+8cYbupP8H9Nx/Ne+iDBv3rykpKSYmJjMzMyysrJgjWfPnhUHxsXF9enTR1ytTKMbkvtaQlxubNq0SZw0Kipq1KhR4sIaGhrEtmiPuWb16tV/u7jrgl1kQUFBamqqODYlJSVwHVi1atUDDzygfTx58uRtt9126tQpsd3U1DR79uyEhAQx4KxZs1paWvzBo1dcXKxdXr9+/fS3ZjqOcObMmUcffTQ6OjorK2vlypUUA6Ah8vYinqZcF5YQsvcUA1zAdT9eAXQGEx6AvVhVAHXwPiqIhwLFmab7Naa9MuN86tQp0Xv58uW//OUvAwYMKC0t1dLKW7duPX78uP9aLn7ChAkTJ07Ujpo+fXpjY+OFCxe0tPWOHTvEOMXFxYaz+IOMI0ydOnXcuHHV1dViu7Ky8vTp08EaxVGivbm52efzDR8+fOnSpf4bFQNmzJhRX1/f2to6c+bMMWPGBO5vYHqRIjjikF27doltcb+ffvqp4agvv/zyjjvukBUL4cUXX8zNzZXbeXl5U6ZMEUc1NTWJARctWuQPHj2tK3DbdBxBnEiLyejRoxUsBrBsOoXI24t4mnJdWELI3lMMAAAAAAAAKjJN92tMe7WM87e//e3333//lVde+fGPf6yl1A0779mzJyoqSjuqsrJStsuPb775ZkpKSklJyVeOMaONU1tbKw4sLy/X95o21tTUiMYjR47Ijxs3bpS3Y10MqKqqku379u3r3r174P4WtIv84osvunXrtmrVqoaGBuNO1z3xxBOLFy8WG1evXk1LSysqKhLbdXV1kZGRR48elfts27YtMTHRHyR6gQUAbTvYOIaYvPvuu6ZPDQAghZC9pxgAAAAAAABUZJru15j2ahnnjRs3Tps27b777jt8+LC+GLB58+bs7OzevXv36tUrNjZWtLe1tZmm4Pv16/f8889/ZXQd03HKy8vFRnNzs35P08aysjJ948cffxwZGekPSO4bigE3bDcwvUjZnpOTI1rGjh27d+9e42F+//bt2xMTEy9fvrxr1674+PgLFy74r99I/HVizJ49e7a3t5tem0UxINg4gTGR9/i3awIAfFUI2XuKAQAAAAAAQEWm6X6Naa+WcRbuvPPOBx98UGu8cuWK/EfxGzZsaG1tFe27d+82TanLj0eOHElPT3/hhRf040vBxpFfAjD84R3TRsO/gn/nnXfk7VRUVIj2uro62f7BBx9YXKFoP3DggL5dL9hFajuI9pdeeqlPnz5/P+a6tra21NTUzZs3P/XUU88++6xs9Pl8YoQzZ858dV/zAoZFMSDYOHwzAABuSgjZe4oBAAAAAABARabpfo1prz77fPDgQfm3aLTU+YkTJ8TG9u3bRWNVVdX48eNle7B09ueff56RkbF48eKrV6/qTuIPNo74OG3atJycHJnp1n4ewLQxNzc3Ly+vpaXl7NmzI0aMWLJkiWgUJ42Pj3/55Zfb2trEbmPHjrW4QtEufwDg8OHDf7synWAXefLkyZ07d166dKm9vf31119PSkoyHnnNsmXLxCHR0dGlpaVa46RJk2bMmHHu3Dn/tdy9GMd/88WAYOP4r/3asxaT7OxsLaoAgEAhZO8pBriA6368AugMJjwAe7GqAOrgfVQQDwWKM033a0x7DYlpfaNMK69YsaJv376xsbGjR48uLCy0SLXLj7W1tSNHjpwzZ057e7t+TNNxRHtTU9PcuXMTExNFV2ZmpvypANPGmpqayZMnx8XFJSQkzJ8/X/77fWHLli3p6enR0dHZ2dnr1q2zuEJ5RnGs/Hs7a9askb0a04s8evSoGFmcNyoqStya6Z8JEo4dOyb2Hzp0qL6xsbFRu5HBgwcXFBT4A2IerACg3zYdR6iurs7NzRX3npWVtXLlSu0e1cGy6RQiby9PxdPn8xUVFdXX1xs7ArguLCFk7ykGuEB+fr6xCQhfTHgA9mJVAdTB+6ggHgoUZ5ru11j3Al2BZdMpRN5eXovn/v37MzIyFixYoP+qUyDXhSWE7D3FABdw3UQEOoMJD8BerCqAOngfFcRDgeKs0/3WvUBXYNl0CpG3lwfjuXPnzrvuuislJeWRRx5Zu3at6RcFXBeWELL3FANcwHUTEegMJjwAe7GqAOrgfVQQDwWKs073W/cCXYFl0ylE3l7ejOf27dtTU1Pvv//+CRMmDBo0KPCLAq4LSwjZe4oBLuC6iQh0BhMegL1YVQB18D4qiIcCxVmn+617ga7AsukUIm8vz8ZT1gPE/3zcddddubm5Dz74oP6LAq4LSwjZe4oBLuC6H68AOoMJD8BerCqAOngfFcRDgeKs0/39AQDonPvvv1/8d9CgQXv27HHd/y8KIXtPMQAAAAAAAKio/42KAcYmAACCk78kPGTIEK0YcO+99z733HN1dXXGXd0ghOw9xQAAAAAAAKAi63S/dS8AAHqyEnDvvfeK//lITk7OycnZunWrcSdXCSF7TzEAAAAAAACoyDrdb90LAIBm//79AwcOTE5OdvVXAQxCyN5TDAAAAAAAACqyTvdb9wIAIO3fv3/IkCHf/OY33f5VAIMQsvcUA1zAdT9eAXQGEx6AvVhVAHXwPiqIhwLFWaf7rXuBrsCy6RQiby9PxdPn8xUVFdXX1xs7ArguLCFk7ykGuEB+fr6xCQhfTHgA9mJVAdTB+6ggHgoUZ53ut+4FugLLplOIvL2IpynXhSWE7D3FABdw3UQEOoMJD8BerCqAOngfFcRDgeKs0/3WvUBXYNl0CpG3F/E05bqwhJC9pxjgAq6biEBnMOEB2ItVBVAH76OCeChQnHW637oX6Aosm04h8vYinqZcF5YQsvcUA1zAdRMR6AwmPAB7saoA6uB9VBAPBYqzTvdb9wJdgWXTKUTeXsTTlOvCEkL2nmKAC7juxyuAzmDCA7AXqwqgDt5HBfFQoDjrdL91L9AVWDadQuTtRTxNuS4sIWTvKQYAAAAAAAAVWaf7rXsBAAhvIWTvKQYAAAAAAAAVWaf7rXsBAAhvIWTvKQYAAAAAAAAVWaf7rXsBAAhvIWTvKQYAAAAAAAAVWaf7rXsBAAhvIWTvKQa4gOt+vALoDCY8AHuxqgDq4H1UEA8FirNO91v3QvPJJ59ERERcvHjR2NEB8tgrV64YO5xw6NChmJiY1tZW+XH58uUJCQmiZe3atfr2G+rMTbFsOoXI24t4mnJdWELI3lMMcIH8/HxjExC+mPAA7MWqAqiD91FBPBQozjrdb91r7dVXX42IiHjrrbeMHbdQZ3L0N6UzJ+pM3rxL+Xy+yMjI0tJSY0cHdOamWDadQuTtRTxNuS4sIWTvKQa4gOsmItAZTHgA9mJVAdTB+6ggHgoUZ53ut+610N7enpaW9sADDzz00EPGvluoMzn6jrt06VJnTtSZvLm9xI3oPx48eNCRm2LZdAqRtxfxNOW6sISQvacY4AKum4hAZzDhAdiLVQVQB++jgngoUJx1ut+618K2bdtiYmL+9Kc/RUZGfvbZZ1r7+fPn582bl5SUJHozMzPLysqCNZ49e3bq1KlxcXF9+vRZuHChzFMbcu5axllubNq0aciQIVFRUaNGjaqoqGhoaBDboj3mmtWrV2uXoR373nvviTNGR0c/+OCD4pD3338/KytLHDVy5Ehx8XLPwsJCMWxsbGx8fLy4pJqaGu3w9evXDxo0qEePHiUlJdqFiXEGDhz4xhtviO2mpqbZs2cnJCSIY2fNmtXS0iLHPHPmzKOPPirOK063cuVK07y56XmFgoKC1NRUcZEpKSmBK8yqVaseeOAB7ePJkydvu+22U6dO+YNcTLAbKS4u1qLXr18/feRNx/F37KY6IvCmcGsQeXsRT1OuC0sI2XuKAS7guokIdAYTHoC9WFUAdfA+KoiHAsVZp/utey1MmTLlqaeeEhuPPPLIwoULtfapU6eOGzeuurpabFdWVp4+fTpY44QJE0R7c3Ozz+cbPnz40qVL/TcqBsyYMaO+vr61tXXmzJljxowJ3F9Pdn3nO9/58ssvxSGzZs1KS0t78skntY8PP/yw3HPr1q3Hjx/3X6tPiKuaOHGidvj06dMbGxsvXLignWjHjh0iaMXFxfLYvLw8EQqxT1NTkzh20aJFsj03N1e7u9GjR5vmzU3Pe+rUKbHzrl27xLYY9tNPPzUcJa7/jjvukAUV4cUXXxTnktumFxPsRrSuwG3Tcfwdu6mOYNl0CpG3F/E05bqwhJC9pxjgAq778QqgM5jwAOzFqgKog/dRQTwUKM463W/dG8yZM2e6d+++Y8cOsb1u3bo777zzwoULYru2tjYiIqK8vFy/s2ljTU2NaDxy5Ij8uHHjRnkl1sWAqqoq2b5v3z5xAYH76xkO+fDDD8VHceXaRzmCwZ49e6KiovzXD6+srJTt8uObb76ZkpJSUlIiG+vq6iIjI48ePSo/btu2LTEx0R9wd+++++4N8+baeb/44otu3bqtWrWqoaHBuNN1TzzxxOLFi8XG1atX09LSioqK/MEvxvRGAgsA2nawcUK4qWBYNp1C5O1FPE25LiwhZO8pBgAAAAAAABVZp/ute4N55ZVXkpOT29raxHZDQ0PPnj1/9atfie3y8vKIiIjm5mb9zqaNZWVl+saPP/44MjLSH5DcNxQDbtiuF+yQwI+bN2/Ozs7u3bt3r169YmNjRbu4NdPD+/Xr9/zzz8sW//Vbi79OHC5C0d7eHnh3+lNrTM8r23NyckTL2LFj9+7dazhK2L59e2Ji4uXLl3ft2iXOKysxwS7G9EYsigHBxungTQGAu4SQvacYAAAAAAAAVGSd7rfuNSV/OrhHjx79ruvevbv8oz3ySwCGv2xj2mj4Z+bvvPOOvJKKigrRXldXJ9s/+OADmXE2zWiL9gMHDujb9YIdYvgo/yX+hg0bWltbRfvu3bstziguOD09/YUXXpCNPp8vQvdtA01H/hF9sPNqO4j2l156qU+fPn8/5rq2trbU1NTNmzc/9dRTzz77rGwMdjGmN2JRDAg2TkduCgBcJ4TsPcUAAAAAAACgIut0v3Wvqd/+9re33XbbgQMHaq773e9+FxERUVFRIXqnTZuWk5MjU8nazwOYNubm5ubl5bW0tJw9e3bEiBFLliwRjRcvXoyPj3/55Zfb2trEbmPHjpUZZ9OMtmiXf2H/8OHD16/u74IdYvh44sQJsbF9+3bRWFVVNX78eIszio+ff/55RkbG4sWLr169KtonTZo0Y8aMc+fO+a+ly3fu3Cn3F/er3V12dnZg3jzYeU+ePCkGuXTpUnt7++uvv56UlKQ/SrNs2TJxSHR0dGlpqdZoejHBbsRi23QcfwduCgBcJ4TsPcUAAAAAAACgIut0v3WvqUmTJk2bNs3QOHbs2AULFoiNpqamuXPnJiYmxsbGZmZmyp8KMG2sqamZPHlyXFxcQkLC/Pnz5T+QF7Zs2ZKenh4dHZ2dnb1u3TqL1LzMRItj5R+0WbNmjezV72N6iOHjihUr+vbtK65t9OjRhYWFFmeUH2tra0eOHDlnzpz29vbGxkbt1gYPHlxQUCD3r66uzs3NFXeRlZW1cuVK07y56XmPHj0qblyEJSoqSpzF9M8ECceOHRP7Dx06VN9oejEWNxJs23Qcf8duCgDcJYTsPcUAF3Ddj1cAncGEB2AvVhVAHbyPCuKhQHHW6X7rXqG+vr6oqMjn8xk7gFCxbDqFyNuLeJpyXVhCyN5TDHCB/Px8YxMQvpjwAOzFqgKog/dRQTwUKM463R+s9/Lly//2b/82bdq0jIyM/fv3G7uBTmDZdAqRtxfxNOW6sISQvacY4AKum4hAZzDhAdiLVQVQB++jgngoUFywdL8U2FtWVpaXl5eampqcnHzPPfdQCYDtWDadQuTtRTxNuS4sIWTvKQa4gOsmItAZTHgA9mJVAdTB+6ggHgoUF5ju19N65VcBhg0b1v+aiRMnZmVlUQlAV2DZdAqRtxfxNOW6sISQvacY4AKum4hAZzDhAdiLVQVQB++jgngoUNwNiwHaVwFkGUD4/ve/TyUAXYdl0ylE3l7E05TrwhJC9p5igAu47scrgM5gwgOwF6sKoA7eRwXxUKC4GxYD7rnnHvFffTHg7rvvXrNmTX5+vtiWaR222WY7DLbF/2CZtrMd2jbxNN123f8vCiF7TzEAAAAAAACoqP+NigH19fVr1659+OGHhw0blpWV1f+ae++9l28GAADCXgjZe4oBAAAAAABARTcsBmjbpaWlCxYsuOeee0aPHp2amko9AAAQ9kLI3lMMAAAAAAAAKup4MUDSviiQkpKSlpZGPQAAEMZCyN5TDAAAAAAAACoKTPfrWfTKLwpkZGRQDwAAhKsQsvcUA1zAdT9eAXQGEx6AvVhVAHXwPiqIhwLFWaT7/Tfq9V/7okBRUZHP5zN2AKFi2XQKkbcX8TTlurCEkL2nGOAC8vesAY9gwgOwF6sKoA7eRwXxUKA463S/dS/QFVg2nULk7UU8TbkuLCFk7ykGuIDrJiLQGUx4APZiVQHUwfuoIB4KFGed7rfuBboCy6ZTiLy9iKcp14UlhOw9xQAXcN1EBDqDCQ/AXqwqgDp4HxXEQ4HirNP91r1AV2DZdAqRtxfxNOW6sISQvacY4AKum4hAZzDhAdiLVQVQB++jgngoUJx1ut+6F+gKLJtOIfL2Ip6mXBeWELL3FANcwHU/XgF0BhMegL1YVQB18D4qiIcCxVmn+617ga7AsukUIm8v4mnKdWEJIXtPMQAAAAAAAKjIOt1v3QsAQHgLIXtPMQAAAAAAAKjIOt1v3QsAQHgLIXtPMQAAAAAAAKjIOt1v3QsAQHgLIXtPMQAAAAAAAKjIOt1v3RuyTz75JCIi4sqVK4cOHYqJiWltbTXuERaWL1+ekJAgbnDt2rW34DbDO5gA4IgQsvcUA1zAdT9eAXQGEx6AvVhVAHXwPiqIhwLFWaf7TXtlKj/mml69en3jG9/405/+ZNzJklYMMHaERI528eJFY4dlV1fz+XyRkZGlpaXGDvs4eHddimXTKUTeXsTTlOvCEkL2nmKAC+Tn5xubgPDFhAdgL1YVQB28jwrioUBxpul+jWmvPgfd0NAwe/bsYcOGGXeyZF0MuHTpkrHJkkVO3KKrqx08eND61Dd7m4EcvLsuxbLpFCJvL+JpynVhCSF7TzHABVw3EYHOYMIDsBerCqAO3kcF8VCgONN0v8a015CD/uijj7p166b1NjU1zZ49OyEhIT4+ftasWS0tLbL9zJkzjz76aHR0dFZW1sqVK2UxQBtKbqxfv37QoEE9evQQXcHGOX/+/Lx585KSkmJiYjIzMz/88MOoqKiI699UWL16tXYlDQ0NgV1nz56dOnVqXFxcnz59Fi5caJqRN5yirKzMH+RAedmbNm0aMmSIONeoUaMqKipEe3FxsXbqfv36BbvNkpIS8fG9994TZxGRefDBB8Xh77//vgiROHzkyJHaVy4KCwvFKWJjY0U0xGXU1NQE3p3+udzU1erJfX75y1+mpaWJ04nIaw868Bpke3V1dW5uruHJ+oPPhBti2XQKkbcX8TTlurCEkL2nGOACrpuIQGcw4QHYi1UFUAfvo4J4KFCcabpfY9qrTzqfO3fu6aeffuihh7TevLy8KVOmNDY2NjU1TZgwYdGiRbI9Nzd36tSpzc3NPp9v9OjRMmVsyJJPnz5dHHjhwgWLccQg48aNq66uFtuVlZWnT5+2+AfygV1iKO0yhg8fvnTpUt3ufxN4Cn+QA+X4M2bMqK+vb21tnTlz5pgxY+Qg+lMHu0358Tvf+c6XX34pDp81a1ZaWtqTTz6pfXz44YflaFu3bj1+/Lj/WpZfXMnEiRMNpzB8vNmr1ch9Hn/8cXFsTU2NOPaHP/yh7DK9BmH8+PFPPPFES0uLaBcDyifrD/4Eb4hl0ylE3l7E05TrwhJC9p5igAu4biICncGEB2AvVhVAHbyPCuKhQHGm6X6Naa/MF8fHx8fGxoqNtLS0M2fOyK66urrIyMijR4/Kj9u2bUtMTBQbNTU1Ys8jR47I9nfffVemjA1Z8srKSutxamtrxW7l5eWyXQrM+AfrMlzGxo0bA2/Q9BTBDpTjV1VVyfZ9+/Z1795dblsUA7TbNBz+4Ycfio9aMMVHbTS9PXv2REVF+QPuTvsYwtVq5D6Bxxpo1yDPpT2p9957L+Lakw32BDuCZdMpRN5exNOU68ISQvaeYoALuO7HK4DOYMIDsBerCqAO3kcF8VCgONNUr8a0V0s6X716taSkpE+fPi+++KLsKi8vj7hWJ5B69erVs2fP9vb2srIy0d7c3Cx3+/jjj2XK2JAl1/LawcaR7do4UseLAYGXERkZ+fe9rzE9RbADTdPx8t/FWxQDAtP3gYcbPm7evDk7O7t3794iFLIG09bWZnq4+BjC1WpkY+Cx/iDXYDiX/MNHYsxgT1DuZo1l0ylE3l7E05TrwhJC9p5iAAAAAAAAUJFpul9j2mvIKa9bt65nz55ffPGF2Pb5fBG6f9uu6eA3A7Qxg40j/9n+p59+qm88cOCA/liLLsNlvPPOO4E3aHqKYAdapNdtLAaI2Hbr1m3Dhg2tra2ifffu3bLdcHfaaCFcrUY26o/t16+f2Ah2DaI9QvfNgE2bNsn2YE8QANwlhOw9xQAAAAAAAKCiwGy4nmmvIad85cqVQYMGPf/88/LjpEmTZsyYce7cOf+1HPrOnTtle05OTl5envzL8tnZ2TJlHCxLbjHOtGnTxFAyyyz/oP+pU6fEsYcPH9aO1QR25ebmapcxYsSIJUuW6Hb/m8BT+IMcaJFet7EYcOLECbGxfft20VhVVTV+/HjZbrg7/Wg3e7Ua2Th9+vTm5mZ57HPPPSfag12D+PjII49897vfvXDhQl1d3dixY7X2YE8QAFwkhOw9xQAAAAAAAKAi03S/xrQ3MHH/9ttvx8TE1NXVie3Gxsa5c+cmJibGxsYOHjy4oKBA7lNdXZ2bmxsdHZ2VlbVy5UqZMg6WJbcYp6mpSWvPzMyUf9x//vz58s/RrFmzRhtBMnTV1NRMnjw5Li4uISFBdMl/525gegrTAy3S6zYWA8T2ihUr+vbtK65n9OjRhYWFWrv+7vSj3ezVamTjL3/5y7S0NPFMn3rqqZaWFtkV7BqqqqpycnLkk/3/2bv38KqqM/HjxCCQewkhgUQNqEEI4V4E9EFiFMWZco0VQSlDg4+W21hbZBgLTkeZhxki5VEkD1in1YnFCxSqo2i5OGIbSVEuqdJBbg0IOcBg7hCE5PzWZA37t7vPPouwzz6ctU+/nz989llr7XXWfvfaq/RdOef87Gc/i4mJaWlp8Qe/gwDgIQ6y92wGAAAAAAAAHdmm+w3qWkSfwF2ZK7J27VrmjG58Pl9paWl1dbW1AkAbOMjesxngAZ778QogFEx4AO5iVQH0wfOoIW4KNKdO3aprEX0cbAbs27dPflXRkSNH+vXrN2fOHGuLK8Sy6bqysrLevXuPHTv2ww8/tNaZEHl3EU9bnguLg+w9mwEeUFxcbC0CohcTHoC7WFUAffA8aoibAs2p0/3qWkQfB5sBZWVlPXv2jI+P79y584wZMxoaGqwtrhDLZjiI29SjR4/u3bvfcsstTz/9tO0HBYi8u4inLc+FxUH2ns0AD/DcRARCwYQH4C5WFUAfPI8a4qZAc+p0v7oWCAeWzTApKyu75ZZbbrjhBvFcZ2Zm3nfffZYPChB5dxFPW54Li4PsPZsBHuC5iQiEggkPwF2sKoA+eB41xE2B5tTpfnUtEA4sm+Ej9wN69OjRrZXlgwJE3l3E05bnwuIge89mgAd4biICoWDCA3AXqwqgD55HDXFToDl1ul9mDAFEq+zsbPHfm2++edu2bfwPlruIpy3PhcVB9p7NAA/w3I9XAKFgwgNwF6sKoA+eRw1xU6C5bpfbDLAWAWHGshk+27Ztu/766+U2wLe//e0BAwaMHDlyzZo18pMBRN5dxNOW58LiIHvPZgAAAAAAANCROt2vrgXgIXInIDs7+7bbbrvppptmz55dXl5ubQTgLznI3rMZAAAAAAAAdKRO96trAXjFtm3brrvuuszMTPNHAQBcloPsPZsBAAAAAABAR+p0v7oWgCeUlZX16dOHjwIADjjI3rMZAAAAAAAAdKRO96trAejP5/OVlpbyUQDAGQfZezYDPMBzP14BhIIJD8BdrCqAPngeNcRNgebU6X51LRAOLJuRQuTdRTxteS4sDrL3bAZ4QHFxsbUIiF5MeADuYlUB9MHzqCFuCjSnTvera4FwYNmMFCLvLuJpy3NhcZC9ZzPAAzw3EYFQMOEBuItVBdAHz6OGuCnQnDrdr64FwoFlM1KIvLuIpy3PhcVB9v7ymwHCP/3TP4mX4r8cR+T4nnvusS3nmGOOOeaYY44veyz+PWdbzjHHHF/9Y55HDY/5/xoca37crVs323KOOY7UMf9bxjHHUXzsxX8XtXN9M+CKukM4eG5XCggFEx6Au1hVAH3wPGqImwLNqf/2X10LhAPLZqQQeXcRT1ueC4uD7P0VbwbIDQfhqaeeuv3228XBb37zG6N20KBBomTz5s2mMy5Pdmi8XL58ufhf9JiYGFF44MCBwAZX5OlW5pJQerMwd9WWbtvSJtCV/niFs3cxM3oQoZPHIXYItN2VTngAUGNVAfTB86ghbgo0p073q2uBcGDZjBQi7y7iactzYbHN3qupMry23cm88Nq1aysqKtasWSOOv/vd78qqffv2iZfXXXddc3Oz+RSF8+fPi/+ubWUUdujQQfSzevVqUVhfXx/Y4IoEJrJD6c3C3Hlbug0cTDgEG4mMdlsY4/zjH/8ouro6wwYAAAAAwEyd7lfXAgAQ3Wyz92qqDK9td+a8cG1tbVxcXKdOnWpqasTLf/zHfxRVCxculLWNjY1///d/37179/bt2990002rVq0y9/CTn/wkJSVF/s2+uU95bDAXyuOmpqYFCxZcf/31sbGxXbt2/cUvfiEK33rrrezs7GuvvVYMZsSIEbt27Wpjb+fOnfvxj3+clZUlBpmZmfnDH/7w7Nmz5maLFi0S4xRv9Otf/1qWmwXrNti5Rpvf/OY3HTp06NevX1VVlaySbIP22muvibMmT54sjufNmyeOly1bZvQmAp6QkCC6kp+iMMrNx+Zo276FIE7v37+/6Grx4sXmHoxOjJcAAAAAAFwF6nS/uhYAgOhmm71XU2V4bbuz5IWnTJkiXr700kstLS09evQQx//93/8tq2bMmCFeTpgwQfRTWFgojtevX2/0MGrUqH//93/fvn27pU/j79DNf95ubvDII4+I41tvvVW86fLly1977TVRuG3bNjHOkpKSRYsWdezYcdCgQW3sbebMmeL43nvv/fnPfy7+K46///3vm5tNmjRJ9CkOxNXJcjNzV4HHgefK8g0bNlx77bXDhw//+uuvZbkhWND+7u/+ThzPmjUrJibmb/7mb0S0jd4eaSUOxowZIzuR5eZjc7SDvYU4XfZWVFRk7sHSIQAAAAAAV4c63a+uBQAgutlm79VUGV7b7ix54Q8++EC8vOOOOz7++GNxMGzYMKMqKSlJNjYUFRUZPRw9etRoKUuCvbSUJCcni+OvvvrK3GDt2rWZmZmymRAbG2tUtaW3U6dOiWPxX3EsSszNTp8+feHCBXEQExNj9GAwdxV4HHiuLL/22muHDBkivwHJIljQGhoabrnlFvFSXKboVjaWDerq6mpra8VBfHy8udx8bI52sLcQp7cz9dZOeUcAAAAAAAg3dbpfXQsAQHSzzd6rqTK8tt1Z8sLNzc1ZWVnyz9VFufGdM/5LefaVK1duvqSioiKwh8ASdQPbzYDU1NR2l97rW9/61pX2JtPrtpsBgcdmwdqoj6+//vqOHTt+8MEHstDMNmi///3vxdjkbodocOjQIdlY9lbbqp1yM0AeS7Zv4b+0GSC6qqmpsZwV2AkQPp77tRYAmmNVAfTB86ghbgo0p073q2uBcGDZjBQi7y7iactzYbHN3qupMry23QXmhf/hH/5BFnbs2NH8vTfyu2sGDhy4Zs2al156qaio6LHHHvPb9WApUTeQX+wjvyZoxYoVv/rVr0RhWlqaKPzXf/1X+ZX65tNl7vuFF17YtGlTsN7GjBnz8ssv33fffe0u/Zm8pZmlT0OwNurj/fv3p6enx8XFbd26VZYbbIO2bNkyMcKYmBhxgddee+23v/3tb775xujN+JogMX7ZSeA7Gv37g7yFn68JgjaKi4utRQAQAlYVQB88jxripkBz6nS/uhYIB5bNSCHy7iKetjwXFtvsvZoqw2vbXWBe+E9/+pMsvP/++83lTU1NCxcu7NGjR/v27ZOSkoYNG1ZaWuq368FSom4gf/L3uuuukz8g/Mtf/lIUvv766+np6YmJifPnz8/Ozjaf/m//9m8pKSmipG/fvra9/ehHP8rMzBS9de/e/fHHH7f8gHDgsVmwNpc93r17txhVfHy8/B5/g23QvvOd74izfvjDH4oGS5cuFcdPPPGE0dtPfvKTy/6A8KXu/5ftW/hbf0BYdCKGJGJoOSuwEyB8PLfyAtAcqwqgD55HDXFToDl1ul9dC4QDy2akEHl3EU9bnguLbfZeTZXhte1O5oVPnz7d2NhoLkf4BJuIVyFHL+6yuNdX4Y0AQ7AJDwDOsKoA+uB51BA3BZpTp/vVtUA4sGxGCpF3F/G05bmw2Gbv1VQZXtvuZF5YeOqpp8zlCJ9gE/Eq5Oiffvpp445b64DwCDbhAcAZVhVAHzyPGuKmQHPqdL+6FggHls1IIfLuIp62PBcW2+y9mirDa9ud8auzBw8eNJcjfCL44xWHDh0y7ri1DgiPCE54AFGJVQXQB8+jhrgp0Jw63a+uBcKBZTNSiLy7iKctz4XFNnuvdsWbAQAAAAAAAFeBOt2vrgUAILo5yN6zGQAAAAAAAHSkTverawEAiG4OsvdsBgAAAAAAAB2p0/3qWgAAopuD7D2bAQAAAAAAQEfqdL+6FgCA6OYge89mgAd47scrgFAw4QG4i1UF0AfPo4a4KdCcOt2vrgXCgWUzUoi8u4inLc+FxUH2ns0ADyguLrYWAdGLCQ/AXawqgD54HjXETYHm1Ol+dS0QDiybkULk3UU8bXkuLA6y92wGeIDnJiIQCiY8AHexqgD64HnUEDcFmlOn+9W1QDiwbEYKkXcX8bTlubA4yN6zGeABrk/EXbt2JSQkNDU1WSuUdu7cKebDuXPnrBWR4OwSDPJaLly4EFgoLvCynWsViujj+oQH8FeOVQXQB8+jhrgp0Jw63a+uBcKBZTNSiLy7iKctz4XFQfaezQAPcDARZbY6ISEhKSnpW9/61sCBAxcsWODz+aztrkQ0ZcDVmwHmQlttbwkHHEx4AFBgVQH0wfOoIW4KNKdO96trgXBg2YwUIu8u4mnLc2FxkL1nM8ADHPx4hTlbffHixT179nzve99LT08/dOiQtWmb6Z8BP3/+vLUoCB02AyyjbePg29jM0xxMeABQYFUB9MHzqCFuCjSnTvera4FwYNmMFCLvLuJpy3NhcZC9ZzMgOtlmqydNmvTggw9aapcvX56VlRUXF5eZmSm3v2Ttz3/+8+zs7MTExOnTp8uW5rNKSkp69+4talNSUiZOnFhVVSUKV61a1b9/f+PtDh48GBsb++c//9kokerq6mbMmJGamirOFZ03NjaKwhMnTqSnp//Hf/yHbCPK8/PzL168eNnByINXX301JyenQ4cOFy5csO1fOH78+N133x0fH5+Xl/f8888rNgMsB+vWrRMXK0I0ePDgiooKc0txLEp69OixYsUKc1f+IJdpGe2OHTssgz958qSIZ1JSUpcuXebMmSNT/4HXaLyLrHrrrbdyc3PFpQ0ZMkSMZ+PGjeIaxYAHDRr0+eefK8bjt5sAwQptb7pw7NixgoKCwMAGe0cAAAAAaCN1ul9dCwBAdHOQvWczIDrZbgZs2LAhLS3NXHvkyBFxsGXLFlFYW1u7d+9eo/a73/1uQ0NDVVVV//79f/SjH1n6fOeddw4ePCgOTp48edddd40dO1b2kJCQ8Ic//EG+3cKFC++9997/e2+TwsLCCRMmiMZ1dXXi3Llz58ryzZs3Jycn79u37xe/+EVGRobMNV92MPJg8uTJosOzZ88q+i8oKJg4caLox+fzDR061MhZG4JtBkydOrW6urqpqWnatGnDhw83t/zggw/Evz5FYM39SLbDsIw2cPCipTFIcbELFiwIPMv8LrLqwQcf/Prrr8UIp0+fnp2d/dBDDxkvb7/9dtnSdjy2E8C20B/kpgujRo164IEHGhsbRbmIjxFY23cEAAAAgLZTp/vVtQAARDcH2Xs2A6KT7WZAWVnZNddcY649ceJEbGzsypUra2pqjGaydt++ffLl66+/Lv+BZdunsG3btri4OHlcVFT06KOP+lu/mygzM3PdunV/0dTvP336dExMzP79++XL9957T+5PSE8//XROTk5SUtLWrVtlyWUHIw8OHDggGwTrv6qqytzPm2++aeSsDcE2AyorK2WD7du3t2/f3mj5wgsviGvcsWOHuRMp2DAso7W8tAzScrFGMzPLCD/++GPx8vjx48ZLOeBg47GdALaFFsZNl2M2en7rrbdkYIO9IwAAAAC0nTrdr64FACC6OcjesxkQnWwT94GfDBDH69evz8/PT0xMHDFixIcffmjUNjQ0yLM++eSTmJiYwLOGDRvWuXPn5ORkca4ov3jxoij/wx/+IEoaGxvffvvt9PT0b7755v/e+5I9e/aIximXiMadOnVqbm6WtVVVVR06dLjjjjuM9pcdjOVKg/W/e/duSz8yZy1fSoF9WjqXL8VZ8iAjI+OJJ54w92AINgzbDo2XgYMMjLyFbYfGdRkvg43HbzcBFIWBN90yZvnFR+p3BAAAAIA2Uqf71bUAAEQ3B9l7NgM8wMGPV9imjwsLC6dMmWJb29TU9PTTT3fp0sWoNf4+/Y033sjIyDCfJf9yfO3ateIsUb5161ZzAnrQoEG//OUvx48f/+STT/5f7yY+n6+d6U/XzZqbm0ePHj1p0qTu3bu//PLLsvCyg7FcS7D+Q/lkQGCq3RhVz549n3rqKXMnUrBh2HZovLQMUlys+jMZgVXGCC0vg43HYJ4AtoXBbroob2f6ZMC6deva+I4KDiY8ACiwqgD64HnUEDcFmlOn+9W1QDiwbEYKkXcX8bTlubA4yN6zGeABxi+4tp05R9zc3FxRUTFjxoz09HT5ne9G7eHDhzdv3nz+/HnRZtmyZaKBUTt58uSGhoaTJ08OHDjwhz/8ofmsQ4cOiYNNmzaJwsrKylGjRpkT0CUlJf369bv22mu//PJLYzxm48aNmzp16pkzZ/yt6W8xAFn+05/+tE+fPuJN/+u//ispKemPf/yjvw2DCUyUB+s/Pz+/sLBQfrX9sGHDzGOWAvsMlmo3yr/66isx5nnz5rW0tJi78gcZhm2H5sEXFBQYgxQXO3/+fNtmBtsOAzcD/EHGYzsBbAsVN/2OO+6YMmXK2bNnT58+PWLECPU7toWDCQ8ACqwqgD54HjXETYHm1Ol+dS0QDiybkULk3UU8bXkuLA6y92wGeICDiSizwAkJCUlJSSkpKQMGDJg/f77P5zPXnjt3bv/+/cOGDRNt4uLiBg0aZP6aoJ///OfZ2dmih4cffrixsdF8ljheunRp165dExMThw4dWlJSYk5A19XVifL8/Hz5MlBtbe0jjzySlpYmmvXq1Wv58uX+1r80F8P4/PPPZZtnnnmmd+/eDQ0Nlx1MYKLctn/h2LFjBQUF8fHxeXl5zz//vHnMUmCfwVLt5vJTp06J0H3/+9+3fAeO7TBsOzQPvqqqavz48SIUqamps2bNkn+GH9jMYNuh7WaA7XhsJ4BtoT/4Ta+srBS3WwZWLBoxMTFya8T2HdvCwYQHAAVWFUAfPI8a4qZAc+p0v7oWCAeWzUgh8u4inrY8FxYH2Xs2AzzgshOxurq6tLTUyPWHSJF6bouWlpaePXu+9tpr1gpHQhwMrrK1a9eG/s/xy054ALgirCqAPngeNcRNgebU//9CXQuEA8tmpBB5dxFPW54Li4PsPZsBHhBsIra0tKxevbqwsLBPnz5lZWXWaqdCzL+/+eab4h9k8k/aQxfiYHAV7Nu374svvhAHR44c6dev35w5c6wtrlCwCQ8AzrCqAPrgedQQNwWaU6f71bVAOLBsRgqRdxfxtOW5sDjI3rMZ4AGBP15x4MCBadOmXX/99d27d7/xxhtd3Anwh5Z/T09PF/8ae/vtt60VToUyGFwdYvr17NkzPj6+c+fOM2bMaGhosLa4QoETHgBCwaoC6IPnUUPcFGhOne5X1wLhwLIZKUTeXcTTlufC4iB7z2aAl8iPAgwZMqRbq3vuuScvL8/dnQAAAAAAADShTverawEAiG4OsvdsBniD8VEAuQ0gPPTQQ+wEAAAAAACimDrdr64FACC6OcjesxngAdu2bbvxxhuNbQAAAAAAAABEhDVrAwAR4iB7z2aAN1RXV69Zs2bEiBG5ubk5OTnif3syMzNvvvlmPhkAAAAAAIhW6sSruhYAgOjmIHvPZoAHmH+8ory8/Ac/+EHPnj0HDBjAfgCikud+rQWA5lhVAH3wPGqImwLNqdP96logHFg2I4XIu4t42vJcWBxk79kM8IDi4mJLifFBgczMzOzsbPYDEE0CJzwAhIJVBdAHz6OGuCnQnDrdr64FwoFlM1KIvLuIpy3PhcVB9p7NAA9QTMTy8vJZs2b16dOH/QBEDcWEBwAHWFUAffA8aoibAs2p0/3qWiAcWDYjhci7i3ja8lxYHGTv2QzwgMtOxOrq6tLSUp/PZ60APOiyEx4ArgirCqAPnkcNcVOgOXW6X10LhAPLZqQQeXcRT1ueC4uD7D2bAR7guYkIhIIJD8BdrCqAPngeNcRNgebU6X51LRAOLJuRQuTdRTxteS4sDrL3bAZ4gOd+vAIIBRMegLtYVQB98DxqiJsCzanT/epaIBxYNiOFyLuLeNryXFgcZO/ZDAAAAAAAADpSp/vVtQAARDcH2Xs2AwAAAAAAgI7U6X51LQAA0c1B9p7NAAAAAAAAoCN1ul9dCwBAdHOQvWczAAAAAAAA6Eid7lfXAgAQ3Rxk79kM8ADP/XgFEAomPAB3saoA+uB51BA3BZpTp/vVtUA4sGxGCpF3F/G05bmwOMjesxngAcXFxdYiIHox4QG4i1UF0AfPo4a4KdCcOt2vrgXCgWUzUoi8u4inLc+FxUH2ns0AD/DcRPSQXbt2JSQkNDU1yZdLlixJTU0VJWvWrDGXO2PpXCvG2Hbu3Cke83PnzllbRA4THoC7WFUAffA8aoibAs2p0/3qWiAcWDYjhci7i3ja8lxYHGTv2QzwANuJKHO4Ca2Sk5NHjx79+eefWxtdRRrmlK+Uz+eLiYkpLy+3VrSZF4Og4ZhtJzwAOMaqAuiD51FD3BRoTp3uV9cC4cCyGSlE3l3E05bnwuIge89mgAfYTkRzDrempmbGjBn9+vWzNrqKNMwpX9b58+fNLz/77LMQL8GLQdBwzLYTHgAcY1UB9MHzqCFuCjSnTvera4FwYNmMFCLvLuJpy3NhcZC9ZzPAA2x/vMKSw/3d734XGxtr1NbV1c2YMSM1NTUlJWX69OmNjY2y/Pjx43fffXd8fHxeXt7zzz8verhw4YKlK/lSlCv6Wb58eVZWVlxcXGZmpnhOampqxHG7S59UePHFF2Uzc4fr1q3r3bu3aDZ48OCKigpZZdv/+vXrc3JyZINFixaJcw8dOiSOy8vLk5OT5cAMK1euHDBggPHy8OHD11xzzZEjR/xBOpeDefXVV8VbdOjQYceOHfLaN2zYYFxCRkaGOSb19fWPPfZYenq6qMrNzd29e7coLCkpEZeTmJgoOp84cWJVVVVgEMydnDx5UjRLSkrq0qXLnDlz5D6EIjJmigt56623xJDEDR0yZIg4d+PGjeLOiq4GDRpkfFIkcKjG6WJsGm4G2E54AHCMVQXQB8+jhrgp0Jw63a+uBcKBZTNSiLy7iKctz4XFQfaezQCvMudwz5w5873vfe+2224zagsLCydMmFBbW1tXV3fXXXfNnTtXlhcUFEycOLGhocHn8w0dOrTd5TYDbPs5cuSIaLBlyxZxLKr27t1rnGWbU5ZVU6dOra6ubmpqmjZt2vDhw2WVbf+iWWxsbGVlpTgWLXNyclavXi2On3322bFjx5o6/l9ff/11x44dZYJeWLx4sbhGeWzbuRzM5MmTRfnZs2fNww52LCI2cuTIY8eOieMDBw4cPXpUHLzzzjsHDx70t2b5RedyYLaRlC9FGyPy/fv3X7BggdHANjJmigt58MEHRQTEudOnT8/Ozn7ooYeMl7fffrs8XT1UxY0DAAAAgMhSp/vVtQAARDcH2Xs2A7xK5nBTUlISExPFQXZ29vHjx2XV6dOnY2Ji9u/fL1++9957aWlp4qCqqkq03Ldvnyx/88032yk3A4L1c+LEidjY2JUrV9bU1Mgq4yzbnLKsksl9Yfv27e3bt/cHH6cwdOjQl19+uba2VlygOLj//vtFYX5+vu1sfOCBB+bNmycOWlpaRBxKS0v9wTuXgzlw4IAsD7YBYByfOnVKHOzZs0e2t7Vt27a4uDh/QBCMl5bIv/766/LfrMEiY6a+EOPcjz/+WLw05oB4GdiV326oihsHAAAAAJGlTverawEAiG4OsvdsBniVkcNtaWnZsWNHly5dFi9eLKv27NnTrnWfQEpOTu7UqVNzc/Pu3btFeUNDg2z2ySeftFNuBgTrx9/6TT75+fmJiYkjRoz48MMPzeORnZg56H/hwoVTpkzZuHHjmDFjqqqqUlNT6+vrO3bs+MUXX/xF1602bdqUlpb2zTffbNmyRfRz9uxZf/Ag2A5GsRkg+zGCZhARGDZsWOfOnUXPcj/m4sWLwToPjHxMTIy5gbm95XuQruhCjHPNL9VDVdw4AAAAAIgsdbpfXQsAQHRzkL1nM8CrLDncl156qVOnTidOnBDHPp+vnemPxA3BPhlQUVEhDk6fPi3L//M//1OWB+vH0NTU9PTTT3fp0kUcf/rpp8FyysHS1or+t27dmpGRMXv27Oeee068zMvLe+aZZzIzM63tWl28eDErK2v9+vUPP/zwo48+KguDdW47GMVmgPxkgPwqJIP8bMTatWtFBPyto5VXZAmC0Ykl8m+88Yb5kwGBkZEvpSu6kMDNgGBDZTMAAAAAgP7U6X51LQAA0c1B9p7NAA+w/fEKSw73woULOTk5TzzxhHw5bty4qVOnnjlzxt+6B7B582ZZnp+fX1hY2NjYePLkyWHDhsm8sOgkJSXlpz/96cWLF48ePTpixAgjrWzbz+HDh8XB+fPnm5ubly1blp6e7r/0QwK2f7mvSFvb9u9v3WaIi4tLTk6WWfjHH39cHE+bNu3/egywcOHCUaNGxcfHl5eXG4W2ndsORrEZII4nTZok4ibT8fI3Aw4dOiRqN23aJEoqKyvFW8srsgTB3ElBQYER+YEDB86fPz/YYCybAf4ruZDAzYBgQ9V5M8B2wgOAY6wqgD54HjXETYHm1Ol+dS0QDiybkULk3UU8bXkuLA6y92wGeEBxcbG1KCAXLLz22msJCQnyD/xra2sfeeSRtLS0xMTEXr16LV++XLY5duxYQUFBfHx8Xl7e888/b6SP33777Z49e4ryYcOGvfTSS0a5bT/79+8XzZKSkuLi4gYNGiS/JkiYNWuW/CqbVatWyRJJkba27V8aPXp0enp6S0uLOH733XfFKa+88opRa/Hll1+KBn379jUX2nZuO5jADQDzcV1dndFPbm6u/P2ApUuXdu3aVZQMHTq0pKTEuCJzEMydVFVVjR8/XgQtNTVVtJF/p287mMDNgLZfSOBmgD/IUHXeDLCd8ADgGKsKoA+eRw1xU6A5dbpfXQuEA8tmpBB5dxFPW54Li4PsPZsBHhCmiRgs9QxEVpgmPIC/WqwqgD54Hq8an89XWlpaXV1trQjATYHm1Ol+dS0QDiybkULk3UU8bXkuLA6y92wGeECYJiKbAdBTmCY8gL9arCqAPnger6aysrKbb755+vTp5i/SDMRNgebU6X51LRAOLJuRQuTdRTxteS4sDrL3bAZ4QJgmIpsB0FOYJjyAv1qsKoA+eB6vso8++igrK6t79+6DBg0qKSmx/aAANwWaU6f71bVAOLBsRgqRdxfxtOW5sDjI3rMZ4AGe+/EKIBRMeADuYlUB9MHzePV99NFHN9xwQ7du3bKzs8VB4AcFuCnQnDrdr64FwoFlM1KIvLuIpy3PhcVB9p7NAAAAAACIWsZ+gHTjjTcqPigA6Ead7lfXAgAQ3Rxk79kM8ADjH+4AAAAAEKLc3Fzx3169em3bts36/z0AzXRTpvvVtQAARDcH2Xs2AwAAAAAgapWUlHTv3r1bt2433HDD6NGjv/3tb99xxx1r1qzhkwHwBHW6X10LAEB0c5C9ZzMAAAAAAKKT3AnIzc0dPXp0Tk7O7NmzLb8ZAGhOne5X1wIAEN0cZO/ZDPAAz/14BRAKJjwAd7GqAPrgebzK1qxZc91112VmZio+CsBNgebU6X51LRAOLJuRQuTdRTxteS4sDrL3bAZ4QHFxsbUIiF5MeADuYlUB9MHzeDWVlZX17t37sh8F4KZAc+p0v7oWCAeWzUgh8u4inrY8FxYH2Xs2AzzAcxMRCAUTHoC7WFUAffA8XjU+n6+0tNT2owAW3BRoTp3uV9cC4cCyGSlE3l3E05bnwuIge89mgAd4biICoWDCA3AXqwqgD55HDXFToDl1ul9dC4QDy2akEHl3EU9bnguLg+w9mwEe4LmJCISCCQ/AXawqgD54HjXETYHm1Ol+dS0QDiybkULk3UU8bXkuLA6y92wGeIDnfrwCCAUTHoC7WFUAffA8aoibAs2p0/3qWiAcWDYjhci7i3ja8lxYHGTv2QwAAAAAAAA6Uqf71bUAAEQ3B9l7NgMAAAAAAICO1Ol+dS0AANHNQfaezQAAAAAAAKAjdbpfXQsAQHRzkL1nMwAAAAAAAOhIne5X1wIAEN0cZO/ZDPAAz/14BRAKJjwAd7GqAPrgedQQNwWaU6f71bVAOLBsRgqRdxfxtOW5sDjI3rMZ4AHFxcXWIiB6MeEBuItVBdAHz6OGuCmBdu3alZCQ0NTUJF8uWbIkNTVVlKxZs8Zc7oylc2d27twp/q/6uXPnLtub0dJa8ZeKiopWrFhhLXVJiJ2r0/3qWiAcWDYjhci7i3ja8lxYHGTv2QzwAM9NRCAUTHgA7mJVAfTB86ghxU3Zs2fPd7/73fT09ISEhLS0tDFjxrz99tvWRuHXxnR2mPh8vpiYmPLycmtFm4Vj/G3vsy0tKyoqMjMzz58/b61wSWVlZWpqam1trbWibdTpfnUtEA6KZRNhReTdRTxteS4sDrL3bAZ4gOcmIhAKJjwAd7GqAPrgedRQsJvy0UcfJSUlPffcc2fOnBEv6+rq1q1b9+ijj1rbuUSRiW5LOttFlpF89tlnIb57OMbf9j7b0nLmzJlPPvmktdRV99xzj+PEgjrdr64FwiHYsolwI/LuIp62PBcWB9l7NgM8wHMTEQgFEx6Au1hVAH3wPGoo2E3p16/fkiVLrKWX1NXVzZgxIzU1NSUlZfr06Y2Njf5Leed169b17t07Li5u8ODBFRUVl23/6quv5uTkdOjQ4cKFCyUlJeLcxMRE0WzixIlVVVU1NTWiK9EsodWLL74YrDezlStXDhgwwHh5+PDha6655siRI/4g51pGsmPHDplA37Bhg/HuGRkZ5sR6fX39Y489Jj82kZubu3v3blHYlvGbOzl58qRolpSU1KVLlzlz5sh9CEUYDUYnloPAs8xvJ0p69Ohh+caelpYWcRWbN2829xzYjz9I6NavXy+CJhssWrRInHvo0CFxXF5enpycLO6prFq2bNmdd94pj6+UOt2vrgXCIdiyiXAj8u4inrY8FxYH2Xs2AzzAcz9eAYSCCQ/AXawqgD54HjVke1O++uorI6trq7CwcMKECbW1tXV1dXfdddfcuXP9l/LIU6dOra6ubmpqmjZt2vDhwy/bfvLkyaL87NmzouSdd945ePCgvzVLLpqNHTvWaGb+23bb3sy+/vrrjh07ygS9sHjx4oKCAnlse65lJOZ3DHY8ceLEkSNHHjt2TBwfOHDg6NGj/raN3/xStBH9NDQ0+Hy+/v37L1iwwGhgG0ZDsM2AwLOMBh988EG3bt02bNhg6UqMXDQ4fvy4fBmsH3+Q0IlmsbGxlZWV4li0zMnJWb16tTh+9tln5eVL77//fkpKivHyiqjT/epaIBxsl01cBUTeXcTTlufC4iB7z2YAAAAAAOD/27Nnj/h/gvX19fLl+vXrU1JSkpOTO3bsePHixdOnT8fExOzfv1/Wvvfee2lpaf5LeWSZFxa2b9/evn17caBuf+DAAVlusW3btri4OH9AMj1YbxYPPPDAvHnz/K1/+Z6dnV1aWuoPfq5lJME2AIzjU6dOiQMRJdneVrDxGy+rqqrEwb59+2T566+/LvPawcJoFmwzIPAsWf7CCy9kZmbu2LHjL3pptXfv3namex2sn2ChE4YOHfryyy/X1taKSSIO7r//flGYn59vziSUlZWJbpubm42StlOn+9W1AABENwfZezYDAAAAAAD/n+0nA2Sa+MKFC3KrIOWS5OTkTp06NTc322a9297e37rrMGzYsM6dO4s2iYmJovbixYuWZsF6MzqRNm3alJaW9s0332zZskU0k588CHau7cgVmwGyn4aGBtMb/q+2jN94uXv3bnMnn3zySUxMjLmBub3xfTvmwsDNgMCz5EFGRsYTTzxh7sFg+8mAwH6ChU60Wbhw4ZQpUzZu3DhmzJiqqqrU1NT6+vqOHTt+8cUXxrvwyQAAAMLBQfaezQAAAAAAwF/o27ev5TcDjLywz+czp48tDQLzyG1sf+LEidjY2LVr1zY1NYmXW7dulad/+umn5mbBerO4ePFiVlbW+vXrH374YeN3j4OdaztyxWaA/GTA3r17zZ20cfxGJ5ZPBrzxxhvmTwYEhlG+NBe2fTNAvEvPnj2feuopcydSS0tL165dLb8ZENhPsND5W680IyNj9uzZzz33nHiZl5f3zDPPZGZmmtsUFxfn5+ebS9pOne5X1wIAEN0cZO/ZDAAAAAAA/IVt27YlJiY+99xzZ86cES+bmppWrVplZKXHjRs3depUWVVVVSVTycHyyG1sf+jQIfFy06ZN4riysnLUqFHy9CNHjogD85+Z2/YWaOHChaKT+Pj48vJyo9D2XNuRKzYDxPGkSZPy8/Nlclz+ZkAbx2/upKCgoLCwsLGx8eTJkwMHDpw/f36wwYS4GSDKv/rqqz59+sybN6+lpcXclVBUVCR/rsCvfHfb0Plb50ZcXFxycrLcHXn88cfF8bRp02StdO+991p+uLjt1Ol+dS0AANHNQfaezQAP8NyPVwChYMIDcBerCqAPnkcNKW7Krl27CgsLu3btmpiYKP573333bdy4UVbV1tY+8sgjaWlpoqpXr17Lly/3K/PIbWkvLF26VL7d0KFDS0pKjNNnzZolv51m1apVwXoL9OWXX4oe+vbtay60Pdd25IEbAObjuro6o5/c3Fz5+wFtGb+5k6qqqvHjxyclJaWmpoo28iMFtoMJfTNAFJ46dWrQoEHf//73Ld+qtHfv3qysrPPnz5t7tvTjDxI6afTo0enp6XKb4d133xWnvPLKK0bt0aNHxQXW1NQYJVdEne5X1wLhoFg2EVZE3l3E05bnwuIge89mgAcUFxdbi4DoxYQH4C5WFUAfPI8a4qbA3/rhAMd/uX9ZM2fO/NnPfmYp9Pl8paWl1dXVlvJA6nS/uhYIB5bNSCHy7iKetjwXFgfZezYDPMBzExEIBRMegLtYVQB98DxqiJuCSCkrK8vJyXn00UfN3+MUSJ3uV9cC4cCyGSlE3l3E05bnwuIge89mgAd4biICoWDCA3AXqwqgD55HDXFTEEEffPBBZmZm9+7db7311jVr1th+UECd7lfXAuHAshkpRN5dxNOW58LiIHvPZoAHeG4iAqFgwgNwF6sKoA+eRw1xUxBZH3zwwXXXXdetW7fevXv36NEj8IMC6nS/uhYIB5bNSCHy7iKetjwXFgfZezYDPMBzP14BhIIJD8BdrCqAPngeNcRNQcQZ+wHCDTfccMstt5g/KKBO96trgXBg2YwUIu8u4mnLc2FxkL1nMwAAAAAA/krJDCyglezsbPHfXr16bdu2rZsy3a+uBQAgujnI3rMZAAAAAAAAIuNXv/pVZmam3AYYMmTIgAEDRo4cyScDAAC4LAfZezYDAAAAAABABMidgOzs7Ntuu+2mm26aPXs2vxkAAEAbOcjesxkAAAAAAACutl/96ldZWVmZmZnmjwJYqNP96loAAKKbg+w9mwEe4LkfrwBCwYQH4C5WFUAfPI8a4qYgUsrKym655ZbAjwJYqNP96logHFg2I4XIu4t42vJcWBxk79kM8IDi4mJrERC9mPAA3MWqAuiD51FD3BREhM/nKy0ttf0ogIU63a+uBcKBZTNSiLy7iKctz4XFQfaezQAP8NxEBELBhAfgLlYVQB88jxripkBz6nS/uhYIB5bNSCHy7iKetjwXFgfZezYDPMBzExEIBRMegLtYVQB98DxqiJsCzanT/epaIBxYNiOFyLuLeNryXFgcZO/ZDPAAz01EIBRMeADuYlUB9MHzqCFuCjSnTvera4FwYNmMFCLvLuJpy3NhcZC9ZzPAAzz34xVAKJjwANzFqgLog+dRQ9wUaE6d7lfXAuHAshkpRN5dxNOW58LiIHvPZgAAAAAAANCROt2vrgUAILo5yN6zGQAAAAAAAHSkTverawEAiG4OsvdsBgAAAAAAAB2p0/3qWgAAopuD7D2bAQAAAAAAQEfqdL+6FgCA6OYge89mgAd47scrgFAw4QG4i1UF0AfPo4a4KdCcOt2vrnXXzp0727Vrd+HCBWtFCHbt2pWQkNDU1CRfLlmyJDU1VZSsWbPGXO6MpXOtGGOTUT137py1hd9fVFS0YsUKa6lLQumcZTNSiLy7iKctz4XFQfaezQAPKC4uthYB0YsJD8BdrCqAPngeNcRNgebU6f5gtWVlZbfddltcXFxycnL//v1//etfW1tcuXBsBpj5fL6YmJjy8nJrRZspEuvaCjbmioqKzMzM8+fPW8rdUllZmZqaWltba61oA5bNSCHy7iKetjwXFgfZezYDPMBzExEIBRMegLtYVQB98DxqiJsCzQVL90u2tQ0NDd/61reWLl3a1NTU3Ny8c+fOjz76yNroyrm+GWDJdH/22We2afG2C5ZY11mwMc+cOfPJJ5+0FLrrnnvucZbvYtmMFCLvLuJpy3NhcZC9ZzPAAzw3EYFQMOEBuItVBdAHz6OGuCnQnG2632Bbu3fv3nbt2p05c8Za4ffX1dXNmDEjNTU1JSVl+vTpjY2N/kv56HXr1vXu3TsuLm7w4MEVFRWy/fHjx+++++74+Pi8vLznn38+cDNg5cqVAwYMMF4ePnz4mmuuOXLkiF/5Xq+++mpOTk6HDh127NghU+EbNmwQby2OExISMjIyzCny+vr6xx57LD09XVTl5ubu3r1bFJaUlIjRJiYmis4nTpxYVVVVU1Nj9CC8+OKL5k5OnjwpmiUlJXXp0mXOnDlyH0Jx4WaKC3nrrbfEkER8hgwZIs7duHGjCJToatCgQZ9//rk8PXCoxulibLabAS0tLeJ6N2/eLF8qxmk7tvXr14vwygaLFi0S5x46dEgcl5eXJycnG3dw2bJld955pzy+IiybkULk3UU8bXkuLA6y92wGeIDnJiIQCiY8AHexqgD64HnUEDcFmrNN9xtsaxsbG7t27fqd73xn48aNJ06cMFcVFhZOmDChtra2rq7urrvumjt3rv9Srnnq1KnV1dVNTU3Tpk0bPny4bF9QUDBx4sSGhgafzzd06NDAzYCvv/66Y8eOMkEvLF68WJwijxXvNXnyZFF+9uxZcyo82LEYwMiRI48dOyaODxw4cPToUXHwzjvvHDx40N+a5Redjx071nKW5aVoY1xI//79FyxYYDSwvXAzxYU8+OCDIgLi3OnTp2dnZz/00EPGy9tvv12erh6q7WaAuEZRePz4cflSMU7bsYlmsbGxlZWV4li0zMnJWb16tTh+9tln5btL77//fkpKivGy7Vg2I4XIu4t42vJcWBxk79kM8ADP/XgFEAomPAB3saoA+uB51BA3BZqzTfcbgtXu37+/qKioR48e7dq1u/XWW7/44gtRePr06ZiYGFEl27z33ntpaWn+S7lmmTsWtm/f3r59e3FQVVUlyvft2yfL33zzzXYBmwHCAw88MG/ePH/r37NnZ2eXlpb6L/deBw4ckOXBNgCM41OnTomDPXv2yPa2tm3bFhcX5w++GWC5kNdff13GLdiFm6kvxDj3448/bmdK34uXgV357YZquxkgP9tRX18vXwYbZ7CxCUOHDn355Zdra2tTUlLEwf333y8K8/PzzQmusrIy0W1zc7NR0kYsm5FC5N1FPG15LiwOsvdsBgAAAAAAAB0FS/dL6lrhq6++mjBhQr9+/cTxnj172rVrl3JJcnJyp06d5I8KBObQL1y4sHv3bnHQ0NAgyz/55BNZbnQubdq0KS0t7ZtvvtmyZYvo9uzZs/4rfC/FZoDsxxiDYf369cOGDevcubPoOTExUbS5ePFisM4DLyQmJsbcwNzecoFXdCHGueaX6qHabgbYfjIg8L2CjU20Wbhw4ZQpUzZu3DhmzJiqqqrU1NT6+vqOHTvKbSHJ8ScDAEAfDrL3bAYAAAAAAAAdqdP96lpp+/bt11xzjTjw+XzmFLMhWK65jZ8MuHjxYlZW1vr16x9++OFHH31UFl7Reyk2A+QnA/bu3Wvu5MSJE7GxsWvXrm1qahIvt27dKgf26aef2nZuuZA33njD/MmAwAuXL6UrupDAzYBgQ1VvBrS0tHTt2tXymwGB7xVsbP7WN8rIyJg9e/Zzzz0nXubl5T3zzDOZmZnmNsXFxfn5+eYSAPAcB9l7NgMAAAAAAICO1Ol+29o///nPxcXF8kv2a2pqpk2bduutt8qqcePGTZ06Vf62cFVVlUw3B8s1+1u/WKawsLCxsfHkyZPDhg0LzJVLCxcuHDVqVHx8fHl5uVHY9vdSbAaI40mTJolhyJS3/M2AQ4cOidpNmzaJksrKSvHWcmBHjhwRB8Yfv5s7KSgoMC5k4MCB8+fPDzaYwAts+4UEbgYEG6p6M0AoKiqSP2zgV76X7diEpqamuLi45ORkuY/y+OOPi2MxE2StdO+9965YscJcAgCe4yB7z2YAAAAAAADQkW2632Bbe+rUqfvvv7979+7x8fGdO3ceP3784cOHZVVtbe0jjzySlpaWmJjYq1ev5cuX+5W55mPHjhUUFIh+8vLynn/+edtcufDll1+Kqr59+5oL2/5egRsA5uO6ujqjn9zcXPn7AUuXLu3atasoGTp0aElJiTGwWbNmye/MWbVqlbmTqqoqEYekpKTU1FTRRv6dvu1gAi+w7RcSuBngDzLUy24G7N27Nysr6/z580Zvtu9lOzZp9OjR6enpLS0t4vjdd98Vp7zyyitG7dGjR0UoampqjBIA8CIH2Xs2AzzAcz9eAYSCCQ/AXawqgD54HjXETYHmbNP9BnUtPK2oqCh8f7k/c+bMn/3sZ5ZCn89XWlpaXV1tKbdg2YwUIu8u4mnLc2FxkL1nM8ADiouLrUVA9GLCA3AXqwqgD55HDXFToDl1ul9dC1ypsrKyXr16zZ492/yNTxYsm5FC5N1FPG15LiwOsvdsBniA5yYiEAomPAB3saoA+uB51BA3BZpTp/vVtYADv/71rzNb3XbbbWvWrAn8oADLZqQQeXcRT1ueC4uD7D2bAR7guYkIhIIJD8BdrCqAPngeNcRNgebU6X51LeCM3A/IysoaMmTIjTfeaPmgAMtmpBB5dxFPW54Li4PsPZsBHuC5iQiEggkPwF2sKoA+eB41xE2B5tTpfnUt4JjcD+jWqk+fPnl5ecYHBVg2I4XIu4t42vJcWBxk79kM8ADP/XgFEAomPAB3saoA+uB51BA3BZpTp/tlrha4CuTeQK9evVauXGmdiLgq+B8sdxFPW54Li4PsPZsBAAAAAABAR90utxlgLQLc8Pbbb2dlZcltgJycnNzc3BEjRtj+hAAARJCD7D2bAQAAAAAAQEfqdL+6FnBG7gR07959wIABPXv2/MEPfmD+zQAA0IeD7D2bAQAAAAAAQEfqdL+6FnDg7bffzmzFRwEA6M9B9p7NAAAAAAAAoCN1ul9dC1ypsrKyXr168VEAAF7hIHvPZoAHeO7HK4BQMOEBuItVBdAHz6OGuCnQnDrdr64FrojP5ystLb3sRwFYNiOFyLuLeNryXFgcZO/ZDPCA4uJiaxEQvZjwANzFqgLog+dRQ9wUaE6d7lfXAuHAshkpRN5dxNOW58LiIHvPZoAHeG4iAqFgwgNwF6sKoA+eRw1xU6A5dbpfXQuEA8tmpBB5dxFPW54Li4PsPZsBHuC5iQiEggkPwF2sKoA+eB41xE2B5tTpfnUtEA4sm5FC5N1FPG15LiwOsvdsBniA5yYiEAomPAB3saoA+uB51BA3BZpTp/vVtUA4sGxGCpF3F/G05bmwOMjesxngAZ778QogFEx4AO5iVQH0wfOoIW4KNKdO96trgXBg2YwUIu8u4mnLc2FxkL1nMwAAAAAAAOhIne5X1wIAEN0cZO/ZDAAAAAAAADpSp/vVtQAARDcH2Xs2AwAAAAAAgI7U6X51LQAA0c1B9p7NAAAAAAAAoCN1ul9dCwBAdHOQvWczwAM0/PGKXbt2JSQkNDU1WSuuIssYlixZkpqaKkrWrFkT+th0uMBgjLHt3LlTPKHnzp2ztvD7i4qKVqxYYS11SVg792s54QF4GqsKoA+eRw1xU6A5dbpfXQuEA8tmpBB5dxFPW54Li4PsPZsBHlBcXGwtuhyZJk5olZycPHr06M8//9zaKIr4fL6YmJjy8nJrRZspEuvaCjbmioqKzMzM8+fPW8rdUllZmZqaWltba61wiYMJDwAKrCqAPngeNcRNgebU6X51LRAOLJuRQuTdRTxteS4sDrL3bAZ4gIOJaE4T19TUzJgxo1+/ftZGXmbJdH/22We2afG2C5ZY11mwMc+cOfPJJ5+0FLrrnnvuCd/K4GDCA4ACqwqgD55HDXFToDl1ul9dC4QDy2akEHl3EU9bnguLg+w9mwEe4GAiWtLEv/vd72JjY43aurq6GTNmpKampqSkTJ8+vbGxUZbX19c/9thj6enpCQkJubm5u3fvDtbY6H/lypUDBgwwej58+PA111xz5MiRYCeaXem58k1fffXVnJycDh067NixQ45hw4YNcXFx8pMQGRkZ5mu3vaKSkpLevXsnJiaKzidOnFhVVVVTU2P0ILz44ovmTk6ePCmaJSUldenSZc6cOXIfQjZYt26d6EqcO3jw4IqKCuNaDIoLeeutt8SQ4uPjhwwZIs7duHFjXl6e6GrQoEHGxzgCh2qcLsZmuxnQ0tIirnfz5s3ypWKctmNbv369CK9ssGjRInHuoUOHxHF5eXlycvKFCxdk1bJly+6880557DoHEx4AFFhVAH3wPGqImwLNqdP96logHFg2I4XIu4t42vJcWBxk79kM8AAHE9GcJj5z5sz3vve92267zagtLCycMGFCbW1tXV3dXXfdNXfuXFk+ceLEkSNHHjt2TBwfOHDg6NGjwRob/X/99dcdO3aUSXZh8eLFBQUF6ncxXOm58k0nT54sys+ePWu+xmDHtlf0zjvvHDx40N+a5Redjx071nKW5aVoI/ppaGjw+Xz9+/dfsGCB0WDq1KnV1dVNTU3Tpk0bPny4PNdMcSEPPvigiIA4d/r06dnZ2Q899JDx8vbbb5enq4dquxkgrlEUHj9+XL5UjNN2bKJZbGxsZWWlOBYtc3JyVq9eLY6fffZZ+e7S+++/n5KSYrx0l4MJDwAKrCqAPngeNcRNgebU6X51LRAOLJuRQuTdRTxteS4sDrL3bAZ4gIMfr5Ap4JSUlMTERHGQnZ1tZIdPnz4dExOzf/9++fK9995LS0sTB6dOnRIt9+zZY3SiaGxOQz/wwAPz5s3zt/5Nunij0tJSxYkWV3SufNMDBw7I8mAbAMax7RVZbNu2LS4uzh98M6Cqqkoc7Nu3T5a//vrr8p+bsoFMmgvbt29v3769PDaoL8Q49+OPP25nSt+Ll4Fd+e2GarsZsHfvXlFYX18vXwYbZ7CxCUOHDn355Zdra2vF/BEH999/vyjMz883LwVlZWWi2+bmZqPERQ4mPAAosKoA+uB51BA3BZpTp/vVtUA4sGxGCpF3F/G05bmwOMjesxkQnYw0cUtLy44dO7p06bJ48WJZtWfPnnat+wRScnJyp06dmpubZXlDQ4O5n2CNzWnoTZs2paWlffPNN1u2bBFtzp49qzjR3PmVnhssXx/s2PaK/K3fhDNs2LDOnTuLnuVmycWLF4N1vnv3bnMnn3zySUxMjLmBub3xLTrSFV2Ica75pXqotpsBtp8MCHyvYGMTbRYuXDhlypSNGzeOGTOmqqoqNTW1vr6+Y8eOX3zxhfEuYf1kAAAAAABI6nS/uhYAgOjmIHvPZkB0sqSAX3rppU6dOp04cUIc+3w+c7LYIP+Ofu/evebCYI3N/V+8eDErK2v9+vUPP/zwo48+KhsEO9Hiis61zWsrNgNsr0gEITY2du3atU1NTeLl1q1bZXL8008/te3c8smAN954w/zJgMAku3wpXdGFBG4GBBuqejOgpaWla9eult8MCHyvYGPzt75RRkbG7Nmzn3vuOfEyLy/vmWeeyczMNLcpLi7Oz883lwAAAACA69TpfnUtAADRzUH2ns2A6GRJAV+4cCEnJ+eJJ56QL8eNGzd16tQzZ86I46qqKiNxPGnSpPz8fJkgNr5h37axpf+FCxeOGjUqPj6+vLxclgQ7MVDbz7XNays2A/x2V3To0CFRu2nTJlFSWVkp3lomx48cOSIOjD9+N3dSUFBQWFjY2Nh48uTJgQMHzp8/P9hgLJsB/iu5kMDNgGBDVW8GCEVFRfKHDfzK97Idm9DU1BQXF5ecnCz3UR5//HFxPG3aNFkr3XvvvStWrDCXAAAAAIDr1Ol+dS0AANHNQfaezYBoUF1dXVpa6vP5jJLANPFrr72WkJBw+vRpcVxbW/vII4+kpaUlJib26tVr+fLlsk1dXZ1RnpubK79t37axpf8vv/xSvOzbt+//vVkr2xMDtf1c27x24AaA+dj2ipYuXdq1a1dRMnTo0JKSEiM5PmvWLPmdOatWrTJ3UlVVNX78+KSkpNTUVNFG/p2+7WACNwPafiGBmwH+IEO97GbA3r17s7Kyzp8/b/Rm+162Y5NGjx6dnp7e0tIijt99911xyiuvvGLUHj16VISipqbGKAEAAACAcFCn+9W1AABENwfZezYDPEDx4xXl5eUzZ87s06dPWVmZtQ5/xYqKisL3l/tiyonFwVrqHsWEBwAHWFUAffA8aoibAs2p0/3qWiAcWDYjhci7i3ja8lxYHGTv2QzwgOLiYktJdXV1SUnJoEGDunfv3qNHD3YCEE0CJzwAhIJVBdAHz6OGuCnQnDrdr64FwoFlM1KIvLuIpy3PhcVB9p7NAA8wT8Ty8vLp06ffcMMN2dnZPXr06N27NzsBiDKeW3kBaI5VBdAHz6OGuCnQnDrdr64FwoFlM1KIvLuIpy3PhcVB9p7NAA8QE9H4KMCNN97YrdVNN93ETgCikudWXgCaY1UB9MHzqCFuCjSnTvera4FwYNmMFCLvLuJpy3NhcZC9ZzPAA2bPnt2jRw+5BwAAAAAAAIBIsWZtcFV4LkurOeJpy3NhcZC9ZzPAA37/+99XV1cvXLgwJyene/fu8n977rjjjr59+/LJAEQfz/1aCwDNsaoA+uB51BA3BZpTJ17VtUA4sGxGCpF3F/G05bmwOMjesxngMb/97W9Hjx6dmZkp/tEzePBg9gMAAAAAANFKne5X1wIAEN0cZO/ZDPAk8wcFevbsyX4AAAAAACD6qNP96loAAKKbg+w9mwHe9tvf/nby5Ml9+vRhPwAAAAAAEGXU6X51LQAA0c1B9p7NgGhQXV1dWlrq8/msFQAAAAAAeJY63a+uBQAgujnI3rMZ4AGe+/EKIBRMeADuYlUB9MHzqCFuCjSnTvera4FwYNmMFCLvLuJpy3NhcZC9ZzPAA4qLi61FQPRiwgNwF6sKoA+eRw1xU6A5dbpfXQuEA8tmpBB5dxFPW54Li4PsPZsBHuC5iQiEggkPwF2sKoA+eB41xE2B5tTpfnUtEA4sm5FC5N1FPG15LiwOsvdsBniA5yYiEAomPAB3saoA+uB51BA3BZpTp/vVtUA4sGxGCpF3F/G05bmwOMjesxngAZ6biEAomPAA3MWqAuiD51FD3BRoTp3uV9cC4cCyGSlE3l3E05bnwuIge89mgAd47scrgFAw4QG4i1UF0AfPo4a4KdCcOt2vrgXCgWUzUoi8u4inLc+FxUH2ns0AAAAAAACgI3W6X10LAEB0c5C9ZzMAAAAAAADoSJ3uV9cCABDdHGTv2QwAAAAAAAA6Uqf71bUAAEQ3B9l7NgOi0M6dO8WNO3fu3K5duxISEpqamqwtWhnNrBXhZBnSkiVLUlNTRcmaNWsUQ20j9fW2URuj529zAIuKilasWGEtdUlYOwcAAACAyFKn+9W1AABENwfZezYDPEDx4xWffvrp+PHju3TpEh8fn52dPWfOnNOnT7cxSd3GZuHj8/liYmLKy8utFW0Wjktoe59taVlRUZGZmXn+/HlrhUsqKytTU1Nra2utFV6mmPAA4ACrCqAPnkcNcVOgOXW6X10LhAPLZqQQeXcRT1ueC4uD7D2bAR5QXFxsLWr14YcfJiYmihskc8GVlZULFizYtGlTW5LU/rblst1lyYl/9tlnIQ4gHJfQ9j7b0nLmzJlPPvmktdRV99xzT5Q9pMEmPAA4w6oC6IPnUUPcFGhOne5X1wLhwLIZKUTeXcTTlufC4iB7z2aABwSbiHl5eUuWLLGWmpLU5mx1fX39Y489lp6enpCQkJubu3v3bnNtRUVFjx495BfOLF++PCsrKy4uLjMzM/CtV65cOWDAAOPl4cOHr7nmmiNHjojjurq6GTNmpKampqSkTJ8+vbGx0X9pMK+++mpOTk6HDh127Ngh33TDhg3iLcSxGE9GRoZ6qKKwpKSkd+/eiYmJovOJEydWVVXV1NQYPQgvvviiuZOTJ0+KZklJSV26dJkzZ47ch5AN1q1bJ7oS5w4ePFhcuHEtUmD0gp0VLICGlpYWcRWbN2829xzYjz9I6NavXy+CJhssWrRInHvo0CFxXF5enpycfOHCBVm1bNmyO++8Ux5Hh8BZBwChYFUB9MHzqCFuCjSnTvera4FwYNmMFCLvLuJpy3NhcZC9ZzPAA2wn4vHjx43ssEVgOlsUTpw4ceTIkceOHRPHBw4cOHr0qFH7wQcfiH9CbdiwQVQdOXJEFG7ZskUc19bW7t279y/79n/99dcdO3aUCXph8eLFBQUF8riwsHDChAnirLq6urvuumvu3Ln+S4OZPHmyKD979qx5SMGOA4cqDt55552DBw/6W7P8ovOxY8dazrK8FG1EPw0NDT6fr3///gsWLDAaTJ06tbq6uqmpadq0acOHD5fnGgKjF+ws2wCaiZGLBuJOyZfB+vEHCZ1oFhsbW1lZKY5Fy5ycnNWrV4vjZ599Vl6+9P7776ekpBgvo4DthAcAx1hVAH3wPGqImwLNqdP96logHFg2I4XIu4t42vJcWBxk79kM8ADbibhnzx5xd+rr660VdunsU6dOiQNxSmCzF154ITMzc8eOHbLwxIkTsbGxK1eurKmpMTc2e+CBB+bNm+dv/cv37Ozs0tJScXz69OmYmJj9+/fLNu+9915aWpr/0rscOHBAlgfbAFAP1WLbtm1xcXH+4JsBVVVV4mDfvn2y/PXXX5f/RpQNZHpd2L59e/v27eWxITB6wc6yDaDZ3r1725nuUbB+goVOGDp06Msvv1xbW5uSkiIO7r//flGYn59vfirLyspEt83NzUaJ19lOeABwjFUF0AfPo4a4KdCcOt2vrgXCgWUzUoi8u4inLc+FxUH2ns0AD7D98YqvvvpK3J3Dhw9bK+zS2XLnoKGhIbBZRkbGE088YS5fv359fn5+YmLiiBEjPvzwQ3OVtGnTprS0tG+++WbLli0pKSlnz571X9qcSLkkOTm5U6dOzc3NwfL1wY5th+pvHdWwYcM6d+4sehZjE20uXrwYrPPdu3ebO/nkk09iYmLMDcztje/bMRcGbgYEnhUsgAbbTwYE9hMsdKLNwoULp0yZsnHjxjFjxlRVVaWmptbX13fs2PGLL74w3iX6PhlgO+EBwDFWFUAfPI8a4qZAc+p0v7oWCAeWzUgh8u4inrY8FxYH2Xs2AzwsLy/vX/7lX6ylduls+ef2lu/8kbX79u3r2bPnU089Za4Smpqann766S5duljKhYsXL2ZlZa1fv/7hhx9+9NFHZaHP5zMnvg22GXDFZoDtUOXnFdauXStGJV5u3bpVptE//fRT284tnwx44403zJ8MCEzHy5fmwrZvBgQLoL/1kxNdu3a1/GZAYD/BQudvvdKMjIzZs2c/99xz/tY7/swzz2RmZprbFBcX5+fnm0sAAAAAIDqo0/3qWgAAopuD7D2bAR724YcfJiUlrVy5sq6uTrw8duzYwoUL33//fdss9qRJk/Lz82XG2fKbAV999VWfPn3mzZvX0tJy+PDhzZs3nz9/vrm5edmyZenp6ZY3lcQbjRo1Kj4+vry83CgcN27c1KlTz5w5I46rqqpkEtw2A67YDPDbDfXQoUOidtOmTaKksrJSvLVMo8tfODD+TN7cSUFBQWFhYWNj48mTJwcOHDh//vxggwlxM8ASQHNXQlFRkfy5Ar/y3W1D52/dkomLi0tOTpa7I48//rg4njZtmqyV7r33XssPFwMAAABAdFCn+9W1AABENwfZezYDvO3TTz8dN25cly5dEhISsrOz586d+z//8z+2Wey6urpHHnkkLS0tMTExNzd3z5495tpTp04NGjTo+9///p/+9Kdhw4YlJSXFxcWJEtuvCRK+/PJLcW7fvn3NhbW1tcZb9OrVa/ny5f4gGfDADQD1UEXh0qVLu3btKkqGDh1aUlJipNFnzZolv11n1apV5k6qqqrGjx8vLiQ1NVW0kR8psB1M6JsBflMALd/dv3fv3qysrPPnz5t7tvTjDxI6afTo0enp6XKb4d133xWnvPLKK0bt0aNHxQUqfuABAAAAALxLne5X1wJXxOfzlZaWVldXWysAQFcOsvdsBgDhVVRUFL6/3J85c6Z4Tq2lAAAAABAV1Ol+dS1wpcrKynr37j179mzztyAAgLYcZO/ZDPAAz/14BRAKJjwAd7GqAPrgedQQNwWaU6f71bWAAyUlJdddd11mZuYdd9yxZs2awA8KsGxGCpF3F/G05bmwOMjesxngAcXFxdYiIHox4QG4i1UF0AfPo4a4KdCcOt2vrgWcWbFiRffu3fv373/ffffl5ORYPijAshkpRN5dxNOW58LiIHvPZoAHeG4iAqFgwgNwF6sKoA+eRw1xU6A5dbpfXQs4JvcDxATr2bPn3/7t3956663GBwVYNiOFyLuLeNryXFgcZO/ZDPCAbgAAAAAAAIiQ/v37i//26tVr9uzZ1qwNrgrPZWk1RzxteS4sDrL3bAZ4gOcmIhAKJjwAd7GqAPrgedQQNwWa66b82391LeDY9u3bb7jhBmMnoEePHgMGDHjxxRf5ZEAEEXl3EU9bnguLg+w9mwEe4LkfrwBCwYQH4C5WFUAfPI8a4qZAc+p0v7oWcMbYCbjuuuuuv/76hx56yPybASybkULk3UU8bXkuLA6y92wGAAAAAAAAHanT/epawIHt27dnZWV1797d+CiAtQUAaMNB9p7NAAAAAAAAoCN1ul9dC1ypsrKym2++2fJRAADQloPsPZsBAAAAAABAR+p0v7oWuCI+n6+0tJSPAgDwEAfZezYDAAAAAACAjtTpfnUtAADRzUH2ns0AD/Dcj1cAoWDCA3AXqwqgD55HDXFToDl1ul9dC4QDy2akEHl3EU9bnguLg+w9mwEeUFxcbC0CohcTHoC7WFUAffA8aoibAs2p0/3qWiAcWDYjhci7i3ja8lxYHGTv2QzwAM9NRCAUTHgA7mJVAfTB86ghbgo0p073q2uBcGDZjBQi7y7iactzYXGQvWczwAM8NxGBUDDhAbiLVQXQB8+jhrgp0Jw63a+uBcKBZTNSiLy7iKctz4XFQfaezQAP8NxEBELBhAfgLlYVQB88jxripkBz6nS/uhYIB5bNSCHy7iKetjwXFgfZezYDPMBzP14BhIIJD8BdrCqAPngeNcRNgebU6X51LRAOLJuRQuTdRTxteS4sDrL3bAYAAAAAAAAdqdP96loAAKKbg+w9mwEAAAAAAEBH6nS/uhYAgOjmIHvPZgAAAAAAANCROt2vrr06du3alZCQ0NTUJF8uWbIkNTVVlKxZs8Zc7oyl8yhWVFS0YsUKa6lLwto5AESQg+w9mwEAAAAAAEBH6nS/urYtxo0bN23aNEthfn7+7NmzLYVt4fP5YmJiysvLrRVttnPnznbt2p07d85a4XHq66qoqMjMzDx//ry1wiWVlZWpqam1tbXWCgDwOAfZezYDPMBzP14BhIIJD8BdrCqAPngeNcRNgebU6X51bVu8++67cXFx1dXVRsmXX34ZExNTUVFhahWUJX/92WefKVLebaFOmocufAl3NfV1zZw588knn7SWuuqee+5xK7vFshkpRN5dxNOW58LiIHvPZoAHFBcXW4uA6MWEB+AuVhVAHzyPGuKmQHPqdL+6ti2am5tvuOGG559/3ij58Y9/PHz4cHlcV1c3Y8aM1NTUlJSU6dOnNzY2+i/ltV999dWcnJwOHTrs2LFDprk3bNgQFxcnjhMSEjIyMszp7/r6+sceeyw9PV1U5ebm7t69WxSWlJT07t07MTFRdD5x4sSqqqqamhqjB+HFF180d3Ly5EnRLCkpqUuXLnPmzJFpfdlg3bp1oitx7uDBgwO3MSwDvnDhgu11CcePH7/77rvj4+Pz8vJETMRZorEljy9finJ/kPgIy5cvz8rKEuPJzMwUi0zgdclmUktLi4jM5s2b5UvFFdm+3fr168V1yQaLFi0S5x46dEgcl5eXJycny3EKy5Ytu/POO+VxiFg2I4XIu4t42vJcWBxk79kM8ADPTUQgFEx4AO5iVQH0wfOoIW4KNKdO96tr2+if//mf+/XrJ4/Pnz/ftWvXX/ziF/JlYWHhhAkTamtr6+rq7rrrrrlz5/ovZasnT54sys+ePWvOlQc7njhx4siRI48dOyaODxw4cPToUXHwzjvvHDx40N+a5Redjx071nKW5aVoI/ppaGjw+Xz9+/dfsGCB0WDq1KnV1dVNTU3Tpk0zdjIMlgH7g1yXUFBQYLzF0KFDL7sZYNvPkSNHRIMtW7aIY1G1d+9e4yzbTwaIaIiq48ePy5eKK7J9O9EsNja2srJSHIuWOTk5q1evFsfPPvusDKn0/vvvp6SkGC9DwbIZKUTeXcTTlufC4iB7z2aAB/w/9u4FvIribvw4kWsIEAkQJIABL2gsKFgpYltFrGLbV0TwBpX6IFr9C95qKaIiIqIoEVERqmDrBcUbBVFBHwUsWgRUbhaUu4RLAqghCWAQwv7nzZR919nL2bNnkzN78v08efLsmZ2dnf3tzJxzZnJyItcQgUTQ4AGEi1EF0Af9UUPcFGjOe7rfe69PO3bsqFOnzpIlS8T2q6++euyxx8oZ8z179qSlpa1bt05mmzt3bvPmzY2js9UbNmyQ6W4LAOb27t27xcbKlStlfkcLFixIT083bJPm5sPCwkKxsXbtWpku6imvXWaQU+HCokWLxLXIbZNSYbfrUk7x+uuv1/JcDHArZ+fOnbVr1540adLevXvlLvMox8WAVatWiV1lZWXyodsVuZ1O6Nq163PPPVdSUpKZmSk2Lr/8cqPyix+s01mLFy8WxVZUVJgpgTFsJguRDxfxdBS5sASYvWcxIAIi1xCBRNDgAYSLUQXQB/1RQ9wUaM57ut97r399+vS57rrrjMo/jR86dKhMXLlyZa1atTKPatKkSYMGDSoqKhwnxz0WA2Q5+/bt++/Jjpo5c2a3bt2aNm0qSm7UqJHIc/jwYbfCV6xYYS3k008/TUtLs2aw5jf/N4410czjdl32U8ii3E7hVo5ReWk9evQQF9W9e/eFCxfa62Dl+MmAuE43YsSI/v37z549++KLLy4sLMzKyiorK6tfv/6aNWvMs/DJgBRA5MNFPB1FLiwBZu9ZDIiAyH15BZAIGjyAcDGqAPqgP2qImwLNeU/3e+/1b+7cuRkZGcuXL09LS/vyyy9lYlFRkXWS2uQ4W+2xGCA/GSD/W45J/vn8jBkzysvLxcP58+fLKe/PP//csXDlz/Zfe+016ycD7FPn8qE10czjdl1unwxYvXq12NizZ49Mf+edd2S6WzkmcWmjRo1q1qyZ2Fauy+rIkSMtWrRQvjPAfkUepxPRa9my5ZAhQx577DHxsGPHjmPGjMnJybHmyc/P79GjhzUlMIbNZCHy4SKejiIXlgCz9ywGAAAAAAAAHXlP93vv9a+ioiI3N7d9+/bnnHOONb13794DBgz47rvvjMq5cjlh7Thb7bEYILb79u3bo0cPOZEtvzNg06ZNYu+8efNEytatW8877zw55S3/4b75J+3WQnr27NmvX7/9+/fv2rWrc+fOw4YNc6uM92KA4XJdRuW/1jFP0a1bN1mUODAzM3P06NGHDx8WNe/evbt5CsdyNm/eLDYOHjwoojp+/Pjs7Gzj6BcJWP9U32rw4MHyKxAMW22tV+R4OqNy1SE9Pb1JkyZyxeX2228X2wMHDpR7pV69ek2cONGaAgApIMDsPYsBAAAAAABAR97T/d577YqLi6dPn15UVKTuqPy+2Vq1aj3//PPWxJKSkhtuuKF58+aNGjXq0KHDhAkTDJfZavsCgHW7tLTULOe0006T3x8wbty4Fi1aiJSuXbtOmTLFnPK++eab5X/CmTx5srWQwsLCSy+9tHHjxllZWSKP/EiBY2ViLgY4Xpewbdu2nj17NmzYsGPHjk8++aRZ1Jw5c9q3by/Su3XrNnXqVDPdsZx169aJbKKe6enpXbp0kf8myPjpdckU06pVq1q3bn3w4EHDVlvrFTmeTrrwwguzs7OPHDkitt99911xyAsvvGDuLSgoEEGzfocBAKSGALP3LAYAAAAAAAAdeU/3e++1Wrp06ZAhQ/Ly8hYvXqzugxPHdYWqM3jw4Kr7y/3rr7/+8ccfV1MBIPoCzN6zGAAAAAAAAHTkPd3vvdeo/CjAs88+e8455+Tk5OTm5rIS4F81LwYAAAIIMHvPYkAERO7LK4BE0OABhItRBdAH/VFD3BRoznu632Ov/CjACSeccOaZZ7Zu3fqkk05iJSAuLAa4YdhMFiIfLuLpKHJhCTB7z2JABOTn56tJQOqiwQMIF6MKoA/6o4a4KdCcx3S/4bTX/ChAx44d8/LyRIZWrVqxEoAQMWwmC5EPF/F0FLmwBJi9ZzEgsunL/gAAVmFJREFUAiLXEIFE0OABhItRBdAH/VFD3BRoTpnuPy6WE044QfzOyclRdwDhsbZJVBuesMJFPB1FLiwBZu9ZDIiAyDVEIBE0eADhYlQB9EF/1BA3BZpTJl6952HF3v/85z9XXXVVmzZtzHnb6667rmPHjnwyAGFh2EwWIh8u4ukocmEJMHvPYkAERK4hAomgwQMIF6MKoA/6o4a4KdBcvIsBcuPQoUMTJ04844wz5HrA73//e9YDEBaGzWQh8uEino4iF5YAs/csBkRA5L68AkgEDR5AuBhVAH3QHzXETYHmgi0GmMwPCrRq1eqEE05gPQCJY9hMFiIfLuLpKHJhCTB7z2IAAAAAAADQUYKLAZL8oEDfvn3z8vJYDwAApIwAs/csBgAAAAAAAB2FshhgKi4unj59elFRkboDAIAICjB7z2IAAAAAAADQUbiLAQAApJIAs/csBgAAAAAAAB2xGAAAgJsAs/csBkRA5L68AkgEDR5AuBhVAH3QHzXETYHmWAyAbhg2k4XIh4t4OopcWALM3rMYEAH5+flqEpC6aPAAwsWoAuiD/qghbgo0x2IAdMOwmSxEPlzE01HkwhJg9p7FgAiIXEMEEkGDBxAuRhVAH/RHDXFToDkWA6Abhs1kIfLhIp6OIheWALP3LAZEQOQaIpAIGjyAcDGqAPqgP2qImwLNsRgA3TBsJguRDxfxdBS5sASYvWcxIAIi1xCBRNDgAYSLUQXQB/1RQ9wUaI7FAOiGYTNZiHy4iKejyIUlwOw9iwERELkvrwASQYMHEC5GFUAf9EcNcVOgORYDoBuGzWQh8uEino4iF5YAs/csBgAAAAAAAB2xGAAAgJsAs/csBgAAAAAAAB3psBiwfPnyjIyM8vJy+XDs2LFZWVkiZeHChT/J5+Szzz6rVavWDz/8oBRiZ+ZUd4Skisr3vi7vvX4MHjx44sSJampIqrRwAKgGAWbvWQwAAAAAAAA6SnwxoHfv3gMHDlQSe/ToMWTIECXRj6KiorS0tKVLl6o7XPifgvef0yelwLDKD1ZOsKNWr16dk5Nz8OBBdUdItm7dmpWVVVJSou4AgIgIMHvPYgAAAAAAANBR4osB7777bnp6enFxsZmyfv36tLS01atXW3K5Umaiv/jii7gmtf1PgvvP6VMKLAZcf/31f/3rX9XUUF100UXMegGIrgCz9ywGREDkvrwCSAQNHkC4GFUAfdAfNcRNgeYSXwyoqKg4/vjjn3zySTPlL3/5y9lnny23S0tLBw0alJWVlZmZee211+7fv984OnP94osvnnzyyfXq1VuyZImcyJ41a1Z6errYzsjIaNmy5eTJk08//XSz2I0bN9auXfubb74xUwzLJLiy8eabb5566qmitDPPPFMuS1iny0VKu3bt7P/BZsqUKeKoRo0aidpedtllhYWFyoHmw2+//dasqvD000+7ndfwDIKSf+/evY7FyrOXlZXddNNN2dnZYtdpp522YsUKubeoqEg5yk/ojhw5Ior64IMP5EPH+shdjvWfOXOmuH0yw8iRI8WxmzZtEttLly5t0qTJoUOH5K7x48eff/75ctsnhs1kIfLhIp6OIheWALP3LAZEQH5+vpoEpC4aPIBwMaoA+qA/aoibAs0lvhggPPDAA506dZLbBw8ebNGixT/+8Q/5sF+/fn369CkpKSktLb3gggtuueUW4+i881VXXSXSDxw4YJ3vtm6LvRkZGcuWLZNFjRgxolevXnLb5LYYMGDAgOLi4vLy8oEDB8qVCTPD+++/Ly5k1qxZSlHC22+/vXHjRrGxa9cuUdtLLrnEcFkMOHTokGO6/byGZxDs+R2LlQ8vu+yyX//619u2bRPbGzZsKCgosF++PMpP6MTh4pAdO3bIh271MVzqL7LVrl1769atYlvkPPnkk5955hmx/eCDD8q4Se+9915mZqb50A+GzWQh8uEino4iF5YAs/csBkRA5BoikAgaPIBwMaoA+qA/aoibAs2FshiwY8eOOnXqLFmyRGy/+uqrxx577IEDB8T2nj170tLS1q1bJ7PNnTu3efPmxtF55w0bNsh060S2Mqk9ePDgG2+8UWwcPnw4JyfnzTfflOkm+2y43JCT1MKiRYtE3cycTz31lChHVtXbggUL0tPTDVuV5EO3xQD7eb2DYM/vWKx4uHv3brGxcuVKma7sVY4yfIRu1apV4pCysjL50K0+bvUXunbt+txzz5WUlGRmZoqNyy+/3Kj8ugjrNNfixYtFsRUVFWZKTAybyULkw0U8HUUuLAFm71kMiIDINUQgETR4AOFiVAH0QX/UEDcFmgtlMUDo06fPddddJzZ69uw5dOhQmbhy5cpatWplHtWkSZMGDRpUVFS4zXcr28KyZcvEUfv3758zZ052dvaPP/4o00322XDHws25+5YtW/75z3/+aRn/Z+bMmd26dWvatKk4aaNGjUT+w4cPexfoeBXWbHEFwaNYWc6+fftkurJXOcrwETrHTwbY6+NWf6PyAwf9+/efPXv2xRdfXFhYmJWVVVZWVr9+/TVr1phn4ZMBEULkw0U8HUUuLAFm71kMiIDINUQgETR4AOFiVAH0QX/UEDcFmgtrMWDu3LkZGRnLly9PS0v78ssvZWJRUZF1utnkOO/suBggdOnS5fnnn7/00ksdv+rWPhvuWLg5yb527dr27dvfc889Py3mf+3cubN27dozZswoLy8XD+fPny8PXL16tdjYs2ePzPbOO+/I9M8//9x+Ivt54wqCR7HykwGrVq36vyIse5WjJO/QHTlypEWLFsp3Btjr41Z/ozJELVu2HDJkyGOPPSYeduzYccyYMTk5OdY8Ygzs0aOHNSUmhs1kIfLhIp6OIheWALP3LAZEQOS+vAJIBA0eQLgYVQB90B81xE2B5sJaDKioqMjNzW3fvv0555xjTe/du/eAAQO+++47sV1YWCinnh3nnd0WA6ZMmdKpU6e6deuuX7/eTDTZ1wAcC7f+xf327dvz8vJuvfXWI0eOWIvatGmTyDBv3jyxvXXr1vPOO08eKA7JzMwcPXr04cOHCwoKunfvLtO3bNkiNsy/gnc7rxFPELyL7du3b48ePeS8vPKdAcpRknfojMp/JTR8+HC57VYfw6X+Qnl5eXp6epMmTeQSxe233y62Bw4cKPdKvXr1sn9RszeGzWQh8uEino4iF5YAs/csBgAAAAAAAB2FtRhgVH5zbK1atZ5//nlrYklJyQ033NC8efNGjRp16NBhwoQJhsu8s9tiQGlpqTjW7a/L7WsAjoUr/35n9+7dXbp0ue6665T/ZT9u3LgWLVqI03Xt2nXKlCnmbPicOXPat2/fsGHDbt26TZ061Uy/+eab5T/PmTx5stt5jXiC4F2sCIVZzmmnnbZy5UrrXutRskzv0BmVXxvQunXrgwcPGp71cay/dOGFF2ZnZ8tllXfffVcc8sILL5h7CwoKsrKy9u7da6YAQLQEmL1nMQAAAAAAAOgoxMWAKnLkyJH27du//PLL6g7E4id0gwcPjvcv9/27/vrrH3/8cTUVAKIjwOw9iwEAAAAAAEBH+i8GvP766+K88v/4Iy6EDgASFGD2nsUAAAAAAACgI80XA7Kzs8VJ58yZo+5ALIQOABIXYPaexYAIiNyXVwCJoMEDCBejCqAP+qOGuCnQnOaLAaiBGDaThciHi3g6ilxYAszesxgQAfn5+WoSkLpo8ADCxagC6IP+qCFuCjTHYgB0w7CZLEQ+XMTTUeTCEmD2nsWACIhcQwQSQYMHEC5GFUAf9EcNcVOguXgXA5JLrRBSEcNmshD5cBFPR5ELS4DZexYDIiByDRFIBA0eQLgYVQB90B81xE2B5pQZdu8Jd++9VS25Z0e1YdhMFiIfLuLpKHJhCTB7z2JABESuIQKJoMEDCBejCqAP+qOGuCnQHIsB0A3DZrIQ+XART0eRC0uA2XsWAyIgcl9eASSCBg8gXIwqgD7ojxripkBzLAZANwybyULkw0U8HUUuLAFm71kMAAAAAAAAOmIxAAAANwFm71kMAAAAAAAAOmIxAAAANwFm71kMAAAAAAAAOmIxAAAANwFm71kMAAAAAAAAOmIxAAAANwFm71kMiIDIfXkFkAgaPIBwMaoA+qA/aoibAs2FuxhQXFw8ffr0oqIidUcYYp4dqYFhM1mIfLiIp6PIhSXA7D2LARGQn5+vJgGpiwYPIFyMKoA+6I8a4qZAc6EsBvz444+PPfZY37598/LyFi9erO4OidvZkWIYNpOFyIeLeDqKXFgCzN6zGBABkWuIQCJo8ADCxagC6IP+qCFuCjSX4GLAihUr+vXr17p161atWp1wwglVtxJgOJ0dKYlhM1mIfLiIp6PIhSXA7D2LAREQuYYIJIIGDyBcjCqAPuiPGuKmQHPBFgPkRwE6dep0XKVLLrmkY8eOVboSYMSqG1IGw2ayEPlwEU9HkQtLgNl7FgMiIHINEUgEDR5AuBhVAH3QHzXETYHm4l0MMD8KIJcBhD/96U/VsBJgxKobUgbDZrIQ+XART0eRC0uA2XsWAyIgcl9eASSCBg8gXIwqgD7ojxripkBz8S4GJJdaIaQihs1kIfLhIp6OIheWALP3LAYAAAAAAAAdKTPs3hPuYm9xcfGzzz77y1/+slOnTh07dpRz9CeeeGI1fDIAAIBqFmD2nsUAAAAAAACgo3gXA8ztpUuXDhky5IQTTujatWvr1q1ZDwAApJ4As/csBgAAAAAAAB0FXgyQzA8K5OTk5Obmsh4AAEglAWbvWQwAAAAAAAA6SnAxwCQ/KJCXl8d6AAAgZQSYvWcxIAIi9+UVQCJo8ADCxagC6IP+qCFuCjQX1mKAVFxcPH369KKiInUH4BvDZrIQ+XART0eRC0uA2XsWAyIgPz9fTQJSFw0eQLgYVQB90B81xE2B5sJdDAASx7CZLEQ+XMTTUeTCEmD2nsWACIhcQwQSQYMHEC5GFUAf9EcNcVOgORYDoBuGzWQh8uEino4iF5YAs/csBkRA5BoikAgaPIBwMaoA+qA/aoibAs2xGADdMGwmC5EPF/F0FLmwBJi9j70YINx///3iofjNdlK2L7roIsd0ttlmm2222WY75rZ4PeeYzjbbbFf/Nv1Rw23ea7Ct+fZxxx1nTW/UqJE9j7kt9jqms812iNs8l7HNdgpvR/F1Ua3QFwPiKg5VIXJfXgEkggYPIFyMKoA+6I8a4qZAc3wyALph2EwWIh8u4ukocmEJMHsf92KAXHAQ7rnnnl/+8pdi46233jL3dunSRaR88MEHliNikwWaDydMmCCewtPS0kTihg0b7BniMqqSNSWR0hTWovwUGzNPzAzx8lNDM10ESm47ZgMAAAAAoDqxGAAAgBvH2XtvXnO+jsXJmeIZM2asXr362WefFdtXXHGF3LV27VrxsE2bNhUVFdZDPBw8eFD8nlHJTKxXr54o55lnnhGJZWVl9gxxsU9tJ1Kawlq4n2LtlVH4KSQufmpo5vnyyy9FhpiVBAAAAACgGrAYAACAG8fZe29ec76OxVlniktKStLT0xs0aLB3717x8O677xa7RowYIffu37//tttua9WqVZ06dU488cTJkydbS7j33nszMzPl3+xby5TbJmui3C4vLx8+fHjbtm1r167dokWLf/zjHyLxjTfeyM3NrVu3rqhM9+7dly9f7rO0H3744S9/+Uvr1q1FJXNycu64444DBw5Ys40cOVLUU5zon//8p0y3civW7Vgzz1tvvVWvXr1OnToVFhbKXUoGc1spZODAgSLx/fffF9vbtm075phjTj/9dCNWBOzbGzZsEAdmZGTcd9991nQlGwAAAAAAycJiAAAAbhxn7715zfk6FqfMFPfv3188nDp16pEjR9q1aye2v/76a7lr0KBB4mGfPn1EOf369RPbM2fONEs477zz/v73vy9atEgp0/zLdOufsVsz3HDDDWL7F7/4hTjphAkTXn75ZZG4YMECUc8pU6aMHDmyfv36Xbp08Vna9ddfL7Z79eo1bdo08VtsX3fdddZsffv2FWWKDXF1Mt3KWpR9236sTJ81a1bdunXPPvvs77//XqabYhYiIia2Bw4cKLYfeeQRsT1p0iTDPQL2AuX2xRdfLLZFMAcPHmxNV7IBAAAAAJAsLAYAAODGcfbem9ecr2Nxykzx+++/Lx6ee+65H3/8sdjo1q2buatx48Yys2nw4MFmCQUFBWZOmeL2UElp0qSJ2N6+fbs1w4wZM3JycmQ2oXbt2uYuP6Xt3r1bbIvfYlukWLPt2bPn0KFDYiMtLc0swWQtyr5tP1am161b9+c//7n8D0gKx0LkAoBZyKmnnpqRkbFv375OnTqlp6cXFxcb7hGwFyi3GzZsKLZLS0tLSkqs6Uo2oPpF7ttaAGiOUQXQB/1RQ9wUaI7FAOiGYTNZiHy4iKejyIXFcfbem9ecr2NxykxxRUVF69at09LSfve734l0838BGUfn2SdNmvTBUatXr7aXYE/xzuC4GJCVlVXr6LmOPfbYeEvbs2eP4bIYYN+2csvjvd22bdv69evLf/WjsGcWG/n5+db08ePHi+1hw4aJ33/84x9lolsEHAs0ji4GlJSU7N2715quZAOqn2jwahIAJIBRBdAH/VFD3BRojsUA6IZhM1mIfLiIp6PIhcVx9t6b15yvY3H2meK77rpLJtavX9/6f2/k//Pp3Lnzs88+O3Xq1MGDB990002GUwlKincG+Y995L8Jmjhx4iuvvCISmzdvLhIfeeSRW2+9VTlcTvc/9dRT8+bNcyvt4osvfu65537729/WOvrxBSWbUqbJLY/39rp167Kzs9PT0+fPny/TTfbMhm0xYPfu3fXq1UtLSxMpn3zyiUx0i4DbNv8mCNqK3MgLQHOMKoA+6I8a4qZAcywGQDcMm8lC5MNFPB1FLiyOs/fevOZ8HYuzzxR/9dVXMvHyyy+3ppeXl48YMaJdu3Z16tRp3Lhxt27dpk+fbjiVoKR4Z5Bf+dumTRv5BcLPP/+8SHz11Vezs7MbNWo0bNiw3Nxc6+GPPvpoZmamSPnZz37mWNqdd96Zk5MjSmvVqtXtt9+ufIGwfdvKLU/M7RUrVohaNWzYUH5rgskxs7IYIFxxxRXiYV5enpniFgHHAo3KLxDu1KmTqID8hIG1cOUhUM0iN/IC0ByjCqAP+qOGuCnQHIsB0A3DZrIQ+XART0eRC4vj7L03rzlfx+LkTPGePXv2799vTUfVqbaGKO6puLMsBiC5qq3BA6ghGFUAfdAfNcRNgeZYDIBuGDaThciHi3g6ilxYHGfvvXnN+ToWJ2eKhXvuuceajqpTbV9eMWrUKPP+qvuA6lJtDR5ADcGoAuiD/qghbgo0x2IAdMOwmSxEPlzE01HkwuI4e+/Na87XsTjz24A3btxoTUcK2LRpk3l/1X0AAAAAAFQvFgMAAHDjOHvvLe7FAAAAAAAAgGrAYgAAAG4CzN6zGAAAAAAAAHTEYgAAAG4CzN6zGAAAAAAAAHTEYgAAAG4CzN6zGBABkfvyCiARNHgA4WJUAfRBf9QQNwWaYzEAumHYTBYiHy7i6ShyYQkwe89iQATk5+erSUDqosEDCBejCqAP+qOGuCnQHIsB0A3DZrIQ+XART0eRC0uA2XsWAyIgcg0RSAQNHkC4GFUAfdAfNcRNgeZYDIBuGDaThciHi3g6ilxYAszesxgQAZFriEAiaPAAwsWoAuiD/qghbgo0x2IAdMOwmSxEPlzE01HkwhJg9p7FgAgIvSEuX748IyOjvLxc3eHps88+E+3hhx9+UHfEI9ipPZi1citZZjh06JA90eMoUyhXDWnw4METJ05UU22CNXifhQOogYKNKgCqAv1RQ9wUaI7FAOiGYTNZiHy4iKejyIUlwOw9iwEREODLK+QUdkZGRuPGjY899tjOnTsPHz68qKhIzRcPPafFY9bKezHAmujIf054W716dU5OzsGDB9UdNgEavLB169asrKySkhJ1B4AaL9ioAqAq0B81xE2B5lgMgG4YNpOFyIeLeDqKXFgCzN6zGJCarFPYhw8fXrly5R//+Mfs7OxNmzapWX3Tc1o8Zq10WAxQZsD9TIgbvrNFxfXXX//Xv/5VTQ3VRRddxHgFAAAApBIWAwAAcBNg9p7FgNTkOIXdt2/fq6++Wtk7YcKE1q1bp6en5+TkyM/CyL3Tpk3Lzc1t1KjRtddeK3Naj5oyZcqpp54q9mZmZl522WWFhYUicfLkyaeffrp5uo0bN9auXfubb74xUwxLIXLjzTffFOWIs5955pmrV68WGSZNmnTGGWeY+Tdv3nzMMcds2bLFcDmpUqCs3o4dO37zm980bNiwY8eOTz75pMdiQMz6WIsVKe3atbP/L5rS0tJBgwZlZWWJiolw7d+/3zzwxRdfPPnkk+vVq7dkyRLrQ1GfXbt2iato3Lhxs2bNhg4dKqf+laOs1Za73njjjdNOO01c2s9//nNRn9mzZ4trFBXu0qXLf/7zH4/6GE732i3RMdTCtm3bevbsaQ+s2xlNR44cyc7O/uCDD+RDt2gbLkXNnDlTBERmGDlypDhWLmstXbq0SZMmZpTGjx9//vnny20AAAAAKYDFAAAA3ASYvWcxIDU5LgbMmjWrefPm1r1btmwRGx9++KFILCkpWbVqlbn3iiuu2LdvX2Fh4emnn37nnXcqZb799tsbN24UG7t27brgggsuueQSWUJGRsayZcvk6UaMGNGrV6//nvsoZfJ9wIABxcXF5eXlAwcOPPvss0WG77//vn79+itWrJD577vvvp49e8ptx5Pap/VFojjksssuE/UvKirq2rWrOWdtsh/lVh8zw/vvvy9eWYoYWsuR+vXr16dPH3H5paWlomK33HKLcfTAq666SqQfOHBAeSgyiJxmJUWQhw8fbj/Keha56+qrrxYhEjW89tprc3Nz//CHP5gPf/nLX8qcjvVxvNeOiYZLqIXzzjvvyiuv3L9/v0gX8TED63hGq4KCApF5x44d8qFbtA2XokS22rVrb926VWyLnCeffPIzzzwjth988EGzbsJ7772XmZlpPgQAAAAQdSwGAADgJsDsPYsBqck6M25avHjxMcccY927c+fO2rVrT5o0ae/evWY2uXft2rXy4auvvipfUTmWKSxYsCA9PV1uDx48+MYbbzQq/zdRTk7Om2+++ZOstll4Ob0rLFq0qE6dOnL7yiuvvPXWW43KPyfPzc2dPn26ebjJPKl9Wr+wsNBa/9dff92cszbZj3Krj0x/6qmnxOUsWbLEWoi0Z8+etLS0devWyYdz5861rrhs2LBBpisPlUoqQTazWSk1/Pjjj2tZptfFQ1lht/o43mvHRIUZallns+Q33nhDBtbtjFarVq0SmcvKyuRDt2h7FNW1a9fnnnuupKQkMzNTbFx++eUisUePHtYBSrRwUWxFRYWZAgAAACDSWAwAAMBNgNl7FgMiIMCXVzhO3Ns/GWBU/gOWHj16NGrUqHv37gsXLjT37tu3Tx716aefpqWl2Y/q1q1b06ZNmzRpIo4V6YcPHxbpy5YtEyn79++fM2dOdnb2jz/++N9zH2Wfhbemyyn7efPmiXqKYz/88MPMzEzzD+QdT2ovcMWKFUr9zZJN9qPc6iM3WrZs+ec//9lagmnlypUiQ+ZRom4NGjSoqKhwLNB8aK+kPcgKxwLN6zIfutXHcLrXHon2UCt1lv/4yPuMJsdPBtivRRYl/z2RUtSIESP69+8/e/bsiy++uLCwMCsrq6ysrH79+mvWrDHPwicDADgK8DQKoIrQHzXETYHmWAyAbhg2k4XIh4t4OopcWALM3rMYEAHmf3L3z3FOuV+/fv3793fcW15ePmrUqGbNmpl7zT9af+2111q2bGk9Sv45+YwZM8RRIn3+/PlyJlfm79Kly/PPP3/ppZc6fltszMl3o/JTBa1bt545c+Y111wjP2dgHP0bdvtJ7QUm8skAe33MaLRv3/6ee+6xFiIVFRXVskxzmxwLNB8qlRRB9v74hX2XNWLWh271MVnvtWOiW6hFei3LJwPefPNNn2c0Kj/k0aJFC+U7A+zXIou67777/u/Io0Q1RDscMmTIY489Jh527NhxzJgxOTk51jyip/To0cOaAgBGoKdRAFWE/qghbgo0x2IAdMOwmSxEPlzE01HkwhJg9p7FgAgI0BCtk60VFRWrV68eNGhQdna2/Efw5t7Nmzd/8MEHBw8eFHnGjx8vMph7r7rqqn379u3atatz58533HGH9ahNmzaJjXnz5onErVu3nnfeeXImV556ypQpnTp1qlu37vr16836mGJOvsuHI0aMEMU2bNhw6dKlMsXtpI4F9ujRo1+/fvJf23fr1s1asmQ/yq0+Zvr27dvz8vJuvfXWI0eOWIsSevfuPWDAgO+++86onOWXU96OBVpn+Xv27GlWUgR52LBhjtlMjgXaFwMMl/o43mvHRLdQi4fnnntu//79Dxw4sGfPnu7du3ufUTF48GD5vQiG57WIorp06WIvqry8PD09vUmTJvKLDW6//XaxPXDgQLlX6tWrl/3rnQEgwNMogCpCf9QQNwWaYzEAumHYTBYiHy7i6ShyYQkwe89iQATEbIjFxcXTp08vKioyU+TsakZGRuPGjTMzM88444xhw4aZGcyp2HXr1nXr1k3kSU9P79Kli/XfBE2bNi03N1eUcM011+zfv996lNgeN25cixYtGjVq1LVr1ylTplhnpUtLS0W62x9ox5x8lw/Xr18vHv7sZz/7vyNdTupY4LZt23r27NmwYcOOHTs++eST1pIl+1Fu9bGm7969W0TpuuuuU/4HTklJyQ033NC8eXNRtw4dOkyYMMF6CmuB1ln+wsLCSy+9VAQ/Kyvr5ptvln+Gb89mcizQcTHAsT6O99ox0XAJtVG5NiDurAysGB/S0tLk0ojjGRWrVq1q3br1wYMHDc9rEUWJKjkWdeGFF2ZnZ8szvvvuu+KQF154wdxbUFAgIunx5QcAaqyYT6MAqg39UUPcFGiOxQDohmEzWYh8uIino8iFJcDsPYsBEeDREJcuXTpkyJC8vLzFixer+4LymI/248iRI+3bt3/55ZfVHUgtM2bMiPel9uDBg/385b5Hg/dw/fXXiyFLTQWAoKMKgKpAf9QQNwWaYzEAumHYTBYiHy7i6ShyYQkwe89iQATYv7yiuLj42Wef/dWvfpWTk5ObmxviSoCR8GLA66+/Ll6Byb9zR4pZu3at/MLeLVu2dOrUaejQoWqOMNgbPAAkglEF0Af9UUPcFGiOxQDohmEzWYh8uIino8iFJcDsPYsBESM/CnDiiSeeffbZbdu2PeGEE8JdCTASWwzIzs4WL7/mzJmj7kBKEI2tffv2DRs2bNq06aBBg/bt26fmAAAAAIDwsBgAAICbALP3LAZEg/lRgDPOOKNLly7HVaqKlQAAAAAAADTBYgAAAG4CzN6zGBABCxYsOPHEE8XLmrZt28plAAAAAAAAAFQ/ddYGAJIkwOw9iwHRsHjx4t69e+fk5JjPPbfeemvHjh35ZAAAAAAAIFUpE6/e87DeewEASDEBZu9ZDIgA88srDhw4MGbMmLy8PLke0K9fP9YDkHoi920tADTHqALog/6oIW4KNMdiAHTDsJksRD5cxNNR5MISYPaexYAIyM/PV1LMDwoIfHMAUoy9wQNAIhhVAH3QHzXETYHmWAyAbhg2k4XIh4t4OopcWALM3rMYEAFuDVF+UKBv3755eXmsByBluDV4AAiGUQXQB/1RQ9wUaI7FAOiGYTNZiHy4iKejyIUlwOw9iwERELMhFhcXT58+vaioSN0BRFDMBg8AcWFUAfRBf9QQNwWaYzEAumHYTBYiHy7i6ShyYQkwe89iQAREriECiaDBAwgXowqgD/qjhrgp0ByLAdANw2ayEPlwEU9HkQtLgNl7FgMiIHJfXgEkggYPIFyMKoA+6I8a4qZAcywGQDcMm8lC5MNFPB1FLiwBZu9ZDAAAAAAAADpiMQAAADcBZu9ZDAAAAAAAADpiMQAAADcBZu9ZDAAAAAAAADpiMQAAADcBZu9ZDAAAAAAAADpiMQAAADcBZu9ZDIiAyH15BZAIGjyAcDGqAPqgP2qImwLNsRgA3TBsJguRDxfxdBS5sASYvWcxIALy8/PVJCB10eABhItRBdAH/VFD3BRojsUA6IZhM1mIfLiIp6PIhSXA7D2LAREQuYYIJIIGDyBcjCqAPuiPGuKmQHMsBkA3DJvJQuTDRTwdRS4sAWbvWQyIgMg1xAgZO3ZsVlZWRkbGwoUL1X1Vb/ny5eLU5eXl6o6ajQYPIFyMKoA+6I8a4qZAcywGQDcMm8lC5MNFPB1FLiwBZu9ZDIgAj4b4+eefX3rppc2aNWvYsGFubu7QoUP37NmjZorls88+Ezf6hx9+UHf4kMix1cC7ekVFRWlpaUuXLlV36MG78inMo8EDQACMKoA+6I8a4qZAcywGQDcMm8lC5MNFPB1FLiwBZu9ZDIgAty+vWLhwYaNGjcQNKikpEQ+3bt06fPjwefPmqfliSWTSOZFjq9rBgwe9q/fFF1947LUTBapJVcm78inMrcEDQDCMKoA+6I8a4qZAcywGQDcMm8lC5MNFPB1FLiwBZu9ZDIiwjh07jh07Vk2ttGvXrssuu6xx48bNmjUbOnSonMWWk8tvvvnmqaeemp6efuaZZ65evXrv3r1iW6RnVHr66adFzilTpog8jRo1yszMFOUUFhbKYsvKym666abs7GyR87TTTvv444/tx1pNmDChdevWIk9OTo5cW1MmuOXDQ4cOyY1p06bl5uaK81577bUyj1u64XmNL7744sknn1yvXj2P6s2aNcvc27JlS58FiqpaC3ELlP3CHROt0VD2+r8vjrdVnlG5XytWrBCJpaWlgwYNysrKEoWIeO7fv19mBgAAAADdsBgAAICbALP3LAZE1Y4dO8Td2bRpk7qj0gUXXHDZZZft27evqKjo9NNPHz58uHF01njAgAHFxcXl5eUDBw48++yzzXTrX6C//fbbGzduNCrnx0VRl1xyiUwXZf7617/etm2b2N6wYUNBQYH9WNOWLVvErg8//FBsl5SUrFq1yrCdS1kMuOKKK0SdCwsLRZ3vvPNOM4M93fC8xquuukqc8cCBAx7VM2yV8VPgT453CZTjhTsmmhXw3ut9OrfbajjdL7HRr1+/Pn36iLOUlpaKQm655RazfAAAAADQCosBAAC4CTB7z2JAVK1cuVLcnbKyMnWHYRQWFopda9eulQ9fffVV+ZJIzhpv3bpVpi9atKhOnTpmutuM+YIFC9LT08XG7t27RTZxXutej2N37txZu3btSZMm7d2710z0Xgxwq7M93fsaN2zYINM9qmf8dK/PAj2YgXK8cMdEswLee80UK/N0brfV8X7t2bMnLS1t3bp18uHcuXObN29uzQAAAAAA+mAxAAAANwFm71kMiKrt27eLu7N582Z1h2GsWLFC7Nq3b598+Omnn6alpRm2yWVlIt466Txz5sxu3bo1bdq0SZMmjRo1EnsPHz4slx/MYiX7sVainB49eogSunfvvnDhQsOWX6mDW53t6XFdo1v1rHt9FqhwDJRMVy7cMdFauPdeswT76RwvWYTU8X7JxMyjRDkNGjSoqKiw5gEAAAAATbAYAACAmwCz9ywGRIDbl1d07NjxoYceUlNtf+T+2muvWf/I3T5r/Pnnn1vT5V+pz5gxo7y8XDycP3++zCb/0lz+BxuTcqwjUc6oUaOaNWsmtlevXi3y79mzR+565513ZOGyMtY6y//j75bu8xq9q2fN7LNAK7dAmRmsF+6YaC/cutfnfXG7rY73q6ioSCTu2LHDmqgbtwYPAMEwqgD6oD9qiJsCzbEYAN0wbCYLkQ8X8XQUubAEmL1nMSACzG+gVSxcuLBx48aTJk0qLS0VD7dt2zZixIj33ntPbPfs2bNfv3779+/ftWtX586dhw0bZtimns1ZY/kP69esWSPTN23aJB7OmzdPbG/duvW8884z57j79u3bo0cPOZUs/we9cqzV5s2bP/jgg4MHD1ZUVIwfPz47O1skirNnZmaOHj368OHD4vDu3btbZ7Svuuqqffv2yTrfcccdxtFK2tMNf9foUT3DltlPgVZugXK8cMdEs3DHvT7vi9ttNZzul9jo3bv3gAEDvvvuO6NyCUScVx6oD7cGDwDBMKoA+qA/aoibAs2xGADdMGwmC5EPF/F0FLmwBJi9ZzEgAjwa4ueff967d+9mzZplZGTk5ubecsst3377rVE5yXvppZc2btw4Kyvr5ptvln9L7jFrLPLI/xszefJk8XDcuHEtWrRo1KhR165dp0yZYmYrLS294YYbmjdvLnaddtpp8v/RK8ea1q1b161bN1GH9PT0Ll26mP8tZ86cOe3bt2/YsKHYO3XqVOuM9rRp08RViGu55ppr9u/fbxytpD3d8HeNhnv1DFtmnwVaOQbK8cIdE83CHfcatso7ns7jtjrer5KSEjOxQ4cOEyZMkAfqw6PBA0AAjCqAPuiPGuKmQHMsBkA3DJvJQuTDRTwdRS4sAWbvWQyIgMg1xADc5tzd0pHCakKDB1CdGFUAfdAfNcRNgeZYDIBuGDaThcj7VFRUNH369OLiYnXHTxFPR5ELS4DZexYDIiByDTEAt0l/t3SksJrQ4AFUJ0YVQB/0Rw1xU6A5FgOgG4bNZCHy/i1evPikk066/PLLlyxZou47ing6ilxYAszesxgQAZH78ooA3Cb93dKRwmpCgwdQnRhVAH3QHzXETYHmWAyAbhg2k4XIx+WTTz5p06ZNq1atOnbsOGHCBPsHBYino8iFJcDsPYsBAAAAAABARywGAEAwn3zySbt27cTA2KpVqzZt2nh/UAARFWD2nsUAAAAAAACgIxYDACAwcz1Aatu2rdsHBRBRAWbvWQyIALPTAgAAAAAAAEC8WrVqdc4554iNDh06LFiwQJ1/RAQFmL1nMQAAAAAAAOjoOD4ZAABBPfjgg3IZoFOnTldeeWX37t3PPffcZ599lk8GpIwAs/csBkRA5L68AkgEDR5AuBhVAH3QHzXETYHmWAyAbhg2k4XIx0uuBHTv3r1Pnz4dOnQYMmTI0qVLzb3E01HkwhJg9p7FgAjIz89Xk4DURYMHEC5GFUAf9EcNcVOgORYDoBuGzWQh8nGZNGlS27ZtW7du7fZRAOLpKHJhCTB7z2JABESuIQKJoMEDCBejCqAP+qOGuCnQHIsB0A3DZrIQef8WL16cl5enfBRAQTwdRS4sAWbvWQyIgMg1RCARNHgA4WJUAfRBf9QQNwWaYzEAumHYTBYi71NRUdH06dPtHwVQEE9HkQtLgNl7FgMiIHINEUgEDR5AuBhVAH3QHzXETYHmWAyAbhg2k4XIh4t4OopcWALM3sdeDOjTp8/jSKrbb79dTQJSFw0eQLgYVQB90B81xE2B5rKyshZaKA8VYq96PBA2hs1kIfLhIp6OIheWPn36hL8YAAAAAAAAAAAAdBPaYkBBQcETAAAAAAAAyZCVlfWRhfJQIfaqxwMAkOoKCgrUaX13XosBAAAAAAAAycJ3BgAAECIWAwAAAAAAgI5YDAAAIEQsBkTAv//9bzUJSF00eADhYlQB9EF/1BA3BZpjMQC6YdhMFiIfLuLpqCaEhcWACMjPz1eTgNRFgwcQLkYVQB/0Rw1xU6A5FgOgG4bNZCHy4SKejmpCWFgMiICa0BABEw0eQLgYVQB90B81xE2B5lgMgG4YNpOFyIeLeDqqCWFhMSACakJDBEw0eADhYlQB9EF/1BA3BZqzLwZ4s2YGqgLDZrIQ+XART0c1ISwsBkRATWiIgIkGDyBcjCqAPuiPGuKmIFposUg6GmGyEPlwEU9HNSEsLAZEQE348grARIMHEC5GFUAf9EcNcVMQLbRYJB2NMFmIfLiIp6OaEBYWAwAAAAAAAAAASHEsBgAAAAAAAAAAkOJYDAAAAAAAAAAAIMWxGAAAAAAAAAAAQIpjMSACasKXVwAmGjyAcDGqAPqgP2qIm4JoocUi6WiEyULkw0U8HdWEsLAYEAH5+flqEpC6aPAAwsWoAuiD/qghbgqihRaLpKMRJguRDxfxdFQTwsJiQATUhIYImGjwAMLFqALog/6oIW4KooUWi6SjESYLkQ8X8XRUE8LCYkAE1ISPqAAmGjyAcDGqAPqgP2qIm4JoocUi6WiEyULkw0U8HdWEsOi+GLBw4cJatWrt2bNH3RGeZ555pl27dsccc4w4kbovUqohVtVAXkVxcbG6owaohjtIa4duquFW0uy1UpMH+WRJjZZjsl5O0i8t6RVIRLDO6POSfWaDXVJCl5STAgC8afWax055k5WUGiblpEAKSHRmRPY9q9tuu03NlAD78BfvmxZv27dvF4PXlClTduzYUVhYqO42jG3btv3pT39q27Zt3bp1W7Rocfnlly9btkzNVO0cQ3Hw4EFxCUeOHLEmxkUW++2336o7nGzcuPGKK65o3rx57dq1mzVrdu65586bN0/ucqyeT4kcKyVeghtae1I4hqKaW7v11iTI8XJ0RrNPCsdQVHOzj+4gb220TZo06dWr15o1a9RM0RHzeq0cMyfecqyS3mWslyOv1z44y/TGjRvv37/fTFy7dq1sFT6D6YdbBZLriy++ELU655xz1B0/5dhaYvLZnGJmC3Z2U4KHh0VWQwprtElK6GKeNC7WsEjhvnJAhHi8loiLY7tFjSXbg/XJN9wWYi/fg33EE7766is1XyB+XvP4FPrrN/ubrHCfSuwc73K4J7XezaZNm/bv33/37t1qpmQIayytCo73JS72tp14md58vlSuZlV91YpwFgPEC9/Co0pLS9VMCbA2i6oIzb/+9S9R5vfff6/uqCS6XHZ2du/evUW2goKCzz//fMSIEb/73e/UfNWuKkJhVC7tnnnmmWqqkx9++KFNmza//e1vlyxZIp4GVqxY8cQTT7zyyitybyLVS+RYKfES3NDak6IqQmHE09oNp+enwBK5nEOHDqlJ7uLK7IFmnxRVEQojnmYf6UHe2mjFS70LL7zwlFNOUTMlLKwuFlPM67WKK3MAunUZeb32wVmmi3e8zz//vJl45513Hn/88eHGx60C8Qq3Of2///f/unbtKt6ir127Vt1nUdWtxZufs3uExc/hHjxKjousRlWPNgo/1+5xgX4OT5A1LMFeOXjUHxHi/VoiLtXQbhEhsj1U0dShGH/s5Xuwj3jC4cOH1XwJi6tWiqp4/eb9JksRyqge4l12Y72bn3766c9+9jMxgqmZql2IY2nozP6SyH2xt+3EyzQ5tj2fL5WrWYhX7Uc4iwH2IUm8+zrjjDPq1at37LHH/uEPfzCvp6Ki4pFHHjnxxBPr1q3bqlWr0aNHG7ZCrCGw7qr1UyJFHC76pzxKOuecc2655RZrilF5+++55x7Rf8RJO3ToMG3aNHOXvUyriy66yD5EmtfiUays9nvvvffzn/+8fv363bp1E+Ov6LpnnXWWeCh+r1+/3przgw8+6N69u9gl3qY+9dRT1l2OYflprf9bbWt+uf3++++feeaZ4i6IM3799dcy28GDB2+//fbmzZs3bNiwT58+YhAxi+3bt+/bb78ts/3tb38T76Jr166dk5MzYcIEmWgSI6M4asuWLUq69NPaOXxkzHotIozi/bmszyWXXPLSSy+ZuwQxzInYigi3bt165MiR5tOqxwX+9OT/DY735fikXIWJ1l4rpVu7YauelVsTdbz7htPleFy73J47d654rhLlyAq7ndGeOeZ1+eF27TT7Wind7CM3yFsplRG3STwUL6PNDN4ndbxZ5l6f/dEtvG75471etw7omNkMyDPPPCPeClrfoPbv31/cFLntVjerYF3Go3l4XLjjYKKUppRskuniKs4991yZ8uOPP4prv++++8xTG+6XLA9PsINL3qcIfcQWDhw4kJmZ+e677/7mN78RXc+6y6MzxnvJMQciazbHS6v1U9ajrGGJq6m7tUDHkh1rFS/rZRrxjDYeA3VSQmc9acwwOt5xKyUsppglW+svU/y0SWjL47WExws8/83ecO9itJ/UZh9kZIoc6BybkBGrtdjHH49x2MpeGWWXn3boNmJbC/c4UUzBXr8ZnsP+0e74X2Zma23tUU0kGvYzKicNdiFWSpBff/11cevFa0jDvVYeT+iGe6uLi8dYqlRYPrS+nHB7jeq9N2YkrXf26A35LzOnf8pVmClh9WjzEMnjpbLbuw+3dLdAxbwvjk3RGsZagSIZl0RPYL9t0osvvjh//vyCgoKPPvqoY8eO11xzjUz/61//2rRp0xkzZohdn332mfyLrZiRkrtmzpwpttetWyeXW43KzzqJNrF06VJ5oAiiyLBq1Sr50HTzzTe3aNFizpw5W7dunTp1qmjrf//73+Uue5mmb7/9Ni0tTdwka6KVR7Gy2mefffbixYtFrcSLGzHk9ejRQwx28uEFF1xgzXnSSSfZy/EIi2O1rfnltjiRGDi++uorURNxdpntpptuEs1XNH1xuueee65ly5ZmsSYx0Ihrf/jhh7/55htxm0TdrHsFkS4yjBs37pDTOpu9eh7Xcuutt4r35/Lyn3nmGTGMmrtGjRp1yimniG4sbrQYp9q1a3f33XdbS3C8QPvZY16OT8pVmGjttVK6tRu26pk8mqjj3TecLsfj2uV2586dRdMS1RN5PM6oZF6+fHnM6/LD7dpp9rVSutlHa5BXWCuzd+/egQMH5uXlmXtjntTxZpl7/fRHt/C65TcL93+9bh3QMbMZkO+//1686DQ/VlxWVibet7z22muGZ91MgbuMR/PwuHDHwUQpTSnZJNNFHBo0aCDeaoqUf/7znyeccMKCBQv8N78EO7ifU4Q+YhuVbUO8ZRJvWsQ7WHE75DtYyaMzxnvJMQciM5tbd/Boq9ZeFldTd2uB9pLDCrg1GnGNNh4DdVJCZ72QmGF0vONW1tKsYpZsrb9M8dMmoa1v3F9LuL3Ai6vZe3Qx2k9qsw8yMkWMom5NKGZrsY8/HuOwlb0yyi4/7dBtxLYW7nEib4Ffvxmew769V9pra49qItGwn1E5abALsVKC/NZbb4nQlZeXG+618nhC92h1cfEYS5UKy4fWlxNur1G998aMpPXOOt6XuChXYaaE1aPNYiWPl8pu7z7c0t0CFfO+ODbFxCMZl1pqQpzklWRYiCgoeWbNmiXSjxw5UlpaKqLzj3/8Q8kQM1LWAUWZ0fj9739/4403ym1xh8466yzrXqPypXndunXF/TZTRDbzM7yOZUpiVBK7RNtSd1TyU6wYLORD0cjEw0WLFpkP69SpI1euZE6lnFNPPdXc5REWpdr2WIk3vXKXeKsvzijGjpKSElFt0YjNo+666y57UaJ913KacbN64oknGjZs2KhRo1/96ld33nmnOMTcZa+e27WI+tSrV896+X/5y1/krv3796enp4unCnPXK6+8kpWVJbfdLtDcZT27n8vxQ5ZMazecik3t1q5UT/Joom5333C6nJjXbj7neZzRntnPdfkhi6XZG07Fpnazj9Agr5AZZHMVGx06dJDTwYa/TuR4s8y9fvqjY3g98huJXa/ZAQ2XzDJR3p0+ffqY715eeumlJk2a/PDDD951MwXuMtYKmA+tTd1+4W6DifHT0pSS7XmuvPJK+d5AjCRjxowxT+19yTJbgh3czylCH7GF8847T7xBMo5+GOKNN96Q6R6d0Yj/kr0HIms2t0sz74U90XG2xYjV1D1aoGEr2a1W8ZLFxjvaeA/U1R86M1Gc1E8YHe+4lTUsknjl4Kdka/1lip82CZ15vJZwfIHnv9l7dDGD9pPqzCFLSREtxLEJ+WktjuOnY2kK+4jXunVr665426F9xPZ+zRNT4Ndvhuewb8bcPNBe28RHdXs0quH5S16C+C1eU5199tlKHsNSK48ndO9WFy+3sdRaYfOh9eWE42tU771+Imm/sx5vVWJSrsJMCb1HS24vld3efbilewRKuSJriOS2Y1NMPJJxCWcxYNmyZRuOkpfxySefXHDBBS1atBDttUGDBiKPiODSpUvFhn0iKWakrAOKEprZs2dnZmYeOHBADBytWrWaMmWKda9xdOyznvTdd98VKXJ9z7FMyXvQ9FPsrl275C758LvvvrM+FE3H3HYsx3rtZk5rWNzGQXNbqYA4o6x2QUGBeZQ8nVKUuIldu3YVgb3mmmvEuGwflCVxT9955x3x7vo3v/lNWlra448/LtPt1XO7FnuTMOsjGlWtnz6tyoZUVlZmlmC/QGvhZpk+LycmWTKt3XAqNrVbu1I9yaOJut19w+lyYl77jh075C6PM9oz+7kuP2SxNHvDqdjUbvZGdAZ5hcwgyv/6668nT54sXqXNnDlT7vJzUnttrTfdT390DK9HfrNw/9fr2AHdMstEeXfE611xiPxa3YsvvnjQoEFGrLqZAncZawWMn1bS7cLtLcdkLU0p2Z7n/fffb9OmjegR9erVEzU3T+19yY61ireD+zlF6CO2GKJr165t1ke8JxF3WW7bQ2odHOK9ZO+ByJrN7dJkBse2aobFiKepe7RAM3/oAZfFxjvaeA/U1R86M1Gc1E8YHe+4lRkW6ysHPyVb6+94Lsc2Cc25vZZwfIHnv9l7dDEzP+0nVck7aH32N1uIYxPy01qs44/JsTSFPNw64m3evNm6y0879B6xvV/zxBT49ZvhcgluL1DttQ02qntHoxqev2QjEePVWWedtW7dOrnLsVYeT+jerS4Ax7HUvHyZxxoiue0dEMe9fiJpv7PKfYmLchVmSug92ojzpbJ3ukeglCuyhkhuOzbFxCMZl3AWA5QhSdS+cePG11577eLFi9evX//CCy/IS3IL4kcffWQtZP78+UqkrAOKEhrROMSrh5deemnOnDkNGzYsKSmx7jU875DhUqbk/XEqP8U63nvlody2Dx+inJhhcRsHlW1rfvszwdy5c+1FGZWrZG+//faQIUOaNm3ap08fZa/dAw88IIbFiooKw6l6btcim4T98s2qfvzxx+bTqmQ9hf0ClW1TvJfjSDmpRGv3uBfKQ7ltv936t3blFJJHE3W7+4bT5cS8dnOXxxntmQ0f1+WHvViDZm8Li3IW60O5HcVmr9B8kLdSjr3tttuOP/54+QlQPye119bxpnsXZQ+vd/64rrfYpQM6ZjYTZeHiWsTr6VdeeUW8Bq1Tp478+yzvupkCdxm35mG4X7jbYGLmcewI9jziEsTd79Gjh3yhb5bvfclutbI/lNuObSauUxhObSaA4cOHi2JrH3VMJVk9j85o2OoT85Id4++WzfHSlFNYE80C42rqHi3QzB96wJVifY423gN19YfOenhcYXQsykxXOmZcJdtTlHO5nRqas76WcHuB57PZe3QxMz/tJ1X9+9//Fndw+/btZsq8efNEyoEDBwynJhRXa1HYS1N4HO6zHcYcsWUJHifyFvj1m2E7qfUSlMtRMttr61GU9WHMaCg91yw28IVYyfRly5Zt3LhRxM1Md6uVxxO6d6tLkDmWxnyNbX/hZw2I4964Immm2IPpX3X26Jgvle3vPtzSPQIV8744NsXEIxmXKlkMkPfSbFjjx4+Xl+T28Yrly5eLDF999ZV8+MQTTzhGatGiRbUsi4emESNGnH/++aJZ/PGPf1R2GUc/iuv4+RcjVrgvvPBC+7eHy8x+inW8wcpDuS1eBsldRmXrlOV4hMUxFNaTulVgb+UnWV599VXzKBE9jwgYRz/AJfuhh9mzZ5v/T81ePbdrkR9at17+sGHD5K6ysrIGDRq8/PLL5i4rtws0nM5u5fNyHCknlWjtHvdCeSi3o9jalVNIHk3U7e4bTpfjce3KeT3OaNgyW7ldlx+OxdLs3Vqd/aHcjmKzV0RlkDdsx4qXaOKl3iuvvGL460SON8vc67M/mszweueP63rdOqBjZsNW+HXXXff73//+ySefbNOmjXzR7F03q2Bdxq15GLa6mRfuNpgYnh3BMY/80mD5EWCzfO9LdquV/aHcdmwzcZ3CymeXtDt06NBxxx338MMPf2nRuXNn+S1nHp3RsNUn5iU7xt8tm8l6aX7aalxN3aMFGraSrQIH3LAV63O08R6oHatapaEzLIfHFUb50GwnJsdLiKtke4pyLrdTQ3PW1xJGrBd43s3eo4sZtJ9UV1RUJBrS3LlzzRTx3JeTk2PJ8r+CvQZz4/Zk4XG4z3boMWJbS/A4UUzBXr8ZtpNaL0G5HCWzvbYeRVkfekTDPg6YB1bp85fh/qzq8YTu3eoSZI6lMV9jO75G9d4bVyQNl/sSl2rr0d4vld3efbilewQq5n1xbIqJRzIuVbIYsGPHDvFSWLzH2LJly6xZs9q2bWtenohOVlaW6C0Fli9eOHjwYPPmzQcMGCDyz5s378QTT3SMlHiFLbbFPdi9e7f1jJs2bTrmmGPq1Knzr3/9y0y0GjJkSHZ29ttvvy1OOm3aNPvXX9hHAWn9+vUtWrTo3bu3KFkcK+7oyJEjze9hj1ms4w1WHsrtk08++Z133hHlPPfcc6JZyy+h9giLYyisJ/WowE033ST6lehp4nQi/qIz1LJ9Qmrp0qVPPfWUaLsbNmwYOHBg69at5b9pM33yySdXX331zJkzRQZRjqj8KaecYkbGXj2Paxk6dGjLli1FCeIoceEi4Oau+++/X7QW0bu++eYbcSLRbMyv7fa4QPvZY16OT8pJJVq7x71QHsrtyLV242iZ4vcKi4qKCo8m6nj3DafL8bh25dKMeDqFn+vyw14Hg2ZvC4tyFutDuR25Zh+tQV6hHGtU/qN88z9+xjyp480y9/rpj27hdctvL9z7ej06oD2zvfAFCxaI3nTaaaeJEmSK4Vk3q2BdxqN5eFy442CiHGK/KfY8P/74457KjwiY6Yk0P+Wh3HZrM/5P4dZm4iLeGYo7a/1DNmHcuHHt2rWTpXl0xngv2TH+jtncLs1PW423qbu1QHvJbrWKl1Ks4Xu08RiokxI66+H+wygfmu3EZA+L5L9ke4pyLrdTQyveryUMpxd4cTV7jy5G+0l5YrDNy8sTLWfbtm1ilBMtIazXYFZupVnJw9esWSO/81MSr3zMXTHboceIbS3Bo54xBXv9ZthOar0E5XKUzPbaehRlfegRDcdxwFpssAuxsldb8qiVxxO6R6uLi8dYGvM1tttrVO+9/iNpuNyXeFVPj475Utnt3YdbulugYt4Xx6YYSiT9q5LFAEE0platWon2dMEFF4hImZcn3ow99NBDItaiL4kbOWbMGJn//fffFwESsevZs6e4o26RevDBB0Wx4kWDSDx6qv91/vnni3ZsTbE6dOjQ3XffLU5Xt27dDh06TJ061dxlDb0jcVOvv/56caxoNGIAveKKK7744gu5K2axjjdYeSi3xeV369ZNXL4YVp544gmzHLewGE6hsJ7UowKiXd52222iKTds2PB//ud/RFOrdfQjP6a1a9eKkDZu3FhcmqiY6IHWvcLOnTvFqCe6q6ibyNO+ffvbb7+9xPLvO+zVc7sW8S79jjvuaNasWXp6+m9/+9uXXnrJepnPPPPM6aefXq9evYyMjF/84hdmkD0u0LCdPebl+KSc1ERr97gX1odyO3Kt3ThapkL+Tzq3Jup29w2ny3G7duXSJLczKpn9XJcfjnUwaPburU55KLcj1+yjNcgrlGONo5/N/Ozod215n9TtZtmLNVyK8givY37DVnjM63XrgI6ZlcJFJ23Tpk0t25dxudVNEazLuDUPjwt3G0yshzjelJjpCTY/60O57dZmDN+n8Ggz/l1yySUXXnihkrhp0yZZQ8OzM8Z7yY7xd8zmcWkx26oRZ1P3aIFKyR61iou9wj5HG4+BOimhsx7uP4zyoVmsyV4ZyX/J9hTlXG6nhlZivpYwbC/w4mr2hnsXo/2kPNGQbrzxxuzsbPFqJDc394EHHpD/TNyjCflsLVYepZnk4Yp58+aZu/y0Q7cR21qCRz39CPb6zeMSlMtRMttr61GU8tAtGobTOGAtNtiFWNmrbXKrlccTuuHe6uLiPZZ6v8Z2e43qvdd/JCX7fYlX9fTomC+V3d59uKV7BMr7vrg1xcQj6V+Vn6B6nHLKKePGjVNTo8CjpVaPsWPHis6mpkJjtPbAaO3RRbMPjGbvX9JvFoCaiYEaNVaCL/BC+e/bABAWfZ7Qvd/XOO5lRK1RIr8YsHv37qeffjo9Pd38OuZoceyEVWrlypUvvfTSxo0bt2zZMnXq1IyMjERegaE60drjRWtPATT7eNHsA6v+mwWgZmKgBhJ/gffll1++8847aioAVCNtn9C939fY9zKi1jSRXwwQLbh58+bm/2yKHHsnrGpitDrrrLPEIFWnTp2TTjpJDFUsAEYFrT1etPYUQLOPF80+sOq/WQBqJgZqIMEXeOLAvLw8+3/5AIDqpO0Tuvf7GmUvI2oNFPnFgBS2YcOGSZMmjR+fL34EsS1S1ExAqpANXjT18ZUtngYPIEE8jQL64FkeQFhuvPHGVq1aDR06VN0BAIgTI2rNxGKAjnbu3Hn//aOnTn3+66+3FxTsFT/bt5d8803Riy9OHzNmjNirHgBEmWjSomE/99yLGzbslA1e/IhtkUKDBxAAT6OAPniWBxCW8vLynj17HnfccaeccsqSJUvU3QAA3xhRazIWA7SzYsWKe++9f9Om3eb7JetPYWHx2LFjV65cqR4GRJNozKNHj9myZY+9tYsfkS720uAB+MfTKKAPnuUBhKWgoCAvL++44447t5K6GwDgGyNqDcdigF527Nhx992j7G+WrD9FRWVjx47lD6mQAir/eneMvZErPyIPDR6AHzyNAvrgWR5AWD766KO2bdseV+mSSy559tln1RwAAH8YUcFigF7uvvs+tz9mtP4UFu594IEH1IOBqLn//tGbNzv/taD1R+QROdWDAcCGp1FAHzzLV5vXXntNTQpq3759M2fOeuihR8aOHffgg+PEb7EtUkS6mhWoLiUlJccff7yctxLE9vDhIx5++NFZs2iZCI6RM1lCjHxZWdnrr88U0RZhFz9ig5EhJkZURzWtF7MYoJE1a76aPPkf9vdIjj/Tp7+yfv16tQggOkQDnjbtRXvbdvwROWnwALzxNArog2f56pSfn68mxW/Tps2jRj0wduz4Dz9cotwgkSLSxV6RRz0MqGLr12+49977hw798/HH58qpq549f/Poo0+Kljl//tKHH35szJgHN2+mZSJujJzJEkrk5cgwZoxD5BkZPDCi2tXMXsxigEYee+yJtWu3KY3P7Wfr1l2TJ09WiwCiY9Kkp/03eJFT5FeLAAALnkYBffAsX50SnFipqKiYOPHJxx572vuTHGKvyCNyivxqEUAVOHz48KOPPj5+/FOyZS5fvuH0089o1apV585ndu/+K2vLfPLJKU899RQtE3Fh5EyWBCOvjAxuP4wMCkZUu5rci1kM0MioUWPtzc7tZ+fO0gTHUCC5Hn74EXvD9vgR+dUiAMCCp1FAHzzLV6dERrN9+/YNH373v/71uf2mOP6InCJ/qn5qHvrYu7f0zjvvUlrmxo27evX6fU5OzkknnTxnznzrrn//e8U999xLy4R/jJzJkkjkHUcGjx9GBskxbjV8RK3hvZjFAI3cd18csxjbtpUkMoYCSTd27Dh7w/b4EfnVIgDAgqdRQB88y1enwKNZRUWFeGe7evUW+x3x+BH5xVGp9Pdx0M2hQ4f//Ofhbi1zyJDbW7VqNWjQjUr62rVb7713JC0TPjFyJkvgyHuPDG4/jAzecauZIyq9mMUAjcQ1i7F9O7MYiDamCQCEi6dRQB88y1enwKPZxIlP+v+bOOuPOEocqxYHhGTcuAneLfNvf3vhlFNO/c9/tirpn366ctKkSWpxgBNGzmQJHPmYI4PbTw0fGWLGrQaOqPRiFgM08sgjj/v/56obNuzknx0j0p544in/DV7kFPnVIgDAgqdRQB88y1enYBMrmzdvmTDhafvt8PkjjhUl/LRIIARr164fP/4pe5NTfj788NPnn3/dnj558jNbtmxRCwVsGDmTJVjkfY4Mbj81dmTwGbcaNaJuphezGKCVL774cvLkf9ibmuPP3//+0vr169UigOj4+ut1U6b4bfAip8ivFgEAFjyNAvrgWb46BZtYGTXqgU2bdttvh88fcawoQS0USMyRI8aIEaN8tsxvvvneKfHbsWPHquUCNoycyRIg8nGNDI4/NXNkiCtuNWdEpRcbLAZo5dChimHD7vHTKDdv3n3//aPV44Goufvu+/w0eJFH5FQPBoCf4mkU0ArP8tUmwMRKWVnZQw/l229HXD+iBFGOWjSQgD17iseMedTe2OL6mTBhIi0TMTFyJkuAyDMyBEPc7OjFEosBelm3bsvw4ffZm5ryc999o3fu3KkeDETNtm3b77ordoMXeURO9WAAsOFpFNAHz/LVJsDEyuzZb3344RL77YjrR5QgylGLBhIwY8abibfMxYu/mDNnjlo08FOMnMkSIPKMDMEQNzt6scRigHY++mjJ8OGuf0gl0u+99/6VK1eqhwHRtGzZF3fd5dXgxV6RRz0MAFzwNArog2f56hFgYuXhhx+x35EAP6IctWggAfff/5C9mcX7U1RUFqBToKYJ0EgYOUMRIPKMDMEQNzt6scRigI7Wr//mr3+9d9Kk56xfvCa2n376uZEj7+ePGZFiCgq23XXXSHuDFykiXexVDwAATzyNAvrgWb4aBHiX/tBD4bwZFuWoRQMJGDVqrL2ZxfuzY0dJgE6BmiZAI2HkDEWAyDMyBEPc7OjFEosBmjp8uGLFijWPPDJB9N7+/a8ZPfqh/PyJfLUaUtiXX3716KOP33//Q6LBi99iW6SomQDAH55GAa3wLF+lbrvttvw43Xrrn+3vbAP8jB07Tq0NkID77nvQ3szi/dm2bW9+Ck1doYowciZLgMiPHDnGHsZ4f2rgyMCIaid6n/0aA/xEvRezGBABqdTxgJho8ADCxagC6IP+WBUCRJW/jIOeQvo71tIAnQI1TYBGwsgZigCRZ2QIhrjZ0YslFgMiIJU6HhATDR5AuBhVAH3QH6tCgKiOG/eo/Z1tgB9Rjlo0kAD+wzWqTYBGwsgZigCRZ2QIhrjZ0YslFgMiIJU6HhATDR5AuBhVAH3QH6tCgKi+9dZb8+cvsb+5jetHlCDKUYsGEjBjxswPP0y0ZX766Rdz5sxRiwZ+ipEzWQJEnpEhGOJmRy+WWAyIgABjJRBdNHgA4WJUAfRBf6wKAaJaVlb28MP59ve3cf2IEkQ5atFAAr79tnjMmET/bHPChIm0TMTEyJksASLPyBAMcbOjF0ssBkRAgLESiC4aPIBwMaoA+qA/VoVgUb3//jGbNu22v8X1+SOOFSWohQIJu/vuUYm0zIKC78aOHasWCtgwciZLsMgzMgRD3OzoxQaLAZEQbKwEIooGDyBcjCqAPuiPVSFYVLds2fL440/b3+X6/BHHihLUQoGEff31xvHjn7I3OZ8/U6Y8S8uEH4ycyRIs8owMwRA3O3qxwWJAJAQbK4GIosEDCBejCqAP+mNVCBzVJ554ctGiL+xvdGP+iKPEsWpxQEgeffTxf/3rc3vDi/mzdOmqSZMmqcUBThg5kyVw5BkZgiFudvRiFgOS6bXXXsv3oW/fvmqSE1GaegJAJzR4AOFiVAH0QX9MovygEysVFRUjRtyzevUW+9tdjx+RXxwljlWLA0Jy+HDFnXfeFW/L/PrrgpEjR9Iy4RMjZ7IEjjwjQzDEzY5ezGJABAQeK4EoosEDCBejCqAP+mNVSCSq+/btE+9s/f99nMgp8ouj1IKAUJWWlv3lL3f5/2vWTz9dee+9I2mZ8I+RM1kSiTwjQzDEza6G92IWAyIgkbESiBwaPIBwMaoA+qA/VoUEo1pRUfHEE08+/vjkzZv32N/9mj9ir8gjcqbG38RBf6Kl5edPfOyxSd4t85tvvp006W+TJk2iZSIujJzJknjkGRkCIG52NbkXsxgQAQmOlUC00OABhItRBdAH/bEqhBLVzZs3jx495uGHH5s/f6nyNlikiHSxV+RRDwOq2MaNm+67b/TYseM//HCJ0jI/+mjpo49OePDBsbRMBMDImSyhRJ6RIRjiZlczezGLAREQylgJRAUNHkC4GFUAfdAfq0KIX7Gwb9++WbNmjRv36MMPP/LQQ4+I32JbpKTM5+IRUaIFzpz5vy1TNEvxIzYefXT87NmzaZkIjJEzWcKNPCNDAMTNrqb1YhYDIoB3TahRaPAAwsWoAuiD/ggAAAAkEYsBEcC7JtQoNHgA4WJUAfRBfwQAAEBSvPrqq/lhCPEDLknBYkAE5POuCTUJDR5AuBhVAH3QHwEAAIAkYjEgAnjXhBqFBg8gXIwqgD7ojwAAAEASsRgQAbxrQo1CgwcQLkYVQB/0RwAAACCJWAyIAN41oUahwQMIF6MKoA/6IwAAAJBELAZEAO+aUKPQ4AGEi1EF0Af9EQAAAEgiFgMigHdNqFFo8ADCxagC6IP+CAAAACQRiwERwLsm1Cg0eADhYlQB9EF/BAAAAJKIxYAI4F0TahQaPIBwMaoA+qA/AgAAAEnEYkAE8K4JNQoNHkC4GFUAfdAfAQAAgCRiMSACeNeEGoUGDyBcjCqAPuiPAAAAQBKxGBABvGtCjUKDBxAuRhVAH/RHAAAAIIlYDIgA3jWhRqHBAwgXowqgD/ojAAAAkEQsBujuwIEDV199tfit7gBSEQ0eQLgYVQB90B8BAACA5GIxQGsVFRUjR45cs2aN+C221d1AaqHBAwgXowqgD/ojAAAAkHQsBvz/9u5YVXEoCAPwewtWtqltxQdInxdIb53Wzs7GQhDusMUip9jVywF/w/cVonOSqWYGZAiJNgzDsiz1pT49Vc3qKXigL1MFcuhHAAD4OMuAXMfjcZ7nvz/re0WezmFVFDzQl6kCOfQjAAAksAwINU3TOI5NsCIVb4KwAgoe6MtUgRz6EQAAQlgGJDqdTvv9vo3+UfE6baPwzRQ80JepAjn0IwAA5LAMiHM+n3e7XRt9Uqd1TRuF76Tggb5MFcihHwEAIIplQJbr9brZbO73e3vwpE7rmrqyPYBvo+CBvkwVyKEfAQAgjWVAkNf/Dr3y5wrCKXigL1MFcuhHAAAIZBkQ5K0Hpf/72DWEU/BAX6YK5NCPAAAQyDIgxS9eofaPF7JBOAUP9GWqQA79CAAAmSwDIozjOE1TG31B3VX3tlHIpuCBvkwVyKEfAQAglmXA583zfDwe2+jL6t7K0EYhlYIH+jJVIId+BACAZJYBH7YsyzAMbfRNlaHytFHIo+CBvkwVyKEfAQAgnGXAJ10ul+12+3g82oM3VYbKU9naA0ii4IG+TBXIoR8BACCfZcAnHQ6H2+3WRn+l8lS2NgpJFDzQl6kCOfQjAADkswwAAAAAAICVswwAAAAAAICVswwAAAAAAICVswwAAAAAAICVswwAAAAAAICV+wF9w6FiQgPFBgAAAABJRU5ErkJggg==;" vertex="1" parent="1">
                    <mxGeometry width="2052" height="930" as="geometry"/>
                </mxCell>
                <mxCell id="3" value="sq Email Verfication" style="shape=umlFrame;whiteSpace=wrap;html=1;rounded=0;shadow=0;comic=0;labelBackgroundColor=none;strokeWidth=1;fontFamily=Verdana;fontSize=10;align=center;" vertex="1" parent="1">
                    <mxGeometry x="-70" y="-50" width="2190" height="1050" as="geometry"/>
                </mxCell>
            </root>
        </mxGraphModel>
    </diagram>
</mxfile>